<svg width="201" height="41" viewBox="0 0 201 41" fill="none" xmlns="http://www.w3.org/2000/svg">
<path d="M46.5488 23.3572V0.458008H51.4557V18.941H61.8258V23.3572H46.5488Z" fill="black"/>
<path d="M66.3867 23.3572V0.458008H81.8273V4.77615H71.1955V19.0391H82.0563V23.3572H66.3867ZM68.6766 13.7723V9.58498H80.2571V13.7723H68.6766Z" fill="black"/>
<path d="M97.6532 23.6843C95.8649 23.6843 94.2401 23.3899 92.779 22.8011C91.3178 22.2123 90.0529 21.3835 88.9842 20.3149C87.9156 19.2463 87.0869 17.9923 86.498 16.5529C85.931 15.1135 85.6475 13.5542 85.6475 11.8749C85.6475 10.1956 85.9419 8.63628 86.5307 7.1969C87.1414 5.75752 87.9919 4.51442 89.0824 3.4676C90.1946 2.39897 91.4922 1.57024 92.9752 0.9814C94.4582 0.392563 96.083 0.0981445 97.8495 0.0981445C99.0708 0.0981445 100.238 0.26171 101.35 0.588842C102.462 0.915974 103.476 1.36305 104.392 1.93008C105.308 2.49711 106.061 3.15137 106.649 3.89287L103.607 7.09876C102.757 6.29184 101.852 5.67029 100.892 5.23411C99.9322 4.77613 98.8963 4.54714 97.7841 4.54714C96.7591 4.54714 95.8104 4.73251 94.938 5.10326C94.0875 5.4522 93.3351 5.96471 92.6808 6.64078C92.0484 7.29504 91.5468 8.06926 91.176 8.96342C90.8271 9.85758 90.6526 10.8281 90.6526 11.8749C90.6526 12.8999 90.838 13.8595 91.2087 14.7536C91.6013 15.6478 92.1247 16.4329 92.779 17.109C93.455 17.7633 94.2401 18.2867 95.1343 18.6792C96.0285 19.05 96.9881 19.2354 98.0131 19.2354C98.7328 19.2354 99.4088 19.1263 100.041 18.9082C100.695 18.6683 101.263 18.3521 101.742 17.9595C102.244 17.567 102.637 17.109 102.92 16.5856C103.204 16.0622 103.345 15.4951 103.345 14.8845V14.0994L103.967 15.0154H97.4897V10.8935H108.023C108.067 11.1334 108.1 11.4278 108.122 11.7767C108.143 12.1257 108.154 12.4637 108.154 12.7909C108.176 13.118 108.187 13.3906 108.187 13.6087C108.187 15.0917 107.925 16.4547 107.402 17.6978C106.878 18.9191 106.137 19.9769 105.177 20.871C104.218 21.7652 103.095 22.4631 101.808 22.9647C100.521 23.4444 99.1362 23.6843 97.6532 23.6843Z" fill="black"/>
<path d="M112.55 23.3572V0.458008H127.99V4.77615H117.359V19.0391H128.219V23.3572H112.55ZM114.84 13.7723V9.58498H126.42V13.7723H114.84Z" fill="black"/>
<path d="M133.315 23.3572V0.458008H137.699L150.391 17.5997H149.508C149.355 16.4875 149.225 15.3861 149.116 14.2957C149.006 13.1834 148.93 12.0058 148.887 10.7627C148.865 9.51956 148.854 8.1347 148.854 6.60808V0.458008H153.63V23.3572H149.181L136.259 6.11739H137.437C137.59 7.55677 137.71 8.74535 137.797 9.68312C137.884 10.6209 137.949 11.406 137.993 12.0385C138.037 12.6491 138.069 13.1943 138.091 13.6741C138.113 14.1539 138.124 14.6555 138.124 15.1789V23.3572H133.315Z" fill="black"/>
<path d="M191.983 23.6843C189.846 23.6843 188.014 23.3027 186.487 22.5394C184.982 21.7543 183.685 20.6202 182.595 19.1372L185.669 15.6696C186.738 17.1526 187.796 18.1667 188.843 18.7119C189.911 19.2353 191.056 19.4971 192.277 19.4971C192.953 19.4971 193.553 19.3989 194.077 19.2026C194.622 19.0064 195.047 18.7337 195.353 18.3848C195.68 18.0359 195.843 17.6324 195.843 17.1744C195.843 16.8255 195.767 16.5092 195.614 16.2257C195.462 15.9204 195.243 15.6587 194.96 15.4406C194.676 15.2007 194.338 14.9935 193.946 14.8191C193.553 14.6228 193.117 14.4592 192.637 14.3284C192.158 14.1975 191.634 14.0776 191.067 13.9685C189.846 13.7068 188.777 13.3688 187.861 12.9544C186.945 12.5401 186.182 12.0384 185.571 11.4496C184.961 10.8608 184.503 10.1847 184.197 9.42139C183.914 8.63628 183.772 7.76393 183.772 6.80434C183.772 5.4522 184.154 4.27452 184.917 3.27132C185.68 2.2463 186.694 1.45028 187.959 0.883256C189.224 0.294419 190.62 0 192.147 0C194.219 0 195.92 0.348941 197.25 1.04682C198.602 1.7447 199.681 2.7261 200.488 3.99101L197.348 7.06605C196.672 6.12827 195.898 5.41948 195.025 4.93969C194.153 4.4599 193.215 4.22 192.212 4.22C191.514 4.22 190.892 4.31814 190.347 4.51442C189.824 4.68889 189.421 4.9615 189.137 5.33225C188.854 5.68119 188.712 6.09556 188.712 6.57535C188.712 6.96791 188.81 7.31685 189.006 7.62217C189.202 7.92749 189.475 8.2001 189.824 8.44C190.195 8.65809 190.642 8.85437 191.165 9.02884C191.688 9.20331 192.267 9.34506 192.899 9.45411C194.099 9.694 195.178 10.0211 196.137 10.4355C197.097 10.8281 197.915 11.3079 198.591 11.8749C199.289 12.4419 199.823 13.0962 200.194 13.8377C200.565 14.5792 200.75 15.4079 200.75 16.3239C200.75 17.8723 200.379 19.1917 199.638 20.2822C198.896 21.3726 197.871 22.2122 196.563 22.8011C195.254 23.3899 193.728 23.6843 191.983 23.6843Z" fill="black"/>
<path d="M159.954 0.363281H169.375C171.033 0.363281 172.549 0.646796 173.923 1.21383C175.297 1.75905 176.474 2.54416 177.456 3.56918C178.437 4.57238 179.189 5.78277 179.713 7.20034C180.236 8.5961 180.498 10.1336 180.498 11.8129C180.498 13.514 180.236 15.0624 179.713 16.4581C179.189 17.8539 178.437 19.0643 177.456 20.0893C176.474 21.0925 175.297 21.8776 173.923 22.4447C172.57 22.9899 171.055 23.2625 169.375 23.2625H159.954V7.81462H164.861V18.8462H169.212C170.193 18.8462 171.066 18.6826 171.829 18.3555C172.614 18.0284 173.279 17.5595 173.824 16.9488C174.392 16.3164 174.817 15.5749 175.1 14.7243C175.384 13.852 175.526 12.8815 175.526 11.8129C175.526 10.7442 175.384 9.78468 175.1 8.93414C174.817 8.06179 174.392 7.32029 173.824 6.70964C173.279 6.07719 172.614 5.59739 171.829 5.27026C171.066 4.94313 170.193 4.77956 169.212 4.77956H159.954V0.363281Z" fill="black"/>
<path d="M46.5488 38.3724V27.4175H50.9618C51.5773 27.4175 52.1302 27.5635 52.6206 27.8557C53.1213 28.1478 53.5125 28.5443 53.7942 29.0451C54.0863 29.5459 54.2324 30.1145 54.2324 30.7509C54.2324 31.3665 54.0863 31.9298 53.7942 32.4411C53.5125 32.9523 53.1213 33.3592 52.6206 33.6618C52.1302 33.9643 51.5773 34.1156 50.9618 34.1156H47.785V38.3724H46.5488ZM53.1526 38.3724L50.3671 33.5209L51.6503 33.2236L54.6549 38.388L53.1526 38.3724ZM47.785 32.9106H51.1026C51.4677 32.9106 51.7912 32.8167 52.0728 32.6289C52.3545 32.4411 52.5736 32.1855 52.7301 31.862C52.8866 31.5282 52.9648 31.1526 52.9648 30.7352C52.9648 30.3179 52.8709 29.9528 52.6831 29.6398C52.5058 29.3163 52.2554 29.0659 51.932 28.8886C51.6086 28.7008 51.233 28.6069 50.8053 28.6069H47.785V32.9106Z" fill="black"/>
<path d="M56.9707 38.3724V27.4175H63.6058V28.6069H58.207V37.183H63.5746V38.3724H56.9707ZM57.5497 33.3331V32.1437H62.7295V33.3331H57.5497Z" fill="black"/>
<path d="M70.7991 38.5291C70.0271 38.5291 69.3176 38.3934 68.6708 38.1222C68.0344 37.8509 67.4763 37.4649 66.9964 36.9641C66.5269 36.4633 66.1618 35.8686 65.901 35.18C65.6506 34.4914 65.5254 33.735 65.5254 32.9108C65.5254 32.1178 65.661 31.3823 65.9323 30.7041C66.2035 30.0156 66.5791 29.4209 67.059 28.9201C67.5493 28.4088 68.1179 28.0124 68.7647 27.7307C69.4115 27.449 70.121 27.3081 70.893 27.3081C71.425 27.3081 71.9415 27.3864 72.4422 27.5429C72.943 27.6994 73.3968 27.9185 73.8037 28.2002C74.221 28.4819 74.5705 28.8053 74.8522 29.1705L74.0071 30.0312C73.5585 29.5513 73.0682 29.1861 72.5361 28.9357C72.0145 28.6749 71.4668 28.5445 70.893 28.5445C70.3087 28.5445 69.7663 28.654 69.2655 28.8731C68.7647 29.0922 68.3266 29.3948 67.951 29.7808C67.5858 30.1668 67.2989 30.6311 67.0903 31.1736C66.8816 31.7057 66.7773 32.2848 66.7773 32.9108C66.7773 33.5681 66.8816 34.168 67.0903 34.7105C67.2989 35.2426 67.5858 35.7017 67.951 36.0877C68.3266 36.4633 68.7699 36.7554 69.2811 36.9641C69.7923 37.1727 70.3609 37.2771 70.9869 37.2771C71.3729 37.2771 71.7485 37.2301 72.1136 37.1362C72.4787 37.0319 72.8178 36.8858 73.1308 36.698C73.4438 36.5102 73.7307 36.2911 73.9915 36.0407L74.6331 37.058C74.3723 37.3397 74.0384 37.5953 73.6315 37.8248C73.2247 38.0439 72.7761 38.2161 72.2857 38.3413C71.8058 38.4665 71.3103 38.5291 70.7991 38.5291Z" fill="black"/>
<path d="M81.56 38.5291C80.7776 38.5291 80.0577 38.3882 79.4005 38.1065C78.7537 37.8248 78.1851 37.4336 77.6947 36.9328C77.2148 36.432 76.8445 35.8425 76.5837 35.1643C76.3229 34.4758 76.1924 33.7193 76.1924 32.8951C76.1924 32.0813 76.3229 31.3354 76.5837 30.6572C76.8445 29.9686 77.2148 29.3739 77.6947 28.8731C78.1851 28.3619 78.7537 27.9654 79.4005 27.6837C80.0577 27.402 80.7776 27.2612 81.56 27.2612C82.332 27.2612 83.0415 27.402 83.6883 27.6837C84.3455 27.9654 84.9141 28.3619 85.394 28.8731C85.8843 29.3739 86.2599 29.9686 86.5207 30.6572C86.792 31.3458 86.9276 32.0918 86.9276 32.8951C86.9276 33.7089 86.792 34.4601 86.5207 35.1487C86.2599 35.8269 85.8843 36.4215 85.394 36.9328C84.9141 37.4336 84.3455 37.8248 83.6883 38.1065C83.0415 38.3882 82.332 38.5291 81.56 38.5291ZM81.56 37.324C82.1547 37.324 82.7024 37.2145 83.2032 36.9954C83.7039 36.7763 84.1369 36.4685 84.502 36.072C84.8672 35.6756 85.1488 35.2113 85.3471 34.6792C85.5557 34.1367 85.66 33.542 85.66 32.8951C85.66 32.2587 85.5557 31.6744 85.3471 31.1423C85.1488 30.5998 84.8672 30.1303 84.502 29.7339C84.1369 29.327 83.7039 29.014 83.2032 28.7949C82.7024 28.5758 82.1547 28.4662 81.56 28.4662C80.9654 28.4662 80.4177 28.5758 79.9169 28.7949C79.4161 29.014 78.978 29.3217 78.6024 29.7182C78.2372 30.1147 77.9503 30.5842 77.7417 31.1267C77.5435 31.6692 77.4444 32.2587 77.4444 32.8951C77.4444 33.7506 77.6217 34.5123 77.9764 35.18C78.3311 35.8477 78.8162 36.3746 79.4318 36.7606C80.0473 37.1362 80.7567 37.324 81.56 37.324Z" fill="black"/>
<path d="M92.6054 38.741L87.5977 27.4175H89.0062L91.9951 35.1172C92.089 35.378 92.1725 35.618 92.2455 35.8371C92.329 36.0458 92.402 36.2388 92.4646 36.4161C92.5272 36.5831 92.5845 36.7396 92.6367 36.8856C92.6889 37.0317 92.7358 37.1725 92.7775 37.3082H92.4333C92.4854 37.1308 92.5428 36.9378 92.6054 36.7291C92.6784 36.5205 92.7619 36.2857 92.8558 36.0249C92.9497 35.7536 93.0592 35.4511 93.1844 35.1172L96.0325 27.4175H97.4879L92.6054 38.741Z" fill="black"/>
<path d="M99.4404 38.3724V27.4175H106.075V28.6069H100.677V37.183H106.044V38.3724H99.4404ZM100.019 33.3331V32.1437H105.199V33.3331H100.019Z" fill="black"/>
<path d="M108.793 38.3724V27.4175H113.206C113.821 27.4175 114.374 27.5635 114.865 27.8557C115.365 28.1478 115.756 28.5443 116.038 29.0451C116.33 29.5459 116.476 30.1145 116.476 30.7509C116.476 31.3665 116.33 31.9298 116.038 32.4411C115.756 32.9523 115.365 33.3592 114.865 33.6618C114.374 33.9643 113.821 34.1156 113.206 34.1156H110.029V38.3724H108.793ZM115.397 38.3724L112.611 33.5209L113.894 33.2236L116.899 38.388L115.397 38.3724ZM110.029 32.9106H113.347C113.712 32.9106 114.035 32.8167 114.317 32.6289C114.598 32.4411 114.818 32.1855 114.974 31.862C115.131 31.5282 115.209 31.1526 115.209 30.7352C115.209 30.3179 115.115 29.9528 114.927 29.6398C114.75 29.3163 114.499 29.0659 114.176 28.8886C113.853 28.7008 113.477 28.6069 113.049 28.6069H110.029V32.9106Z" fill="black"/>
<path d="M121.331 38.3724V32.9575L121.44 33.6774L117.043 27.4175H118.545L122.145 32.5976L121.832 32.5663L125.18 27.4175H126.605L122.364 33.787L122.567 32.8793V38.3724H121.331Z" fill="black"/>
<path d="M137.261 38.5291C136.489 38.5291 135.78 38.3934 135.133 38.1222C134.497 37.8509 133.939 37.4649 133.459 36.9641C132.989 36.4633 132.624 35.8686 132.363 35.18C132.113 34.4914 131.988 33.735 131.988 32.9108C131.988 32.1178 132.123 31.3823 132.395 30.7041C132.666 30.0156 133.041 29.4209 133.521 28.9201C134.012 28.4088 134.58 28.0124 135.227 27.7307C135.874 27.449 136.583 27.3081 137.355 27.3081C137.887 27.3081 138.404 27.3864 138.904 27.5429C139.405 27.6994 139.859 27.9185 140.266 28.2002C140.683 28.4819 141.033 28.8053 141.314 29.1705L140.469 30.0312C140.021 29.5513 139.53 29.1861 138.998 28.9357C138.477 28.6749 137.929 28.5445 137.355 28.5445C136.771 28.5445 136.228 28.654 135.728 28.8731C135.227 29.0922 134.789 29.3948 134.413 29.7808C134.048 30.1668 133.761 30.6311 133.553 31.1736C133.344 31.7057 133.24 32.2848 133.24 32.9108C133.24 33.5681 133.344 34.168 133.553 34.7105C133.761 35.2426 134.048 35.7017 134.413 36.0877C134.789 36.4633 135.232 36.7554 135.743 36.9641C136.255 37.1727 136.823 37.2771 137.449 37.2771C137.835 37.2771 138.211 37.2301 138.576 37.1362C138.941 37.0319 139.28 36.8858 139.593 36.698C139.906 36.5102 140.193 36.2911 140.454 36.0407L141.095 37.058C140.834 37.3397 140.501 37.5953 140.094 37.8248C139.687 38.0439 139.238 38.2161 138.748 38.3413C138.268 38.4665 137.773 38.5291 137.261 38.5291Z" fill="black"/>
<path d="M143.453 38.3724V27.4175H150.088V28.6069H144.689V37.183H150.057V38.3724H143.453ZM144.032 33.3331V32.1437H149.211V33.3331H144.032Z" fill="black"/>
<path d="M152.805 38.3724V27.4175H153.932L160.865 36.8856L160.677 36.9795C160.625 36.6457 160.583 36.2596 160.552 35.8214C160.52 35.3728 160.494 34.8511 160.473 34.2565C160.463 33.6618 160.458 32.9836 160.458 32.222V27.4175H161.694V38.3724H160.552L153.635 29.0294L153.823 28.8886C153.875 29.452 153.911 29.9475 153.932 30.3753C153.963 30.8031 153.989 31.1734 154.01 31.4864C154.031 31.789 154.042 32.055 154.042 32.2846C154.042 32.5037 154.042 32.7019 154.042 32.8793V38.3724H152.805Z" fill="black"/>
<path d="M166.928 38.3724V28.6069H163.767V27.4175H171.388V28.6069H168.164V38.3724H166.928Z" fill="black"/>
<path d="M173.436 38.3724V27.4175H180.071V28.6069H174.673V37.183H180.04V38.3724H173.436ZM174.015 33.3331V32.1437H179.195V33.3331H174.015Z" fill="black"/>
<path d="M182.789 38.3724V27.4175H187.202C187.818 27.4175 188.37 27.5635 188.861 27.8557C189.362 28.1478 189.753 28.5443 190.034 29.0451C190.327 29.5459 190.473 30.1145 190.473 30.7509C190.473 31.3665 190.327 31.9298 190.034 32.4411C189.753 32.9523 189.362 33.3592 188.861 33.6618C188.37 33.9643 187.818 34.1156 187.202 34.1156H184.025V38.3724H182.789ZM189.393 38.3724L186.607 33.5209L187.891 33.2236L190.895 38.388L189.393 38.3724ZM184.025 32.9106H187.343C187.708 32.9106 188.031 32.8167 188.313 32.6289C188.595 32.4411 188.814 32.1855 188.97 31.862C189.127 31.5282 189.205 31.1526 189.205 30.7352C189.205 30.3179 189.111 29.9528 188.923 29.6398C188.746 29.3163 188.496 29.0659 188.172 28.8886C187.849 28.7008 187.473 28.6069 187.045 28.6069H184.025V32.9106Z" fill="black"/>
<path d="M196.466 38.5291C195.559 38.5291 194.761 38.3569 194.072 38.0126C193.394 37.6579 192.82 37.1414 192.351 36.4633L193.227 35.493C193.697 36.1816 194.192 36.6719 194.714 36.9641C195.246 37.2562 195.872 37.4023 196.592 37.4023C197.051 37.4023 197.463 37.324 197.828 37.1675C198.203 37.011 198.501 36.7971 198.72 36.5259C198.939 36.2546 199.048 35.9468 199.048 35.6025C199.048 35.373 199.007 35.1643 198.923 34.9765C198.85 34.7888 198.73 34.6218 198.563 34.4758C198.407 34.3297 198.209 34.1941 197.969 34.0689C197.729 33.9437 197.452 33.8341 197.139 33.7402C196.837 33.6359 196.492 33.5368 196.106 33.4429C195.564 33.3281 195.089 33.1768 194.682 32.989C194.286 32.8012 193.947 32.5769 193.665 32.3161C193.384 32.0552 193.175 31.7579 193.039 31.424C192.904 31.0797 192.836 30.6937 192.836 30.266C192.836 29.6817 192.998 29.1652 193.321 28.7166C193.655 28.268 194.098 27.9133 194.651 27.6524C195.214 27.3916 195.846 27.2612 196.545 27.2612C197.39 27.2612 198.11 27.4177 198.704 27.7307C199.309 28.0437 199.794 28.4871 200.16 29.0609L199.283 29.9217C198.949 29.4313 198.553 29.0557 198.094 28.7949C197.645 28.5236 197.118 28.388 196.513 28.388C196.044 28.388 195.627 28.4662 195.261 28.6227C194.896 28.7792 194.609 28.9983 194.401 29.28C194.192 29.5513 194.088 29.8695 194.088 30.2347C194.088 30.4955 194.135 30.7354 194.229 30.9545C194.333 31.1632 194.484 31.3458 194.682 31.5023C194.881 31.6588 195.136 31.7996 195.449 31.9248C195.762 32.05 196.133 32.1596 196.56 32.2535C197.145 32.3891 197.666 32.5508 198.125 32.7386C198.595 32.9264 198.991 33.1455 199.314 33.3959C199.638 33.6463 199.883 33.928 200.05 34.241C200.217 34.554 200.3 34.9087 200.3 35.3052C200.3 35.9521 200.139 36.5207 199.815 37.011C199.502 37.491 199.059 37.8665 198.485 38.1378C197.911 38.3986 197.238 38.5291 196.466 38.5291Z" fill="black"/>
<path d="M38.1654 20.3546C38.1654 29.9776 30.3644 37.7786 20.7414 37.7786C11.1184 37.7786 3.31738 29.9776 3.31738 20.3546C3.31738 10.7316 11.1184 2.93066 20.7414 2.93066C30.3644 2.93066 38.1654 10.7316 38.1654 20.3546Z" stroke="black" stroke-width="1.5"/>
<path d="M20.7414 40.0961C31.6443 40.0961 40.4828 31.2576 40.4828 20.3547C40.4828 9.45181 31.6443 0.613281 20.7414 0.613281C9.83853 0.613281 1 9.45181 1 20.3547C1 31.2576 9.83853 40.0961 20.7414 40.0961Z" stroke="black" stroke-width="0.5"/>
<path d="M22.0132 36.3478L20.1049 31.7134M20.1049 31.7134L18.1966 27.079M20.1049 31.7134L24.0123 24.5347M18.1966 27.079L13.4714 25.6251M18.1966 27.079L19.2871 24.1712M13.4714 25.6251L8.56445 30.3504L14.0166 19.8094M13.4714 25.6251L14.0166 19.8094M19.2871 24.1712L16.561 20.8999M19.2871 24.1712L24.0123 24.5347M14.0166 19.8094L16.561 20.8999M16.561 20.8999L20.741 10.1772M20.741 10.1772L24.0123 24.5347M20.741 10.1772L23.6488 17.8103L25.2845 17.4468M24.0123 24.5347L28.9193 29.9869L30.5549 28.533M24.0123 24.5347L25.2845 21.6268M30.5549 28.533L33.281 29.9869M30.5549 28.533L25.2845 17.4468M30.5549 28.533L25.2845 21.6268M25.2845 21.6268V17.4468" stroke="black" stroke-width="0.8"/>
</svg>
