<svg width="191" height="25" viewBox="0 0 191 25" fill="none" xmlns="http://www.w3.org/2000/svg">
<path d="M190.793 6.3688C190.723 6.46585 190.606 6.50454 190.589 6.56963C189.489 10.6458 188.401 14.7249 187.292 18.7987C187.254 18.9375 187.029 19.1159 186.886 19.1214C186.077 19.1526 185.266 19.1525 184.457 19.1216C184.312 19.116 184.082 18.9395 184.048 18.8026C183.359 16.0989 182.694 13.3894 182.021 10.6819C181.998 10.591 181.935 10.5101 181.864 10.3733C181.167 13.2265 180.49 16.017 179.79 18.8018C179.756 18.9387 179.525 19.1172 179.381 19.1217C178.451 19.1506 177.519 19.1364 176.593 19.1364C175.402 14.6614 174.219 10.2096 173.014 5.67954C174.01 5.67954 174.967 5.66899 175.924 5.69527C176.023 5.69801 176.172 5.90585 176.205 6.04083C176.667 7.96595 177.117 9.89393 177.562 11.8233C177.765 12.7074 177.949 13.596 178.245 14.4982C178.413 13.8351 178.58 13.1715 178.75 12.5089C179.312 10.3154 179.873 8.12099 180.454 5.93206C180.482 5.82283 180.695 5.69342 180.825 5.69006C181.667 5.66831 182.511 5.6789 183.35 5.6789C184.098 8.66644 184.84 11.6259 185.581 14.5855C185.619 14.5839 185.658 14.5823 185.696 14.5808C186.269 12.109 186.84 9.63679 187.416 7.16553C187.512 6.75396 187.599 6.33709 187.745 5.94259C187.79 5.8207 188.014 5.69455 188.159 5.69048C189.003 5.66677 189.849 5.67887 190.743 5.67886C190.793 5.89352 190.793 6.10817 190.793 6.3688Z" fill="black"/>
<path d="M0 6.25342C2.83233 6.20459 5.66466 6.20459 8.52707 6.20459C8.52707 6.69029 8.52707 7.15363 8.52707 7.65958C7.43455 7.65958 6.33459 7.65958 5.19291 7.65958C5.19291 11.5288 5.19291 15.3565 5.19291 19.2128C4.58023 19.2128 4.00916 19.2128 3.39537 19.2128C3.39537 15.3877 3.39537 11.56 3.39537 7.67652C2.26904 7.67652 1.18404 7.67652 0.0495106 7.67652C2.79817e-08 7.21841 0 6.76037 0 6.25342Z" fill="black"/>
<path d="M159.782 24.9165C159.983 24.8827 160.233 24.8219 160.483 24.8204C161.165 24.8161 161.847 24.8369 162.557 24.8821C161.668 24.9165 160.75 24.9165 159.782 24.9165Z" fill="black"/>
<path d="M126.138 11.6685C126.138 9.65604 126.138 7.69622 126.138 5.70605C129.302 5.70605 132.443 5.70605 135.615 5.70605C135.615 6.54541 135.615 7.3941 135.615 8.28483C133.504 8.28483 131.383 8.28483 129.232 8.28483C129.232 9.27948 129.232 10.2333 129.232 11.2291C131.063 11.2291 132.902 11.2291 134.77 11.2291C134.77 12.0485 134.77 12.8271 134.77 13.6478C132.939 13.6478 131.1 13.6478 129.22 13.6478C129.22 15.4836 129.22 17.2786 129.22 19.1032C128.185 19.1032 127.192 19.1032 126.138 19.1032C126.138 16.6469 126.138 14.184 126.138 11.6685Z" fill="black"/>
<path d="M77.0153 9.46054C77.0153 12.7343 77.0153 15.9555 77.0153 19.2382C76.298 19.2382 75.6007 19.2496 74.9047 19.2268C74.7907 19.2231 74.6324 19.0922 74.5786 18.9802C73.9038 17.5623 73.239 16.1392 72.5818 14.713C72.1299 13.7327 71.693 12.7457 71.2492 11.7617C70.7635 10.6852 70.2783 9.60855 69.7901 8.53324C69.7594 8.46515 69.7025 8.40871 69.6255 8.30213C69.6255 11.9607 69.6255 15.5636 69.6255 19.2024C69.1091 19.2024 68.6083 19.2024 68.0713 19.2024C68.0713 14.9092 68.0713 10.5916 68.0713 6.2019C68.7924 6.2019 69.541 6.19052 70.289 6.21464C70.396 6.21811 70.5419 6.37277 70.5963 6.491C71.4057 8.2536 72.1981 10.0244 73.0049 11.788C73.6446 13.1851 74.3006 14.5746 74.9466 15.9687C75.0862 16.2696 75.2145 16.5756 75.4117 17.0236C75.4117 13.3341 75.4117 9.79799 75.4117 6.23167C75.9531 6.23167 76.4539 6.23167 77.0153 6.23167C77.0153 7.28481 77.0153 8.34636 77.0153 9.46054Z" fill="black"/>
<path d="M24.404 14.813C24.4392 15.0101 24.4934 15.1574 24.5064 15.3081C24.6179 16.6056 24.7221 17.9036 24.8298 19.2178C24.3085 19.2178 23.6976 19.2178 22.9852 19.2178C22.8957 18.4925 22.7836 17.7559 22.7195 17.0152C22.6567 16.2901 22.6604 15.5596 22.6033 14.8338C22.5293 13.8912 21.8883 13.3252 20.7872 13.2558C20.1429 13.2151 19.4938 13.2483 18.8053 13.2483C18.8053 15.2587 18.8053 17.2292 18.8053 19.2199C18.1919 19.2199 17.6209 19.2199 17.0293 19.2199C17.0293 14.8931 17.0293 10.5873 17.0293 6.23526C17.1434 6.22585 17.2755 6.20566 17.4077 6.20545C18.8515 6.20317 20.2965 6.24105 21.7388 6.1946C23.5225 6.13711 24.7265 7.52493 24.7329 9.18611C24.7369 10.2293 24.5804 11.177 23.7196 11.8666C23.4349 12.0947 23.0933 12.2523 22.738 12.466C23.9933 12.7303 24.3531 13.6405 24.404 14.813ZM18.805 11.5961C18.8858 11.6561 18.9655 11.7667 19.0474 11.7682C19.7688 11.7819 20.4952 11.8244 21.2103 11.7561C21.573 11.7214 21.9687 11.5428 22.2566 11.3138C22.9742 10.7426 23.0444 9.90735 22.8861 9.09678C22.7511 8.4052 22.3651 7.82836 21.5374 7.77809C20.64 7.72364 19.7419 7.67991 18.8046 7.62939C18.8046 8.98011 18.8046 10.2373 18.805 11.5961Z" fill="black"/>
<path d="M35.2059 19.1364C33.8548 18.4043 33.3385 17.2078 33.2877 15.7989C33.2143 13.761 33.1332 11.7183 33.1991 9.68225C33.2415 8.3691 33.6818 7.14272 34.9819 6.45301C35.9517 5.93855 36.9722 5.80474 38.0614 5.94897C38.9955 6.07268 39.7911 6.38909 40.4584 7.07943C41.0499 7.69147 41.3523 8.43276 41.3934 9.22401C41.4891 11.0675 41.5463 12.9179 41.4948 14.7621C41.4635 15.8836 41.373 17.0332 40.6921 18.0309C40.0754 18.9345 39.2239 19.4033 38.1579 19.4407C37.3792 19.4679 36.5958 19.3946 35.8163 19.3393C35.6229 19.3256 35.4369 19.2077 35.2059 19.1364ZM34.9684 13.5125C35.0035 14.2393 35.0325 14.9666 35.0752 15.6931C35.1531 17.0176 35.8267 18.1377 37.525 17.9965C38.5461 17.9116 39.1279 17.6002 39.3947 16.5833C39.5792 15.8799 39.6819 15.141 39.7085 14.4139C39.7572 13.0841 39.7519 11.7503 39.7082 10.4202C39.6901 9.86975 39.5476 9.3159 39.4048 8.77855C39.0137 7.30674 36.8628 6.9802 35.8202 7.92177C35.1931 8.48808 35.0056 9.21716 34.9786 9.99122C34.939 11.1287 34.9684 12.2686 34.9684 13.5125Z" fill="black"/>
<path d="M149.253 16.5897C149.713 17.3718 150.124 18.1715 150.558 19.0019C150.454 19.0662 150.328 19.129 150.201 19.1292C147.247 19.1346 144.293 19.1333 141.338 19.1322C141.289 19.1322 141.239 19.1183 141.166 19.1073C141.166 14.6455 141.166 10.1909 141.166 5.70605C142.121 5.70605 143.079 5.70605 144.075 5.70605C144.075 9.31131 144.075 12.9256 144.075 16.6073C145.809 16.6073 147.506 16.6073 149.253 16.5897Z" fill="black"/>
<path d="M56.8363 15.4338C56.8363 12.3399 56.8363 9.2959 56.8363 6.229C57.4445 6.229 58.0154 6.229 58.6323 6.229C58.6323 6.41301 58.6323 6.58301 58.6323 6.75301C58.6323 9.59104 58.6484 12.4292 58.6234 15.267C58.6148 16.2416 58.3895 17.1907 57.8693 18.0336C57.3987 18.7962 56.6836 19.2021 55.8035 19.3956C54.6788 19.6429 53.5754 19.5948 52.5172 19.1894C51.2535 18.7054 50.7321 17.6231 50.5071 16.3829C50.4153 15.877 50.3986 15.3527 50.3967 14.8366C50.3868 11.9824 50.392 9.12814 50.392 6.23996C50.9422 6.23996 51.4782 6.23996 52.0823 6.23996C52.0823 6.40541 52.0823 6.59005 52.0823 6.77468C52.0823 9.41999 52.0619 12.0656 52.0968 14.7104C52.1055 15.3652 52.2521 16.0278 52.4105 16.6685C52.5958 17.4178 53.2985 18.0526 54.2061 17.9817C54.6005 17.9509 55.0065 17.9727 55.3875 17.8852C56.2433 17.6887 56.5141 16.9738 56.7245 16.241C56.7943 15.9978 56.8008 15.7366 56.8363 15.4338Z" fill="black"/>
<path d="M109.326 11.7788C109.652 11.7376 109.796 11.8082 109.77 12.1324C109.74 12.5145 109.763 12.9009 109.763 13.3271C108.23 13.3271 106.707 13.3271 105.15 13.3271C105.15 14.7774 105.15 16.1868 105.15 17.6383C106.825 17.6383 108.523 17.6383 110.256 17.6383C110.256 18.1772 110.256 18.6755 110.256 19.209C107.981 19.209 105.685 19.209 103.354 19.209C103.354 14.9122 103.354 10.5946 103.354 6.2417C105.593 6.2417 107.853 6.2417 110.15 6.2417C110.15 6.68168 110.15 7.14502 110.15 7.65053C108.51 7.65053 106.848 7.65053 105.149 7.65053C105.149 9.03059 105.149 10.37 105.149 11.7788C106.51 11.7788 107.892 11.7788 109.326 11.7788Z" fill="black"/>
<path d="M89.8391 5.88867C90.6716 5.97766 91.469 6.00715 92.2364 6.17382C93.1803 6.3788 93.6792 7.11611 93.8964 7.98598C94.0441 8.57714 94.0141 9.21241 94.0654 9.85746C93.4188 9.85746 92.8473 9.85746 92.2771 9.85746C92.2245 9.49666 92.1538 9.14638 92.1256 8.7928C92.0374 7.70011 91.0997 7.41885 90.2885 7.44396C90.0707 7.45069 89.856 7.52569 89.6388 7.563C88.7036 7.72347 88.2811 8.41879 88.2379 9.2197C88.129 11.2565 88.1046 13.3002 88.1309 15.3401C88.139 15.9437 88.3825 16.5609 88.6016 17.1403C88.8144 17.7017 89.3214 17.9718 89.9079 17.9653C90.3786 17.9601 90.8944 17.9426 91.3075 17.7526C92.0405 17.4157 92.289 16.7013 92.3241 15.9394C92.3435 15.5223 92.4342 15.2918 92.9212 15.3409C93.3362 15.3828 93.7593 15.3495 94.1768 15.3495C94.3089 16.9956 93.8194 18.6364 92.2539 19.2216C91.4515 19.5215 90.6159 19.6391 89.7308 19.4854C89.1393 19.3828 88.5603 19.3363 88.0301 19.0128C87.1212 18.4585 86.7263 17.5732 86.5366 16.6146C86.0891 14.3565 86.3282 12.0635 86.3394 9.7877C86.3451 8.7269 86.6361 7.66653 87.4837 6.87111C88.0401 6.34821 88.6924 6.06403 89.4479 5.98905C89.5643 5.97752 89.6763 5.92407 89.8391 5.88867Z" fill="black"/>
<path d="M165.104 12.4305C165.088 13.419 164.935 14.3775 164.475 15.2684C163.671 16.8234 162.156 17.2147 160.74 16.9802C158.952 16.684 158.15 15.4314 157.846 13.8913C157.756 13.4366 157.765 12.9627 157.784 12.4496C160.262 12.4112 162.683 12.4209 165.104 12.4305Z" fill="black"/>
<path d="M163.172 9.33453e-09C163.445 0.10412 163.658 0.257185 163.893 0.304747C166.126 0.756968 168.038 1.79241 169.702 3.33731C171.451 4.96263 172.692 6.89261 173.254 9.2042C173.5 10.2132 173.543 11.2712 173.624 12.3552C173.296 12.4075 173.022 12.4115 172.739 12.3677C172.661 11.6874 172.618 11.0503 172.514 10.4235C172.13 8.12515 171.057 6.15981 169.458 4.48902C168.428 3.41159 167.195 2.59246 165.819 1.98483C163.607 1.00865 161.31 0.70897 158.951 1.19409C157.136 1.56734 155.475 2.3178 154.021 3.5147C152.328 4.90759 151.078 6.57759 150.311 8.63739C149.854 9.86389 149.779 11.1406 149.53 12.4034C149.21 12.4115 148.935 12.4196 148.66 12.4277C148.614 10.7712 148.986 9.19268 149.599 7.66841C150.278 5.98058 151.33 4.5403 152.665 3.3071C154.435 1.67154 156.518 0.648795 158.892 0.206096C158.985 0.18867 159.069 0.120928 159.129 0.0383148C160.441 -9.30569e-07 161.782 -9.36903e-07 163.172 9.33453e-09Z" fill="black"/>
<path d="M148.654 12.4748C148.934 12.4201 149.209 12.412 149.537 12.4488C149.66 13.0926 149.7 13.6963 149.801 14.2894C150.31 17.2627 151.736 19.6964 154.156 21.5349C156.838 23.5727 159.837 24.3762 163.172 23.7654C166.94 23.0753 169.686 20.982 171.47 17.6296C172.334 16.0043 172.707 14.2475 172.747 12.4161C173.021 12.412 173.296 12.4079 173.616 12.4038C173.791 15.2053 172.849 17.6732 171.241 19.9119C169.691 22.0696 167.557 23.4574 165.079 24.3447C164.581 24.5229 164.042 24.5848 163.524 24.7094C163.431 24.7317 163.349 24.7987 163.294 24.8815C163.111 24.9181 162.895 24.9181 162.605 24.8837C161.848 24.8385 161.166 24.8177 160.485 24.822C160.234 24.8235 159.984 24.8843 159.735 24.9181C159.519 24.9181 159.303 24.9181 159.041 24.9181C158.91 24.8463 158.834 24.729 158.738 24.7095C155.299 24.0082 152.644 22.1548 150.672 19.294C150.635 19.2405 150.638 19.1601 150.578 19.0327C150.124 18.1736 149.713 17.3739 149.302 16.5742C148.947 15.2452 148.624 13.9109 148.654 12.4748Z" fill="black"/>
<path d="M171.655 12.4292C171.667 15.0898 170.777 17.4072 169.016 19.4092C167.38 21.2697 165.311 22.3818 162.896 22.7817C160.351 23.203 157.934 22.7442 155.712 21.3834C152.933 19.6816 151.347 17.1904 150.774 14.0297C150.685 13.5388 150.695 13.0302 150.71 12.474C152.127 12.4259 153.492 12.4336 154.861 12.4871C154.937 13.2005 154.923 13.8917 155.098 14.5318C155.633 16.4904 156.729 18.0055 158.677 18.8428C160.078 19.445 161.523 19.5072 162.962 19.2169C164.336 18.9393 165.509 18.2414 166.417 17.1087C167.532 15.7193 167.881 14.109 168.04 12.4038C169.277 12.4123 170.466 12.4208 171.655 12.4292Z" fill="black"/>
<path d="M154.857 12.4402C153.492 12.4325 152.127 12.4247 150.714 12.4284C150.714 10.6351 151.123 8.93455 152.016 7.34195C153.071 5.46227 154.57 4.05956 156.479 3.09771C157.617 2.52459 158.836 2.21666 160.124 2.08256C163.046 1.77807 165.636 2.58137 167.868 4.39444C169.78 5.94676 171.029 7.97287 171.456 10.4339C171.565 11.0592 171.601 11.697 171.662 12.3786C170.466 12.4196 169.278 12.4111 168.033 12.358C167.941 12.0768 167.887 11.8414 167.872 11.6037C167.77 10.0249 167.206 8.62309 166.125 7.47545C164.367 5.60941 162.15 5.15406 159.724 5.69603C157.883 6.1074 156.523 7.2107 155.678 8.91537C155.125 10.0285 154.853 11.2012 154.857 12.4402Z" fill="black"/>
<path d="M165.112 12.3862C162.683 12.4243 160.262 12.4146 157.793 12.405C157.672 11.143 157.961 9.99228 158.764 8.98462C159.248 8.37919 159.882 8.02505 160.625 7.9217C161.874 7.74815 163.062 7.89953 163.969 8.89921C164.588 9.58046 164.859 10.4265 165.013 11.3118C165.071 11.6501 165.085 11.996 165.112 12.3862Z" fill="black"/>
<path d="M163.172 9.33453e-09C163.445 0.10412 163.658 0.257185 163.893 0.304747C166.126 0.756968 168.038 1.79241 169.702 3.33731C171.451 4.96263 172.692 6.89261 173.254 9.2042C173.5 10.2132 173.543 11.2712 173.624 12.3552C173.296 12.4075 173.022 12.4115 172.739 12.3677C172.661 11.6874 172.618 11.0503 172.514 10.4235C172.13 8.12515 171.057 6.15981 169.458 4.48902C168.428 3.41159 167.195 2.59246 165.819 1.98483C163.607 1.00865 161.31 0.70897 158.951 1.19409C157.136 1.56734 155.475 2.3178 154.021 3.5147C152.328 4.90759 151.078 6.57759 150.311 8.63739C149.854 9.86389 149.779 11.1406 149.53 12.4034C149.21 12.4115 148.935 12.4196 148.66 12.4277C148.614 10.7712 148.986 9.19268 149.599 7.66841C150.278 5.98058 151.33 4.5403 152.665 3.3071C154.435 1.67154 156.518 0.648795 158.892 0.206096C158.985 0.18867 159.069 0.120928 159.129 0.0383148C160.441 -9.30569e-07 161.782 -9.36903e-07 163.172 9.33453e-09Z" fill="black"/>
<path d="M148.654 12.4748C148.934 12.4201 149.209 12.412 149.537 12.4488C149.66 13.0926 149.7 13.6963 149.801 14.2894C150.31 17.2627 151.736 19.6964 154.156 21.5349C156.838 23.5727 159.837 24.3762 163.172 23.7654C166.94 23.0753 169.686 20.982 171.47 17.6296C172.334 16.0043 172.707 14.2475 172.747 12.4161C173.021 12.412 173.296 12.4079 173.616 12.4038C173.791 15.2053 172.849 17.6732 171.241 19.9119C169.691 22.0696 167.557 23.4574 165.079 24.3447C164.581 24.5229 164.042 24.5848 163.524 24.7094C163.431 24.7317 163.349 24.7987 163.294 24.8815C163.111 24.9181 162.895 24.9181 162.605 24.8837C161.848 24.8385 161.166 24.8177 160.485 24.822C160.234 24.8235 159.984 24.8843 159.735 24.9181C159.519 24.9181 159.303 24.9181 159.041 24.9181C158.91 24.8463 158.834 24.729 158.738 24.7095C155.299 24.0082 152.644 22.1548 150.672 19.294C150.635 19.2405 150.638 19.1601 150.578 19.0327C150.124 18.1736 149.713 17.3739 149.302 16.5742C148.947 15.2452 148.624 13.9109 148.654 12.4748Z" fill="black"/>
<path d="M171.655 12.4292C171.667 15.0898 170.777 17.4072 169.016 19.4092C167.38 21.2697 165.311 22.3818 162.896 22.7817C160.351 23.203 157.934 22.7442 155.712 21.3834C152.933 19.6816 151.347 17.1904 150.774 14.0297C150.685 13.5388 150.695 13.0302 150.71 12.474C152.127 12.4259 153.492 12.4336 154.861 12.4871C154.937 13.2005 154.923 13.8917 155.098 14.5318C155.633 16.4904 156.729 18.0055 158.677 18.8428C160.078 19.445 161.523 19.5072 162.962 19.2169C164.336 18.9393 165.509 18.2414 166.417 17.1087C167.532 15.7193 167.881 14.109 168.04 12.4038C169.277 12.4123 170.466 12.4208 171.655 12.4292Z" fill="black"/>
<path d="M154.857 12.4402C153.492 12.4325 152.127 12.4247 150.714 12.4284C150.714 10.6351 151.123 8.93455 152.016 7.34195C153.071 5.46227 154.57 4.05956 156.479 3.09771C157.617 2.52459 158.836 2.21666 160.124 2.08256C163.046 1.77807 165.636 2.58137 167.868 4.39444C169.78 5.94676 171.029 7.97287 171.456 10.4339C171.565 11.0592 171.601 11.697 171.662 12.3786C170.466 12.4196 169.278 12.4111 168.033 12.358C167.941 12.0768 167.887 11.8414 167.872 11.6037C167.77 10.0249 167.206 8.62309 166.125 7.47545C164.367 5.60941 162.15 5.15406 159.724 5.69603C157.883 6.1074 156.523 7.2107 155.678 8.91537C155.125 10.0285 154.853 11.2012 154.857 12.4402Z" fill="black"/>
<path d="M165.112 12.3862C162.683 12.4243 160.262 12.4146 157.793 12.405C157.672 11.143 157.961 9.99228 158.764 8.98462C159.248 8.37919 159.882 8.02505 160.625 7.9217C161.874 7.74815 163.062 7.89953 163.969 8.89921C164.588 9.58046 164.859 10.4265 165.013 11.3118C165.071 11.6501 165.085 11.996 165.112 12.3862Z" fill="black"/>
</svg>
