<svg width="255" height="48" viewBox="0 0 255 48" fill="none" xmlns="http://www.w3.org/2000/svg">
<path d="M7.57608 39.056C5.95031 39.056 4.57384 38.7473 3.44663 38.1299C2.31943 37.4911 1.46319 36.5225 0.877915 35.2237C0.292638 33.925 0 32.2751 0 30.2738C0 28.2512 0.292638 26.6012 0.877915 25.3238C1.46319 24.0251 2.33027 23.067 3.47914 22.4496C4.62801 21.8109 6.05868 21.4915 7.77117 21.4915C9.3536 21.4915 10.6759 21.8003 11.7381 22.4177C12.8219 23.0351 13.6348 23.9293 14.1767 25.1002C14.7403 26.2712 15.0221 27.7083 15.0221 29.4115V30.8805H2.43865C2.43865 32.3496 2.64458 33.5525 3.05645 34.4892C3.46832 35.426 4.0536 36.1073 4.81228 36.5331C5.59264 36.9376 6.54641 37.1399 7.67363 37.1399C8.49734 37.1399 9.21267 37.0334 9.81964 36.8205C10.4483 36.6076 10.9577 36.3202 11.3479 35.9583C11.7597 35.575 12.074 35.1279 12.2908 34.617C12.5076 34.106 12.616 33.5737 12.616 33.0202H14.892C14.892 33.8505 14.7295 34.6383 14.4043 35.3834C14.1008 36.1073 13.6456 36.746 13.0387 37.2995C12.4534 37.8531 11.7055 38.2895 10.7951 38.6089C9.88467 38.9069 8.81167 39.056 7.57608 39.056ZM2.43865 29.0602H12.5834C12.5834 27.9957 12.4534 27.1122 12.1933 26.4096C11.9548 25.6857 11.6188 25.1109 11.1853 24.6851C10.7518 24.238 10.2315 23.9186 9.62455 23.727C9.03927 23.5354 8.37814 23.4396 7.64111 23.4396C6.57893 23.4396 5.6685 23.6418 4.90982 24.0464C4.15114 24.4296 3.56587 25.0364 3.15399 25.8667C2.76381 26.697 2.52536 27.7615 2.43865 29.0602ZM23.1515 38.6728L16.811 21.8748H19.2821L22.5662 30.657C22.7179 31.0828 22.8913 31.6044 23.0864 32.2218C23.3032 32.818 23.5091 33.4247 23.7042 34.0421C23.921 34.6595 24.1052 35.2024 24.257 35.6708H24.4196C24.5713 35.2024 24.7447 34.6702 24.9398 34.0741C25.1566 33.4567 25.3733 32.8392 25.5901 32.2218C25.8069 31.6044 25.9911 31.0828 26.1429 30.657L29.3944 21.8748H31.768L25.4275 38.6728H23.1515ZM40.9806 39.056C39.3548 39.056 37.9783 38.7473 36.8511 38.1299C35.7239 37.4911 34.8677 36.5225 34.2824 35.2237C33.6971 33.925 33.4045 32.2751 33.4045 30.2738C33.4045 28.2512 33.6971 26.6012 34.2824 25.3238C34.8677 24.0251 35.7347 23.067 36.8836 22.4496C38.0325 21.8109 39.4632 21.4915 41.1757 21.4915C42.758 21.4915 44.0803 21.8003 45.1423 22.4177C46.2265 23.0351 47.0394 23.9293 47.581 25.1002C48.1449 26.2712 48.4264 27.7083 48.4264 29.4115V30.8805H35.8431C35.8431 32.3496 36.0491 33.5525 36.4609 34.4892C36.8728 35.426 37.458 36.1073 38.2168 36.5331C38.9971 36.9376 39.9509 37.1399 41.0781 37.1399C41.9018 37.1399 42.6172 37.0334 43.2241 36.8205C43.8527 36.6076 44.3622 36.3202 44.7523 35.9583C45.1642 35.575 45.4787 35.1279 45.6951 34.617C45.912 34.106 46.0203 33.5737 46.0203 33.0202H48.2963C48.2963 33.8505 48.1338 34.6383 47.8086 35.3834C47.5053 36.1073 47.0501 36.746 46.443 37.2995C45.8577 37.8531 45.1098 38.2895 44.1996 38.6089C43.2892 38.9069 42.2161 39.056 40.9806 39.056ZM35.8431 29.0602H45.9877C45.9877 27.9957 45.8577 27.1122 45.5976 26.4096C45.3593 25.6857 45.0233 25.1109 44.5898 24.6851C44.1562 24.238 43.636 23.9186 43.029 23.727C42.4438 23.5354 41.7826 23.4396 41.0456 23.4396C39.9834 23.4396 39.073 23.6418 38.3143 24.0464C37.5556 24.4296 36.9703 25.0364 36.5585 25.8667C36.1683 26.697 35.9298 27.7615 35.8431 29.0602ZM51.971 38.6728V21.8748H53.8569L54.052 24.6851H54.2796C54.4315 24.1741 54.6591 23.6738 54.9625 23.1841C55.2662 22.6944 55.6778 22.2899 56.198 21.9706C56.7183 21.6512 57.3797 21.4915 58.1815 21.4915C58.4853 21.4915 58.7668 21.5235 59.0269 21.5873C59.287 21.6299 59.4821 21.6725 59.6122 21.7151V23.8228H58.6042C57.8456 23.8228 57.1953 23.9612 56.6533 24.238C56.1116 24.4935 55.6671 24.8661 55.3201 25.3557C54.9736 25.8454 54.7135 26.4096 54.5398 27.0483C54.3883 27.6657 54.3121 28.3151 54.3121 28.9963V38.6728H51.971ZM63.429 44.485C63.0174 44.485 62.6486 44.4531 62.3235 44.3892C62.0202 44.3466 61.7707 44.3147 61.5756 44.2934V42.5689H62.8437C63.4076 42.5689 63.9492 42.4731 64.4695 42.2815C64.9897 42.0898 65.4775 41.7066 65.9327 41.1318C66.3879 40.5782 66.7999 39.7586 67.1683 38.6728L60.5351 21.8748H63.0063L66.518 30.8167C66.6917 31.2212 66.8756 31.7322 67.0707 32.3496C67.2876 32.9457 67.5046 33.5631 67.721 34.2018C67.9598 34.8192 68.1549 35.3728 68.3063 35.8624H68.5014C68.5883 35.5218 68.6965 35.1279 68.8265 34.6808C68.9784 34.2337 69.1303 33.776 69.2818 33.3076C69.4337 32.8392 69.5744 32.3921 69.7045 31.9663C69.8564 31.5405 69.9864 31.1679 70.0946 30.8486L73.1186 21.8748H75.4922L69.6394 38.3853C69.3143 39.3221 68.9678 40.1631 68.5989 40.9082C68.2306 41.6534 67.8079 42.2921 67.3308 42.8244C66.8756 43.3566 66.3229 43.7611 65.6726 44.0379C65.0441 44.3359 64.2962 44.485 63.429 44.485ZM82.0984 39.024C81.318 39.024 80.6891 38.8857 80.2125 38.6089C79.7573 38.3321 79.4321 37.9489 79.237 37.4592C79.0633 36.9696 78.9769 36.4266 78.9769 35.8305V23.8228H76.6683V21.8748H78.9769L79.4321 17.2122H81.318V21.8748H84.6021V23.8228H81.318V35.4154C81.318 35.9902 81.3937 36.416 81.5456 36.6928C81.7189 36.9696 82.0872 37.1079 82.6512 37.1079H84.6021V38.577C84.3852 38.6621 84.125 38.7366 83.8217 38.8005C83.5398 38.8857 83.2471 38.9389 82.9438 38.9602C82.64 39.0027 82.3585 39.024 82.0984 39.024ZM87.7254 38.6728V15.5835H90.0665V24.0464H90.2941C90.7712 23.429 91.2914 22.9393 91.8549 22.5773C92.4183 22.1941 93.0361 21.9173 93.7082 21.747C94.3804 21.5767 95.1064 21.4915 95.8868 21.4915C96.9705 21.4915 97.9134 21.6725 98.7156 22.0344C99.5392 22.3751 100.179 22.9393 100.634 23.727C101.089 24.5148 101.317 25.5899 101.317 26.9525V38.6728H98.9757V27.176C98.9757 26.4309 98.8782 25.8241 98.6831 25.3557C98.488 24.8873 98.2172 24.5254 97.8702 24.2699C97.5232 23.9931 97.1117 23.8015 96.6346 23.6951C96.1794 23.5886 95.6698 23.5354 95.1064 23.5354C94.2392 23.5354 93.4156 23.727 92.6352 24.1102C91.8767 24.4935 91.2589 25.0789 90.7819 25.8667C90.3048 26.6331 90.0665 27.5912 90.0665 28.7409V38.6728H87.7254ZM105.698 18.4257V15.5835H108.039V18.4257H105.698ZM105.698 38.6728V21.8748H108.039V38.6728H105.698ZM112.62 38.6728V21.8748H114.473L114.701 24.5254H114.929C115.406 23.7589 115.947 23.1628 116.554 22.737C117.162 22.2899 117.812 21.9706 118.505 21.779C119.221 21.5873 119.979 21.4915 120.781 21.4915C121.865 21.4915 122.808 21.6725 123.61 22.0344C124.434 22.3751 125.073 22.9393 125.529 23.727C125.984 24.5148 126.212 25.5899 126.212 26.9525V38.6728H123.87V27.176C123.87 26.4309 123.773 25.8241 123.578 25.3557C123.383 24.8873 123.112 24.5254 122.765 24.2699C122.418 23.9931 122.006 23.8015 121.529 23.6951C121.074 23.5886 120.565 23.5354 120.001 23.5354C119.134 23.5354 118.31 23.7483 117.53 24.1741C116.771 24.5786 116.154 25.1641 115.677 25.9306C115.2 26.697 114.961 27.6338 114.961 28.7409V38.6728H112.62ZM133.519 44.485C132.695 44.485 131.925 44.304 131.21 43.9421C130.517 43.6014 129.964 43.1118 129.552 42.4731C129.14 41.8557 128.934 41.1318 128.934 40.3015C128.934 39.3647 129.183 38.5663 129.682 37.9063C130.202 37.2463 130.852 36.7566 131.633 36.4373C131.069 36.2031 130.636 35.8518 130.332 35.3834C130.029 34.915 129.877 34.404 129.877 33.8505C129.877 33.1266 130.148 32.5092 130.69 31.9983C131.232 31.466 131.893 31.1147 132.673 30.9444C131.958 30.476 131.384 29.8799 130.95 29.156C130.538 28.4321 130.332 27.6551 130.332 26.8247C130.332 25.7815 130.582 24.8661 131.08 24.0783C131.579 23.2693 132.327 22.6412 133.324 22.1941C134.343 21.7257 135.611 21.4915 137.128 21.4915C137.843 21.4915 138.505 21.5448 139.111 21.6512C139.74 21.7576 140.304 21.9173 140.802 22.1302C141.561 21.8535 142.146 21.4596 142.558 20.9486C142.97 20.4164 143.241 19.8309 143.371 19.1922H145.712C145.691 19.7883 145.539 20.3632 145.257 20.9167C144.975 21.4702 144.585 21.9386 144.086 22.3219C143.588 22.7051 142.992 22.9499 142.298 23.0564C142.862 23.5673 143.273 24.1422 143.533 24.7809C143.794 25.4196 143.924 26.1009 143.924 26.8247C143.924 27.8254 143.675 28.7302 143.176 29.5392C142.699 30.327 141.962 30.955 140.965 31.4234C139.989 31.8918 138.732 32.126 137.193 32.126H134.494C133.844 32.126 133.313 32.2537 132.901 32.5092C132.489 32.7434 132.283 33.1479 132.283 33.7228C132.283 34.2124 132.5 34.5957 132.933 34.8724C133.367 35.1492 133.909 35.2876 134.559 35.2876H141.257C142.515 35.2876 143.533 35.7028 144.314 36.5331C145.116 37.3634 145.517 38.4066 145.517 39.6628C145.517 40.5569 145.289 41.366 144.834 42.0898C144.379 42.835 143.75 43.4205 142.948 43.8463C142.168 44.2721 141.247 44.485 140.184 44.485H133.519ZM134.039 42.6647H140.119C140.683 42.6647 141.192 42.5476 141.648 42.3134C142.103 42.0792 142.46 41.7492 142.721 41.3234C143.002 40.9189 143.143 40.4824 143.143 40.014C143.143 39.205 142.905 38.5556 142.428 38.066C141.951 37.5763 141.355 37.3315 140.64 37.3315H134.039C133.302 37.3315 132.663 37.5976 132.12 38.1299C131.579 38.6408 131.308 39.2689 131.308 40.014C131.308 40.8231 131.568 41.4618 132.088 41.9302C132.63 42.4198 133.28 42.6647 134.039 42.6647ZM137.128 30.3057C138.645 30.3057 139.762 29.997 140.477 29.3796C141.214 28.7409 141.582 27.8892 141.582 26.8247C141.582 25.7389 141.214 24.8873 140.477 24.2699C139.762 23.6312 138.645 23.3119 137.128 23.3119C135.654 23.3119 134.548 23.6312 133.811 24.2699C133.075 24.8873 132.706 25.7389 132.706 26.8247C132.706 27.4848 132.868 28.0808 133.194 28.6131C133.519 29.1454 134.006 29.5606 134.657 29.8586C135.329 30.1566 136.152 30.3057 137.128 30.3057Z" fill="black"/>
<path d="M193.4 41.947C192.272 41.947 191.273 41.8287 190.405 41.5922C189.537 41.3772 188.81 41.0546 188.224 40.6245C187.66 40.1729 187.226 39.6353 186.922 39.0117C186.64 38.3881 186.499 37.6677 186.499 36.8506C186.499 36.7645 186.499 36.6785 186.499 36.5925C186.499 36.485 186.51 36.3882 186.532 36.3022H188.843C188.821 36.4097 188.81 36.5065 188.81 36.5925C188.81 36.657 188.81 36.7215 188.81 36.786C188.832 37.6247 189.038 38.2806 189.429 38.7537C189.82 39.2053 190.373 39.5278 191.089 39.7214C191.805 39.9149 192.63 40.0117 193.563 40.0117C194.366 40.0117 195.082 39.9042 195.712 39.6891C196.363 39.4526 196.873 39.1192 197.242 38.6892C197.632 38.2591 197.828 37.7322 197.828 37.1086C197.828 36.3129 197.578 35.7109 197.079 35.3023C196.601 34.8937 195.972 34.5819 195.191 34.3668C194.41 34.1303 193.596 33.883 192.749 33.6249C192.055 33.4314 191.371 33.2271 190.698 33.0121C190.026 32.7755 189.407 32.4852 188.843 32.1412C188.3 31.7971 187.866 31.3563 187.541 30.8187C187.215 30.281 187.052 29.6037 187.052 28.7865C187.052 28.0769 187.193 27.4425 187.476 26.8834C187.779 26.3243 188.203 25.8512 188.745 25.4641C189.309 25.0555 189.993 24.7438 190.796 24.5287C191.599 24.3137 192.51 24.2062 193.531 24.2062C194.659 24.2062 195.625 24.3352 196.428 24.5932C197.231 24.8513 197.882 25.2061 198.381 25.6577C198.88 26.0877 199.249 26.5824 199.488 27.1415C199.727 27.6791 199.846 28.2489 199.846 28.851C199.846 28.9371 199.835 29.0338 199.814 29.1413C199.814 29.2488 199.814 29.3456 199.814 29.4316H197.502V29.0123C197.502 28.5607 197.383 28.1199 197.144 27.6898C196.927 27.2598 196.526 26.8941 195.94 26.5931C195.375 26.2921 194.529 26.1415 193.4 26.1415C192.728 26.1415 192.142 26.206 191.643 26.3351C191.165 26.4426 190.752 26.6038 190.405 26.8189C190.08 27.034 189.83 27.3027 189.657 27.6253C189.505 27.9263 189.429 28.2812 189.429 28.6898C189.429 29.3134 189.624 29.7972 190.015 30.1413C190.427 30.4638 190.959 30.7326 191.61 30.9477C192.261 31.1412 192.955 31.3563 193.693 31.5928C194.431 31.8079 195.18 32.0337 195.94 32.2702C196.721 32.5067 197.437 32.797 198.088 33.1411C198.739 33.4852 199.26 33.9475 199.651 34.5281C200.041 35.0872 200.237 35.8291 200.237 36.7538C200.237 37.614 200.063 38.3773 199.716 39.044C199.369 39.6891 198.891 40.2267 198.284 40.6568C197.676 41.0868 196.949 41.4094 196.102 41.6245C195.277 41.8395 194.377 41.947 193.4 41.947ZM203.821 41.56V18.2388H206.165V26.7866H206.393C206.871 26.163 207.392 25.6684 207.956 25.3029C208.52 24.9158 209.138 24.6362 209.811 24.4642C210.484 24.2922 211.211 24.2062 211.992 24.2062C213.077 24.2062 214.021 24.389 214.825 24.7545C215.649 25.0986 216.29 25.6684 216.745 26.4641C217.201 27.2598 217.429 28.3457 217.429 29.722V41.56H215.085V29.9477C215.085 29.1951 214.987 28.5823 214.792 28.1091C214.597 27.636 214.326 27.2705 213.978 27.0124C213.631 26.7329 213.219 26.5393 212.741 26.4318C212.285 26.3243 211.775 26.2705 211.211 26.2705C210.343 26.2705 209.518 26.4641 208.737 26.8512C207.978 27.2382 207.359 27.8296 206.881 28.6252C206.404 29.3994 206.165 30.3671 206.165 31.5283V41.56H203.821ZM228.586 41.947C226.937 41.947 225.526 41.6352 224.354 41.0116C223.204 40.3665 222.325 39.3881 221.717 38.0763C221.131 36.7645 220.838 35.098 220.838 33.0766C220.838 31.0337 221.131 29.3671 221.717 28.0769C222.325 26.7651 223.204 25.7974 224.354 25.1738C225.526 24.5287 226.937 24.2062 228.586 24.2062C230.279 24.2062 231.69 24.5287 232.818 25.1738C233.969 25.7974 234.836 26.7651 235.422 28.0769C236.03 29.3671 236.334 31.0337 236.334 33.0766C236.334 35.098 236.03 36.7645 235.422 38.0763C234.836 39.3881 233.969 40.3665 232.818 41.0116C231.69 41.6352 230.279 41.947 228.586 41.947ZM228.586 39.9794C229.737 39.9794 230.702 39.7536 231.483 39.302C232.265 38.8504 232.862 38.1515 233.274 37.2054C233.686 36.2377 233.892 34.9904 233.892 33.4637V32.6895C233.892 31.1627 233.686 29.9262 233.274 28.9801C232.862 28.0124 232.265 27.3027 231.483 26.8512C230.702 26.3996 229.737 26.1738 228.586 26.1738C227.436 26.1738 226.47 26.3996 225.689 26.8512C224.907 27.3027 224.311 28.0124 223.898 28.9801C223.486 29.9262 223.28 31.1627 223.28 32.6895V33.4637C223.28 34.9904 223.486 36.2377 223.898 37.2054C224.311 38.1515 224.907 38.8504 225.689 39.302C226.47 39.7536 227.436 39.9794 228.586 39.9794ZM239.904 47.1403V24.5932H241.76L242.02 27.0769H242.248C242.856 26.1093 243.615 25.3889 244.527 24.9158C245.438 24.4427 246.469 24.2062 247.619 24.2062C249.052 24.2062 250.267 24.518 251.265 25.1416C252.285 25.7652 253.056 26.7437 253.577 28.0769C254.119 29.3887 254.391 31.109 254.391 33.2379C254.391 35.2162 254.119 36.8506 253.577 38.1408C253.034 39.431 252.253 40.388 251.233 41.0116C250.234 41.6352 249.052 41.947 247.684 41.947C246.99 41.947 246.317 41.861 245.666 41.689C245.015 41.517 244.418 41.2374 243.876 40.8503C243.333 40.4632 242.867 39.9687 242.476 39.3665H242.248V47.1403H239.904ZM247.066 39.9149C248.151 39.9149 249.052 39.6998 249.768 39.2698C250.506 38.8182 251.048 38.1193 251.396 37.1731C251.764 36.227 251.949 35.0012 251.949 33.4959V32.6895C251.949 31.0767 251.754 29.808 251.363 28.8833C250.972 27.9371 250.419 27.2598 249.703 26.8512C249.009 26.4426 248.184 26.2383 247.229 26.2383C246.057 26.2383 245.102 26.4963 244.364 27.0124C243.626 27.507 243.084 28.2489 242.736 29.2381C242.411 30.2058 242.248 31.3993 242.248 32.8185V33.3669C242.248 34.7001 242.389 35.7968 242.671 36.657C242.953 37.5172 243.322 38.1838 243.778 38.6569C244.234 39.13 244.744 39.4633 245.308 39.6568C245.894 39.8289 246.48 39.9149 247.066 39.9149Z" fill="black"/>
<path fill-rule="evenodd" clip-rule="evenodd" d="M177.212 8.61131C165.686 7.32549 153.2 13.127 148.397 16.1885C149.885 42.4561 165.438 48.1047 173.029 47.6454C188.83 37.7261 182.401 17.4896 177.212 8.61131ZM166.058 13.4797C166.058 14.7478 165.017 15.7758 163.734 15.7758C162.451 15.7758 161.41 14.7478 161.41 13.4797C161.41 12.2116 162.451 11.1836 163.734 11.1836C165.017 11.1836 166.058 12.2116 166.058 13.4797ZM169.008 40.0274C170.136 40.6489 171.513 40.9596 173.14 40.9596C174.376 40.9596 175.45 40.8096 176.361 40.5096C177.272 40.1881 178.02 39.7488 178.605 39.1916C179.213 38.6344 179.668 37.9915 179.972 37.2629C180.297 36.5128 180.46 35.7199 180.46 34.8841H178.183C178.183 35.4413 178.074 35.977 177.857 36.4914C177.64 37.0057 177.326 37.4557 176.914 37.8415C176.523 38.2058 176.014 38.4951 175.385 38.7094C174.777 38.9237 174.062 39.0309 173.238 39.0309C172.11 39.0309 171.156 38.8273 170.375 38.4201C169.616 37.9915 169.03 37.3057 168.618 36.3628C168.206 35.4199 168 34.209 168 32.7303H180.59V31.2516C180.59 29.5372 180.308 28.0907 179.744 26.912C179.202 25.7333 178.388 24.8332 177.304 24.2117C176.241 23.5903 174.919 23.2795 173.335 23.2795C171.622 23.2795 170.19 23.601 169.041 24.2439C167.892 24.8653 167.024 25.8297 166.438 27.137C165.853 28.4228 165.56 30.0837 165.56 32.1196C165.56 34.134 165.853 35.7949 166.438 37.1021C167.024 38.4094 167.881 39.3845 169.008 40.0274ZM178.15 30.898H168C168.087 29.5908 168.325 28.5192 168.716 27.6835C169.128 26.8477 169.713 26.2369 170.472 25.8512C171.231 25.444 172.142 25.2404 173.205 25.2404C173.943 25.2404 174.604 25.3368 175.19 25.5297C175.797 25.7226 176.318 26.044 176.751 26.4941C177.185 26.9227 177.521 27.5013 177.76 28.2299C178.02 28.9371 178.15 29.8265 178.15 30.898Z" fill="black"/>
<path d="M163.284 6.47949C163.892 8.19989 164.207 9.82558 164.229 11.0594C164.24 11.6776 164.177 12.184 164.051 12.551C163.923 12.9222 163.745 13.1087 163.557 13.1709C163.369 13.2331 163.111 13.1905 162.775 12.9728C162.443 12.7575 162.073 12.394 161.69 11.8986C160.928 10.9097 160.148 9.43793 159.54 7.71753C158.932 5.99707 158.618 4.37137 158.596 3.13763C158.585 2.5194 158.647 2.01298 158.774 1.64598C158.902 1.27481 159.079 1.08832 159.267 1.0261C159.455 0.963882 159.714 1.00642 160.049 1.22416C160.382 1.43945 160.752 1.80291 161.134 2.29841C161.897 3.28724 162.677 4.75903 163.284 6.47949Z" stroke="black" stroke-width="0.4"/>
</svg>
