<svg width="179" height="45" viewBox="0 0 179 45" fill="none" xmlns="http://www.w3.org/2000/svg">
<path d="M38.0058 7.09643C37.5314 5.78321 36.8589 4.62742 35.9843 3.62905C35.1097 2.62654 34.0619 1.84772 32.8366 1.28847C31.6114 0.729216 30.2624 0.45166 28.7814 0.45166L0.452148 0.45166L0.452148 22.1341H28.7814C30.2624 22.1341 31.6155 21.8566 32.8366 21.2973C34.0578 20.7381 35.1097 19.9634 35.9843 18.9733C36.8589 17.9832 37.5314 16.8316 38.0058 15.5184C38.4802 14.2052 38.7153 12.7967 38.7153 11.2888C38.7153 9.78084 38.4802 8.40135 38.0058 7.09228V7.09643ZM34.8127 15.1828C34.2682 16.351 33.4802 17.2831 32.453 17.9874C31.4257 18.6916 30.2005 19.0396 28.7814 19.0396H3.53796L3.53796 3.55034L28.7814 3.55034C30.2005 3.55034 31.4257 3.89832 32.453 4.59014C33.4802 5.28196 34.2682 6.21819 34.8127 7.39469C35.3573 8.5712 35.6295 9.87198 35.6295 11.297C35.6295 12.7221 35.3573 14.0187 34.8127 15.1828Z" fill="black"/>
<path fill-rule="evenodd" clip-rule="evenodd" d="M37.9767 7.01804C37.504 5.7372 36.841 4.60755 35.9839 3.62911C35.1093 2.62659 34.0614 1.84778 32.8362 1.28853C31.611 0.729274 30.2619 0.451718 28.7809 0.451718L0.451718 0.451718L0.451718 22.1342H28.7809C30.2619 22.1342 31.6151 21.8566 32.8362 21.2974C34.0573 20.7381 35.1093 19.9635 35.9839 18.9734C36.8585 17.9833 37.5309 16.8316 38.0053 15.5184C38.4798 14.2052 38.7149 12.7967 38.7149 11.2888C38.7149 9.81094 38.489 8.45642 38.0334 7.17066C38.0246 7.14591 38.0158 7.12118 38.0068 7.09648C38.0069 7.09664 38.0068 7.09632 38.0068 7.09648C38.0064 7.09526 38.0058 7.09356 38.0053 7.09234V7.09648C38.0049 7.09526 38.0045 7.09404 38.004 7.09282C38.0041 7.09298 38.004 7.09266 38.004 7.09282C37.995 7.068 37.9858 7.04275 37.9767 7.01804ZM38.4286 6.93868C37.9364 5.57763 37.2367 4.37378 36.324 3.33178C35.4066 2.28032 34.3065 1.46308 33.0238 0.877593C31.7338 0.288781 30.3199 0 28.7809 0L0 0L0 22.5859H28.7809C30.3196 22.5859 31.7379 22.2973 33.0243 21.7081C34.3013 21.1232 35.405 20.3111 36.3224 19.2724C37.2371 18.237 37.9377 17.0352 38.4302 15.6719C38.9239 14.3054 39.1666 12.8445 39.1666 11.2888C39.1666 9.73216 38.9236 8.30024 38.43 6.93843L38.4286 6.93868ZM34.4031 14.9915C34.9167 13.8936 35.1774 12.6634 35.1774 11.2971C35.1774 9.931 34.9167 8.69584 34.4023 7.58449C33.8908 6.47926 33.1558 5.60842 32.2002 4.96487C31.2578 4.33014 30.1233 4.00212 28.7809 4.00212L3.98925 4.00212L3.98925 18.5879H28.7809C30.1232 18.5879 31.2561 18.26 32.1971 17.6149C33.1562 16.9574 33.8919 16.0881 34.4031 14.9915ZM32.4525 17.9874C33.4798 17.2832 34.2677 16.3511 34.8123 15.1829C35.3568 14.0188 35.6291 12.7222 35.6291 11.2971C35.6291 9.87204 35.3568 8.57126 34.8123 7.39475C34.2677 6.21825 33.4798 5.28201 32.4525 4.5902C31.4253 3.89838 30.2001 3.5504 28.7809 3.5504L3.53753 3.5504L3.53753 19.0397H28.7809C30.2001 19.0397 31.4253 18.6917 32.4525 17.9874Z" fill="black"/>
<path d="M80.4853 11.2908C80.4853 12.7985 80.207 14.2067 79.6462 15.5196C79.0854 16.8326 78.3085 17.9799 77.3157 18.9739C76.3228 19.968 75.168 20.7383 73.8511 21.2975C72.5342 21.8566 51.3895 22.1341 49.8773 22.1341H43.8164V19.0361H49.8773C51.3064 19.0361 72.3473 18.684 73.5271 17.984C74.7068 17.2841 75.6457 16.348 76.3394 15.18C77.0332 14.012 77.378 12.7198 77.378 11.295V3.54975L43.8164 3.54975V0.45166L80.4812 0.45166V11.2908H80.4853Z" fill="black"/>
<path fill-rule="evenodd" clip-rule="evenodd" d="M80.9376 10.8392V11.2909C80.9376 12.8557 80.6484 14.3247 80.0621 15.6971C79.4788 17.0629 78.6695 18.2583 77.6358 19.2932C76.6004 20.3299 75.3964 21.1324 74.0282 21.7133C73.8841 21.7745 73.6678 21.8143 73.4463 21.8462C73.2067 21.8807 72.9017 21.9132 72.5443 21.9441C71.8286 22.0059 70.882 22.0629 69.7844 22.1154C67.588 22.2203 64.7701 22.3075 61.9491 22.3771C56.3079 22.5164 50.6394 22.5859 49.8779 22.5859H43.3652V18.5844H49.8779C50.5854 18.5844 56.1975 18.4965 61.782 18.3211C64.5739 18.2334 67.354 18.1239 69.5081 17.9929C70.586 17.9273 71.5016 17.8567 72.1815 17.7813C72.5221 17.7435 72.7968 17.7053 73.0002 17.6672C73.1021 17.6482 73.18 17.6303 73.2363 17.6142C73.2828 17.601 73.3013 17.5927 73.3024 17.5925C74.4153 16.931 75.2979 16.05 75.9516 14.9494C76.6017 13.8548 76.9268 12.643 76.9268 11.295V4.00153L43.3652 4.00153V0L80.9334 0V10.8392H80.9376ZM77.3785 3.54981V11.295C77.3785 12.7198 77.0337 14.0121 76.34 15.1801C75.6462 16.3481 74.7074 17.2841 73.5276 17.9841C72.3478 18.6841 51.3069 19.0361 49.8779 19.0361H43.817V22.1342H49.8779C51.39 22.1342 72.5348 21.8567 73.8516 21.2975C75.1685 20.7384 76.3234 19.968 77.3162 18.974C78.3091 17.9799 79.0859 16.8327 79.6467 15.5197C80.1511 14.3387 80.427 13.0807 80.4774 11.7426C80.4791 11.6978 80.4805 11.653 80.4817 11.6081C80.4845 11.5028 80.4859 11.3971 80.4859 11.2909H80.4817V0.451718L43.817 0.451718V3.54981L77.3785 3.54981Z" fill="black"/>
<path d="M125.444 11.2908C125.444 12.7985 125.209 14.2067 124.735 15.5196C124.26 16.8326 123.587 17.9799 122.712 18.9739C121.837 19.9638 120.793 20.7383 119.579 21.2975C118.366 21.8566 117.016 22.1341 115.535 22.1341L95.5255 22.1341C94.0232 22.1341 92.6653 21.8566 91.4518 21.2975C90.2384 20.7383 89.1942 19.9638 88.3192 18.9739C87.4442 17.984 86.7715 16.8326 86.2968 15.5196C85.8222 14.2067 85.5869 12.7985 85.5869 11.2908C85.5869 9.7832 85.8222 8.40397 86.2968 7.09516C86.7715 5.7822 87.4442 4.62662 88.3192 3.62844C89.1942 2.62612 90.2384 1.84746 91.4518 1.28831C92.6653 0.729163 94.0232 0.45166 95.5255 0.45166L115.535 0.45166C117.016 0.45166 118.362 0.729163 119.579 1.28831C120.793 1.84746 121.837 2.62612 122.712 3.62844C123.587 4.63077 124.26 5.78634 124.735 7.09516C125.209 8.40812 125.444 9.80391 125.444 11.2908ZM122.357 11.2908C122.357 9.86604 122.085 8.56551 121.54 7.38923C120.995 6.21295 120.211 5.27689 119.196 4.58521C118.176 3.89352 116.959 3.54561 115.539 3.54561L95.5296 3.54561C94.1098 3.54561 92.8923 3.89352 91.8728 4.58521C90.8534 5.27689 90.0692 6.21295 89.512 7.38923C88.9548 8.56551 88.6783 9.86604 88.6783 11.2908C88.6783 12.7156 88.9548 14.012 89.512 15.1759C90.0692 16.3439 90.8534 17.2758 91.8728 17.9799C92.8923 18.684 94.1098 19.0319 95.5296 19.0319L115.539 19.0319C116.959 19.0319 118.176 18.6799 119.196 17.9799C120.215 17.2799 120.995 16.3439 121.54 15.1759C122.085 14.0079 122.357 12.7156 122.357 11.2908Z" fill="black"/>
<path fill-rule="evenodd" clip-rule="evenodd" d="M123.052 19.2724L123.051 19.2731C122.134 20.3106 121.039 21.1227 119.769 21.7078C118.49 22.2973 117.074 22.5859 115.535 22.5859L95.526 22.5859C93.9671 22.5859 92.5434 22.2977 91.2633 21.7078C89.9936 21.1227 88.8983 20.3106 87.9813 19.2731C87.0662 18.2379 86.3653 17.0363 85.8725 15.6733C85.3786 14.3069 85.1357 12.8463 85.1357 11.2909C85.1357 9.73458 85.3789 8.30297 85.8726 6.94146C86.3652 5.57895 87.0657 4.37394 87.9798 3.33109C88.897 2.28046 89.9928 1.46356 91.2633 0.878111C92.5434 0.288252 93.9671 0 95.526 0L115.535 0C117.075 0 118.486 0.288699 119.769 0.877867L119.769 0.87811C121.04 1.46363 122.136 2.28064 123.053 3.33144C123.967 4.37806 124.667 5.58277 125.16 6.94121L125.16 6.94164C125.654 8.30723 125.897 9.75533 125.897 11.2909C125.897 12.8463 125.654 14.3069 125.16 15.6733C124.667 17.0368 123.966 18.2339 123.052 19.2724ZM88.3197 3.6285C87.4448 4.62668 86.772 5.78225 86.2974 7.09521C85.8227 8.40403 85.5875 9.78326 85.5875 11.2909C85.5875 12.7985 85.8227 14.2067 86.2974 15.5197C86.772 16.8327 87.4448 17.9841 88.3197 18.974C89.1947 19.9639 90.239 20.7384 91.4524 21.2975C92.6658 21.8567 94.0237 22.1342 95.526 22.1342L115.535 22.1342C117.017 22.1342 118.367 21.8567 119.58 21.2975C120.793 20.7384 121.838 19.9639 122.713 18.974C123.588 17.9799 124.26 16.8327 124.735 15.5197C125.21 14.2067 125.445 12.7985 125.445 11.2909C125.445 9.80397 125.21 8.40817 124.735 7.09521C124.26 5.7864 123.588 4.63083 122.713 3.6285C121.838 2.62618 120.793 1.84752 119.58 1.28837C118.362 0.729221 117.017 0.451718 115.535 0.451718L95.526 0.451718C94.0237 0.451718 92.6658 0.729221 91.4524 1.28837C90.239 1.84752 89.1947 2.62618 88.3197 3.6285ZM89.92 14.9809L89.9202 14.9814C90.4451 16.0816 91.1786 16.9511 92.1301 17.6083C93.0628 18.2525 94.1873 18.5803 95.5302 18.5803L115.539 18.5803C116.881 18.5803 118.007 18.2488 118.941 17.6076C119.89 16.9556 120.619 16.0838 121.131 14.985C121.645 13.8827 121.906 12.6565 121.906 11.2909C121.906 9.9251 121.645 8.69023 121.131 7.57913C120.618 6.47312 119.886 5.60198 118.942 4.95859C118.008 4.32508 116.882 3.99738 115.539 3.99738L95.5302 3.99738C94.1873 3.99738 93.0611 4.32525 92.127 4.95906C91.179 5.60227 90.446 6.47389 89.9208 7.58266C89.395 8.69255 89.1305 9.92607 89.1305 11.2909C89.1305 12.6559 89.3951 13.8845 89.92 14.9809ZM119.196 4.58526C120.212 5.27695 120.996 6.213 121.541 7.38928C122.085 8.56556 122.358 9.8661 122.358 11.2909C122.358 12.7157 122.085 14.0079 121.541 15.1759C120.996 16.3439 120.216 17.28 119.196 17.9799C118.177 18.6799 116.959 19.032 115.539 19.032L95.5302 19.032C94.1104 19.032 92.8928 18.6841 91.8734 17.9799C90.8539 17.2758 90.0697 16.3439 89.5125 15.1759C88.9554 14.0121 88.6788 12.7157 88.6788 11.2909C88.6788 9.8661 88.9554 8.56556 89.5125 7.38928C90.0697 6.213 90.8539 5.27695 91.8734 4.58526C92.8928 3.89358 94.1104 3.54567 95.5302 3.54567L115.539 3.54567C116.959 3.54567 118.177 3.89358 119.196 4.58526Z" fill="black"/>
<path d="M134.374 22.1341H130.866V0.45166L134.374 0.45166V22.1341Z" fill="black"/>
<path fill-rule="evenodd" clip-rule="evenodd" d="M134.825 22.5859H130.414V0L134.825 0V22.5859ZM134.373 22.1342V0.451718L130.866 0.451718V22.1342H134.373Z" fill="black"/>
<path d="M177.654 7.09643C177.172 5.78321 176.488 4.62742 175.599 3.62905C174.71 2.62654 173.644 1.84772 172.399 1.28847C171.153 0.729216 169.782 0.45166 168.276 0.45166L139.475 0.45166V22.1341H168.276C169.782 22.1341 171.157 21.8566 172.399 21.2973C173.64 20.7381 174.71 19.9634 175.599 18.9733C176.488 17.9832 177.172 16.8316 177.654 15.5184C178.136 14.2052 178.376 12.7967 178.376 11.2888C178.376 9.78084 178.136 8.40135 177.654 7.09228V7.09643ZM174.408 15.1828C173.854 16.351 173.053 17.2831 172.009 17.9874C170.964 18.6916 169.719 19.0396 168.276 19.0396H142.612V3.55034L168.276 3.55034C169.719 3.55034 170.964 3.89832 172.009 4.59014C173.053 5.28196 173.854 6.21819 174.408 7.39469C174.961 8.5712 175.238 9.87198 175.238 11.297C175.238 12.7221 174.961 14.0187 174.408 15.1828Z" fill="black"/>
<path fill-rule="evenodd" clip-rule="evenodd" d="M177.625 7.01703C177.145 5.73661 176.471 4.6073 175.6 3.62911C174.71 2.62659 173.645 1.84778 172.399 1.28853C171.154 0.729274 169.782 0.451718 168.277 0.451718L139.475 0.451718V22.1342L168.277 22.1342C169.782 22.1342 171.158 21.8566 172.399 21.2974C173.641 20.7381 174.71 19.9635 175.6 18.9734C176.489 17.9833 177.172 16.8316 177.655 15.5184C178.137 14.2052 178.376 12.7967 178.376 11.2888C178.376 9.81133 178.147 8.45714 177.684 7.17168C177.675 7.14659 177.665 7.12152 177.656 7.09648C177.656 7.09665 177.656 7.09632 177.656 7.09648C177.656 7.09527 177.655 7.09356 177.655 7.09234V7.09648C177.654 7.09527 177.654 7.09405 177.653 7.09283C177.653 7.093 177.653 7.09267 177.653 7.09283C177.644 7.06767 177.635 7.04208 177.625 7.01703ZM178.077 6.93642C177.576 5.57478 176.865 4.3708 175.937 3.32899C175.005 2.27781 173.887 1.46127 172.584 0.876436C171.275 0.288384 169.839 0 168.277 0L139.023 0V22.5859L168.277 22.5859C169.839 22.5859 171.279 22.2976 172.585 21.7092C173.882 21.125 175.003 20.3136 175.936 19.2752C176.865 18.24 177.578 17.038 178.079 15.6742C178.581 14.307 178.828 12.8453 178.828 11.2888C178.828 9.73129 178.581 8.29859 178.079 6.93617M174 14.9889C174.522 13.8916 174.787 12.6623 174.787 11.2971C174.787 9.93207 174.522 8.69784 174 7.58709C173.48 6.4825 172.733 5.61117 171.76 4.96678C170.8 4.3309 169.644 4.00212 168.277 4.00212L143.064 4.00212V18.5879L168.277 18.5879C169.644 18.5879 170.798 18.2592 171.757 17.6129C172.733 16.9546 173.481 16.0849 174 14.9889ZM172.009 17.9874C173.054 17.2832 173.855 16.3511 174.408 15.1829C174.962 14.0188 175.239 12.7222 175.239 11.2971C175.239 9.87204 174.962 8.57126 174.408 7.39475C173.855 6.21825 173.054 5.28201 172.009 4.5902C170.965 3.89838 169.719 3.5504 168.277 3.5504L142.612 3.5504V19.0397L168.277 19.0397C169.719 19.0397 170.965 18.6917 172.009 17.9874Z" fill="black"/>
<path d="M175.028 36.5755V40.3579C175.028 40.7298 175.098 40.9864 175.24 41.1278C175.381 41.2691 175.63 41.3398 175.987 41.3398H176.701V42.0092H175.865C175.314 42.0092 174.905 41.8828 174.637 41.6299C174.37 41.3695 174.236 40.9455 174.236 40.3579V36.5755H173.388V35.9172H174.236V34.3887H175.028V35.9172H176.701V36.5755H175.028Z" fill="black"/>
<path d="M169.809 35.8057C170.538 35.8057 171.133 36.0325 171.595 36.4863C172.056 36.9326 172.286 37.5834 172.286 38.4388V42.0092H171.517V38.5281C171.517 37.8661 171.349 37.3603 171.014 37.0107C170.687 36.6611 170.237 36.4863 169.664 36.4863C169.077 36.4863 168.608 36.6722 168.259 37.0441C167.909 37.4161 167.734 37.9628 167.734 38.6843V42.0092H166.953V35.9172H167.734V36.9549C167.928 36.583 168.206 36.3003 168.571 36.1069C168.935 35.9061 169.348 35.8057 169.809 35.8057Z" fill="black"/>
<path d="M165.523 38.651C165.523 38.9187 165.516 39.1233 165.501 39.2646H160.446C160.469 39.7258 160.58 40.12 160.781 40.4473C160.982 40.7746 161.246 41.0238 161.573 41.1949C161.901 41.3585 162.258 41.4403 162.644 41.4403C163.15 41.4403 163.574 41.3176 163.916 41.0721C164.266 40.8267 164.497 40.4957 164.608 40.0791H165.434C165.285 40.6742 164.965 41.1614 164.474 41.5407C163.991 41.9127 163.381 42.0986 162.644 42.0986C162.072 42.0986 161.558 41.9722 161.105 41.7193C160.651 41.4589 160.294 41.0944 160.034 40.6258C159.781 40.1498 159.654 39.5956 159.654 38.9634C159.654 38.3311 159.781 37.777 160.034 37.3009C160.287 36.8249 160.64 36.4604 161.094 36.2075C161.547 35.9546 162.064 35.8281 162.644 35.8281C163.225 35.8281 163.73 35.9546 164.162 36.2075C164.601 36.4604 164.935 36.8025 165.166 37.234C165.404 37.6579 165.523 38.1303 165.523 38.651ZM164.731 38.6286C164.738 38.1749 164.645 37.7881 164.452 37.4683C164.266 37.1484 164.009 36.9067 163.682 36.743C163.355 36.5794 162.998 36.4976 162.611 36.4976C162.031 36.4976 161.536 36.6835 161.127 37.0554C160.718 37.4274 160.491 37.9518 160.446 38.6286H164.731Z" fill="black"/>
<path d="M155.856 35.8057C156.57 35.8057 157.15 36.0325 157.596 36.4863C158.05 36.9326 158.277 37.5834 158.277 38.4388V42.0092H157.507V38.5281C157.507 37.8661 157.347 37.3603 157.027 37.0107C156.708 36.6611 156.272 36.4863 155.722 36.4863C155.149 36.4863 154.692 36.6759 154.35 37.0553C154.007 37.4347 153.836 37.9851 153.836 38.7066V42.0092H153.066V38.5281C153.066 37.8661 152.907 37.3603 152.587 37.0107C152.267 36.6611 151.828 36.4863 151.27 36.4863C150.697 36.4863 150.24 36.6759 149.898 37.0553C149.556 37.4347 149.385 37.9851 149.385 38.7066V42.0092H148.604V35.9172H149.385V36.966C149.578 36.5867 149.853 36.3003 150.21 36.1069C150.567 35.9061 150.965 35.8057 151.404 35.8057C151.932 35.8057 152.393 35.9321 152.788 36.185C153.189 36.4379 153.479 36.8098 153.658 37.3008C153.821 36.8173 154.1 36.4491 154.495 36.1962C154.896 35.9358 155.35 35.8057 155.856 35.8057Z" fill="black"/>
<path d="M147.175 38.651C147.175 38.9187 147.168 39.1233 147.153 39.2646H142.099C142.121 39.7258 142.233 40.12 142.434 40.4473C142.634 40.7746 142.898 41.0238 143.226 41.1949C143.553 41.3585 143.91 41.4403 144.297 41.4403C144.803 41.4403 145.227 41.3176 145.569 41.0721C145.918 40.8267 146.149 40.4957 146.261 40.0791H147.086C146.937 40.6742 146.618 41.1614 146.127 41.5407C145.643 41.9127 145.033 42.0986 144.297 42.0986C143.724 42.0986 143.211 41.9722 142.757 41.7193C142.303 41.4589 141.946 41.0944 141.686 40.6258C141.433 40.1498 141.307 39.5956 141.307 38.9634C141.307 38.3311 141.433 37.777 141.686 37.3009C141.939 36.8249 142.292 36.4604 142.746 36.2075C143.2 35.9546 143.717 35.8281 144.297 35.8281C144.877 35.8281 145.383 35.9546 145.814 36.2075C146.253 36.4604 146.588 36.8025 146.818 37.234C147.056 37.6579 147.175 38.1303 147.175 38.651ZM146.383 38.6286C146.391 38.1749 146.298 37.7881 146.104 37.4683C145.918 37.1484 145.662 36.9067 145.334 36.743C145.007 36.5794 144.65 36.4976 144.263 36.4976C143.683 36.4976 143.189 36.6835 142.779 37.0554C142.37 37.4274 142.143 37.9518 142.099 38.6286H146.383Z" fill="black"/>
<path d="M136.689 35.8281C137.262 35.8281 137.761 35.962 138.185 36.2298C138.609 36.4976 138.913 36.836 139.099 37.2451V35.9174H139.88V42.1656C139.88 42.7234 139.758 43.2181 139.512 43.6495C139.274 44.0809 138.94 44.4119 138.508 44.6425C138.077 44.8805 137.586 44.9995 137.035 44.9995C136.254 44.9995 135.603 44.8136 135.083 44.4417C134.57 44.0698 134.25 43.564 134.123 42.9243H134.893C135.027 43.3482 135.28 43.6867 135.652 43.9396C136.031 44.1925 136.492 44.3189 137.035 44.3189C137.43 44.3189 137.783 44.2334 138.095 44.0623C138.408 43.8987 138.653 43.6532 138.832 43.3259C139.01 42.9986 139.099 42.6119 139.099 42.1656V40.6593C138.906 41.0758 138.597 41.4217 138.173 41.6969C137.757 41.9647 137.262 42.0986 136.689 42.0986C136.132 42.0986 135.629 41.9684 135.183 41.7081C134.744 41.4478 134.398 41.0796 134.146 40.6035C133.9 40.1275 133.777 39.577 133.777 38.9522C133.777 38.3274 133.9 37.7807 134.146 37.3121C134.398 36.836 134.744 36.4715 135.183 36.2186C135.629 35.9583 136.132 35.8281 136.689 35.8281ZM139.099 38.9634C139.099 38.4724 138.999 38.041 138.798 37.6691C138.597 37.2972 138.322 37.0108 137.973 36.81C137.63 36.6091 137.251 36.5087 136.834 36.5087C136.403 36.5087 136.016 36.6054 135.674 36.7988C135.332 36.9922 135.06 37.2749 134.86 37.6468C134.666 38.0113 134.57 38.4464 134.57 38.9522C134.57 39.4506 134.666 39.8894 134.86 40.2688C135.06 40.6407 135.332 40.9271 135.674 41.1279C136.016 41.3213 136.403 41.418 136.834 41.418C137.251 41.418 137.63 41.3176 137.973 41.1168C138.322 40.9159 138.597 40.6295 138.798 40.2576C138.999 39.8857 139.099 39.4543 139.099 38.9634Z" fill="black"/>
<path d="M126.248 38.9522C126.248 38.3274 126.371 37.7807 126.616 37.3121C126.869 36.836 127.215 36.4715 127.654 36.2186C128.1 35.9583 128.602 35.8281 129.16 35.8281C129.74 35.8281 130.239 35.962 130.655 36.2298C131.079 36.4976 131.384 36.8397 131.57 37.2563V35.9174H132.351V42.0093H131.57V40.6593C131.377 41.0758 131.068 41.4217 130.644 41.6969C130.228 41.9647 129.729 42.0986 129.149 42.0986C128.599 42.0986 128.1 41.9684 127.654 41.7081C127.215 41.4478 126.869 41.0796 126.616 40.6035C126.371 40.1275 126.248 39.577 126.248 38.9522ZM131.57 38.9634C131.57 38.4724 131.47 38.041 131.269 37.6691C131.068 37.2972 130.793 37.0108 130.443 36.81C130.101 36.6091 129.722 36.5087 129.305 36.5087C128.874 36.5087 128.487 36.6054 128.145 36.7988C127.803 36.9922 127.531 37.2749 127.33 37.6468C127.137 38.0113 127.04 38.4464 127.04 38.9522C127.04 39.4506 127.137 39.8894 127.33 40.2688C127.531 40.6407 127.803 40.9271 128.145 41.1279C128.487 41.3213 128.874 41.418 129.305 41.418C129.722 41.418 130.101 41.3176 130.443 41.1168C130.793 40.9159 131.068 40.6295 131.269 40.2576C131.47 39.8857 131.57 39.4543 131.57 38.9634Z" fill="black"/>
<path d="M122.401 35.8057C123.13 35.8057 123.725 36.0325 124.186 36.4863C124.648 36.9326 124.878 37.5834 124.878 38.4388V42.0092H124.108V38.5281C124.108 37.8661 123.941 37.3603 123.606 37.0107C123.279 36.6611 122.829 36.4863 122.256 36.4863C121.669 36.4863 121.2 36.6722 120.85 37.0441C120.501 37.4161 120.326 37.9628 120.326 38.6843V42.0092H119.545V35.9172H120.326V36.9549C120.519 36.583 120.798 36.3003 121.163 36.1069C121.527 35.9061 121.94 35.8057 122.401 35.8057Z" fill="black"/>
<path d="M111.658 38.9522C111.658 38.3274 111.781 37.7807 112.026 37.3121C112.279 36.836 112.625 36.4715 113.064 36.2186C113.51 35.9583 114.012 35.8281 114.57 35.8281C115.15 35.8281 115.649 35.962 116.065 36.2298C116.489 36.4976 116.794 36.8397 116.98 37.2563V35.9174H117.761V42.0093H116.98V40.6593C116.787 41.0758 116.478 41.4217 116.054 41.6969C115.638 41.9647 115.139 42.0986 114.559 42.0986C114.009 42.0986 113.51 41.9684 113.064 41.7081C112.625 41.4478 112.279 41.0796 112.026 40.6035C111.781 40.1275 111.658 39.577 111.658 38.9522ZM116.98 38.9634C116.98 38.4724 116.88 38.041 116.679 37.6691C116.478 37.2972 116.203 37.0108 115.853 36.81C115.511 36.6091 115.132 36.5087 114.715 36.5087C114.284 36.5087 113.897 36.6054 113.555 36.7988C113.213 36.9922 112.941 37.2749 112.74 37.6468C112.547 38.0113 112.45 38.4464 112.45 38.9522C112.45 39.4506 112.547 39.8894 112.74 40.2688C112.941 40.6407 113.213 40.9271 113.555 41.1279C113.897 41.3213 114.284 41.418 114.715 41.418C115.132 41.418 115.511 41.3176 115.853 41.1168C116.203 40.9159 116.478 40.6295 116.679 40.2576C116.88 39.8857 116.98 39.4543 116.98 38.9634Z" fill="black"/>
<path d="M110.244 34.311V42.0097H109.463V35.8619L106.718 42.0097H106.149L103.404 35.8842V42.0097H102.623V34.311H103.449L106.428 40.9832L109.407 34.311H110.244Z" fill="black"/>
<path d="M92.3613 38.9634C92.3613 38.3311 92.4878 37.7807 92.7407 37.3121C92.9936 36.836 93.3432 36.4715 93.7895 36.2186C94.2358 35.9583 94.7453 35.8281 95.3181 35.8281C96.0693 35.8281 96.6867 36.0141 97.1702 36.386C97.6611 36.7579 97.9772 37.2637 98.1186 37.9034H97.2818C97.1776 37.4645 96.9508 37.1224 96.6012 36.8769C96.259 36.624 95.8313 36.4976 95.3181 36.4976C94.9089 36.4976 94.5408 36.5906 94.2135 36.7765C93.8862 36.9625 93.6258 37.2414 93.4324 37.6133C93.2465 37.9778 93.1535 38.4278 93.1535 38.9634C93.1535 39.4989 93.2465 39.9527 93.4324 40.3246C93.6258 40.6965 93.8862 40.9754 94.2135 41.1614C94.5408 41.3473 94.9089 41.4403 95.3181 41.4403C95.8313 41.4403 96.259 41.3176 96.6012 41.0721C96.9508 40.8192 97.1776 40.4696 97.2818 40.0233H98.1186C97.9772 40.6481 97.6611 41.1502 97.1702 41.5296C96.6793 41.9089 96.0619 42.0986 95.3181 42.0986C94.7453 42.0986 94.2358 41.9722 93.7895 41.7193C93.3432 41.4589 92.9936 41.0944 92.7407 40.6258C92.4878 40.1498 92.3613 39.5956 92.3613 38.9634Z" fill="black"/>
<path d="M90.5593 34.7684C90.4031 34.7684 90.2692 34.7126 90.1576 34.601C90.046 34.4894 89.9902 34.3518 89.9902 34.1882C89.9902 34.0245 90.046 33.8906 90.1576 33.7865C90.2692 33.6749 90.4031 33.6191 90.5593 33.6191C90.7155 33.6191 90.8494 33.6749 90.9609 33.7865C91.0725 33.8906 91.1283 34.0245 91.1283 34.1882C91.1283 34.3518 91.0725 34.4894 90.9609 34.601C90.8494 34.7126 90.7155 34.7684 90.5593 34.7684ZM90.9498 35.9176V42.0095H90.1688V35.9176H90.9498Z" fill="black"/>
<path d="M86.5787 42.0986C85.8795 42.0986 85.3067 41.9387 84.8604 41.6188C84.4216 41.2916 84.1761 40.849 84.124 40.2911H84.9274C84.9646 40.6333 85.1245 40.9122 85.4071 41.1279C85.6972 41.3362 86.084 41.4403 86.5675 41.4403C86.9915 41.4403 87.3225 41.3399 87.5605 41.1391C87.806 40.9382 87.9287 40.6891 87.9287 40.3915C87.9287 40.1832 87.8618 40.0122 87.7279 39.8783C87.594 39.7444 87.4229 39.6403 87.2146 39.5659C87.0138 39.484 86.7386 39.3985 86.389 39.3092C85.9353 39.1902 85.5671 39.0712 85.2844 38.9522C85.0017 38.8332 84.76 38.6584 84.5592 38.4278C84.3658 38.1898 84.2691 37.8737 84.2691 37.4794C84.2691 37.1819 84.3583 36.9067 84.5369 36.6538C84.7154 36.4009 84.9683 36.2 85.2956 36.0513C85.6228 35.9025 85.9948 35.8281 86.4113 35.8281C87.0659 35.8281 87.594 35.9955 87.9957 36.3302C88.3973 36.6575 88.613 37.1112 88.6428 37.6914H87.8618C87.8395 37.3344 87.6981 37.048 87.4378 36.8323C87.1849 36.6091 86.8353 36.4976 86.389 36.4976C85.9948 36.4976 85.6749 36.5906 85.4294 36.7765C85.184 36.9625 85.0613 37.1931 85.0613 37.4683C85.0613 37.7063 85.1319 37.9034 85.2732 38.0596C85.422 38.2084 85.6042 38.3274 85.82 38.4167C86.0357 38.4985 86.3258 38.5915 86.6902 38.6956C87.1291 38.8146 87.4787 38.9299 87.739 39.0415C87.9994 39.153 88.2225 39.3167 88.4085 39.5324C88.5944 39.7481 88.6911 40.0345 88.6986 40.3915C88.6986 40.7188 88.6093 41.0126 88.4308 41.273C88.2523 41.5259 88.0031 41.7267 87.6832 41.8755C87.3634 42.0242 86.9952 42.0986 86.5787 42.0986Z" fill="black"/>
<path d="M82.6975 35.9175V42.0094H81.9165V40.9383C81.738 41.3177 81.4628 41.6078 81.0908 41.8086C80.7189 42.0094 80.3024 42.1099 79.8412 42.1099C79.1123 42.1099 78.5172 41.8867 78.056 41.4404C77.5948 40.9867 77.3643 40.3321 77.3643 39.4767V35.9175H78.1341V39.3874C78.1341 40.0495 78.2978 40.5553 78.6251 40.9049C78.9598 41.2545 79.4135 41.4293 79.9863 41.4293C80.5739 41.4293 81.0425 41.2433 81.3921 40.8714C81.7417 40.4995 81.9165 39.9528 81.9165 39.2312V35.9175H82.6975Z" fill="black"/>
<path d="M75.6489 34.311V42.0097H74.8678V35.8619L72.1231 42.0097H71.5541L68.8093 35.8842V42.0097H68.0283V34.311H68.854L71.833 40.9832L74.812 34.311H75.6489Z" fill="black"/>
<path d="M57.0801 38.9528C57.0801 38.328 57.2065 37.7813 57.4594 37.3126C57.7123 36.8366 58.0582 36.4721 58.4971 36.2192C58.9434 35.9589 59.4455 35.8287 60.0033 35.8287C60.5389 35.8287 61.0224 35.9589 61.4538 36.2192C61.8852 36.4796 62.2013 36.818 62.4022 37.2345V33.7534H63.1832V42.0099H62.4022V40.6487C62.2162 41.0727 61.9113 41.4223 61.4873 41.6975C61.0633 41.9653 60.5649 42.0992 59.9922 42.0992C59.4343 42.0992 58.9322 41.969 58.4859 41.7087C58.0471 41.4483 57.7012 41.0801 57.4483 40.6041C57.2028 40.128 57.0801 39.5776 57.0801 38.9528ZM62.4022 38.9639C62.4022 38.473 62.3018 38.0416 62.1009 37.6697C61.9001 37.2978 61.6249 37.0114 61.2753 36.8106C60.9331 36.6097 60.5538 36.5093 60.1372 36.5093C59.7058 36.5093 59.319 36.606 58.9768 36.7994C58.6347 36.9928 58.3632 37.2755 58.1623 37.6474C57.969 38.0118 57.8723 38.447 57.8723 38.9528C57.8723 39.4512 57.969 39.89 58.1623 40.2694C58.3632 40.6413 58.6347 40.9277 58.9768 41.1285C59.319 41.3219 59.7058 41.4186 60.1372 41.4186C60.5538 41.4186 60.9331 41.3182 61.2753 41.1173C61.6249 40.9165 61.9001 40.6301 62.1009 40.2582C62.3018 39.8863 62.4022 39.4549 62.4022 38.9639Z" fill="black"/>
<path d="M56.0085 38.651C56.0085 38.9187 56.001 39.1233 55.9861 39.2646H50.9318C50.9541 39.7258 51.0657 40.12 51.2665 40.4473C51.4674 40.7746 51.7314 41.0238 52.0587 41.1949C52.386 41.3585 52.7431 41.4403 53.1298 41.4403C53.6356 41.4403 54.0596 41.3176 54.4018 41.0721C54.7514 40.8267 54.982 40.4957 55.0936 40.0791H55.9192C55.7704 40.6742 55.4506 41.1614 54.9597 41.5407C54.4762 41.9127 53.8662 42.0986 53.1298 42.0986C52.5571 42.0986 52.0439 41.9722 51.5901 41.7193C51.1364 41.4589 50.7793 41.0944 50.519 40.6258C50.2661 40.1498 50.1396 39.5956 50.1396 38.9634C50.1396 38.3311 50.2661 37.777 50.519 37.3009C50.7719 36.8249 51.1252 36.4604 51.579 36.2075C52.0327 35.9546 52.5497 35.8281 53.1298 35.8281C53.71 35.8281 54.2158 35.9546 54.6473 36.2075C55.0861 36.4604 55.4208 36.8025 55.6514 37.234C55.8895 37.6579 56.0085 38.1303 56.0085 38.651ZM55.2163 38.6286C55.2237 38.1749 55.1307 37.7881 54.9373 37.4683C54.7514 37.1484 54.4948 36.9067 54.1675 36.743C53.8402 36.5794 53.4832 36.4976 53.0964 36.4976C52.5162 36.4976 52.0215 36.6835 51.6124 37.0554C51.2033 37.4274 50.9765 37.9518 50.9318 38.6286H55.2163Z" fill="black"/>
<path d="M47.2351 36.9995C47.4062 36.6202 47.6665 36.3263 48.0161 36.1181C48.3732 35.9098 48.8083 35.8057 49.3216 35.8057V36.6202H49.1096C48.5443 36.6202 48.0905 36.7726 47.7484 37.0776C47.4062 37.3826 47.2351 37.8921 47.2351 38.6062V42.0092H46.4541V35.9172H47.2351V36.9995Z" fill="black"/>
<path d="M45.0251 38.651C45.0251 38.9187 45.0176 39.1233 45.0028 39.2646H39.9484C39.9707 39.7258 40.0823 40.12 40.2832 40.4473C40.484 40.7746 40.748 41.0238 41.0753 41.1949C41.4026 41.3585 41.7597 41.4403 42.1464 41.4403C42.6522 41.4403 43.0762 41.3176 43.4184 41.0721C43.768 40.8267 43.9986 40.4957 44.1102 40.0791H44.9358C44.787 40.6742 44.4672 41.1614 43.9763 41.5407C43.4928 41.9127 42.8828 42.0986 42.1464 42.0986C41.5737 42.0986 41.0605 41.9722 40.6067 41.7193C40.153 41.4589 39.7959 41.0944 39.5356 40.6258C39.2827 40.1498 39.1562 39.5956 39.1562 38.9634C39.1562 38.3311 39.2827 37.777 39.5356 37.3009C39.7885 36.8249 40.1418 36.4604 40.5956 36.2075C41.0493 35.9546 41.5663 35.8281 42.1464 35.8281C42.7266 35.8281 43.2324 35.9546 43.6639 36.2075C44.1027 36.4604 44.4374 36.8025 44.668 37.234C44.9061 37.6579 45.0251 38.1303 45.0251 38.651ZM44.2329 38.6286C44.2403 38.1749 44.1473 37.7881 43.954 37.4683C43.768 37.1484 43.5114 36.9067 43.1841 36.743C42.8568 36.5794 42.4998 36.4976 42.113 36.4976C41.5328 36.4976 41.0381 36.6835 40.629 37.0554C40.2199 37.4274 39.9931 37.9518 39.9484 38.6286H44.2329Z" fill="black"/>
<path d="M38.449 35.9175L36.5411 42.0094H35.7601L34.0753 36.8993L32.3905 42.0094H31.5984L29.6904 35.9175H30.4826L32 41.2173L33.7071 35.9175H34.4881L36.1729 41.2284L37.6792 35.9175H38.449Z" fill="black"/>
<path d="M25.9231 42.0986C25.3503 42.0986 24.8334 41.9722 24.3722 41.7193C23.9185 41.4589 23.5577 41.0944 23.2899 40.6258C23.0296 40.1498 22.8994 39.5956 22.8994 38.9634C22.8994 38.3311 23.0333 37.7807 23.3011 37.3121C23.5689 36.836 23.9333 36.4715 24.3945 36.2186C24.8557 35.9583 25.3726 35.8281 25.9454 35.8281C26.5181 35.8281 27.0351 35.9583 27.4963 36.2186C27.9649 36.4715 28.3294 36.836 28.5897 37.3121C28.8575 37.7807 28.9914 38.3311 28.9914 38.9634C28.9914 39.5882 28.8575 40.1386 28.5897 40.6147C28.3219 41.0907 27.9537 41.4589 27.4851 41.7193C27.0165 41.9722 26.4958 42.0986 25.9231 42.0986ZM25.9231 41.418C26.3247 41.418 26.6967 41.3287 27.0388 41.1502C27.381 40.9643 27.6562 40.6891 27.8645 40.3246C28.0802 39.9527 28.188 39.4989 28.188 38.9634C28.188 38.4278 28.0839 37.9778 27.8756 37.6133C27.6674 37.2414 27.3921 36.9662 27.05 36.7877C26.7078 36.6017 26.3359 36.5087 25.9342 36.5087C25.5326 36.5087 25.1607 36.6017 24.8185 36.7877C24.4763 36.9662 24.2011 37.2414 23.9928 37.6133C23.792 37.9778 23.6916 38.4278 23.6916 38.9634C23.6916 39.4989 23.792 39.9527 23.9928 40.3246C24.2011 40.6891 24.4726 40.9643 24.8073 41.1502C25.1495 41.3287 25.5214 41.418 25.9231 41.418Z" fill="black"/>
<path d="M21.9464 36.4536C21.9464 37.123 21.7269 37.6623 21.2881 38.0714C20.8492 38.4805 20.1909 38.6851 19.3132 38.6851H17.74V42.01H16.959V34.2109H19.3132C20.1835 34.2109 20.8381 34.4155 21.2769 34.8246C21.7232 35.2337 21.9464 35.7767 21.9464 36.4536ZM19.3132 38.0156C20.5331 38.0156 21.143 37.4949 21.143 36.4536C21.143 35.9329 20.998 35.5387 20.7079 35.2709C20.4178 35.0031 19.9529 34.8692 19.3132 34.8692H17.74V38.0156H19.3132Z" fill="black"/>
<path d="M14.9555 37.5464V38.2047H10.6152V37.5464H14.9555Z" fill="black"/>
<path d="M9.40504 34.2109V42.01H8.62402V34.2109H9.40504Z" fill="black"/>
<path d="M5.86389 40.1575H2.31583L1.63522 42.0097H0.80957L3.65472 34.311H4.53616L7.37015 42.0097H6.5445L5.86389 40.1575ZM5.62959 39.5104L4.08986 35.2929L2.55013 39.5104H5.62959Z" fill="black"/>
</svg>
