<svg width="130" height="132" viewBox="0 0 130 132" fill="none" xmlns="http://www.w3.org/2000/svg">
<path d="M64.9525 16.9546L65.9988 48.9883L70.4236 17.2383L68.0798 49.2047L75.8352 18.0863L70.1272 49.6352L81.1273 19.4892L72.1173 50.275L86.2419 21.4319L74.0291 51.1171L91.1235 23.8928L75.8413 52.1525L95.7186 26.8452L77.5344 53.3695L99.9759 30.2565L79.0898 54.7547L103.85 34.0896L80.4898 56.2936L107.298 38.3022L81.7201 57.9688L110.282 42.8484L82.7664 59.7618L112.769 47.6783L83.6177 61.6534L114.733 52.739L84.2639 63.6224L116.151 57.9748L84.6992 65.6481L117.008 63.3291L84.9179 67.7071L117.295 68.7423L84.9179 69.7775L117.008 74.1555L84.6992 71.8365L116.151 79.5098L84.2639 73.8622L114.733 84.7458L83.6177 75.8312L112.769 89.8063L82.7664 77.7228L110.282 94.6362L81.7201 79.5158L107.298 99.1826L80.4898 81.191L103.85 103.395L79.0898 82.7299L99.9759 107.228L77.5344 84.1151L95.7186 110.64L75.8413 85.3324L91.1235 113.592L74.0291 86.3676L86.2419 116.053L72.1173 87.2098L81.1273 117.995L70.1272 87.8492L75.8352 119.398L68.0798 88.2799L70.4236 120.247L65.9988 88.4963L64.9525 120.53L63.9062 88.4963L59.4813 120.247L61.8252 88.2799L54.0699 119.398L59.7778 87.8492L48.7779 117.995L57.7877 87.2098L43.663 116.053L55.8758 86.3676L38.7814 113.592L54.0635 85.3324L34.1865 110.64L52.3705 84.1151L29.9288 107.228L50.8154 82.7299L26.0547 103.395L49.4151 81.191L22.6068 99.1826L48.185 79.5158L19.6229 94.6362L47.1386 77.7228L17.1356 89.8063L46.2875 75.8312L15.1721 84.7458L45.6408 73.8622L13.7542 79.5098L45.2057 71.8365L12.8971 74.1555L44.987 69.7775L12.6104 68.7423L44.987 67.7071L12.8971 63.3291L45.2057 65.6481L13.7542 57.9748L45.6408 63.6224L15.1721 52.739L46.2875 61.6534L17.1356 47.6783L47.1386 59.7618L19.6229 42.8484L48.185 57.9688L22.6068 38.3022L49.4151 56.2936L26.0547 34.0896L50.8154 54.7547L29.9288 30.2565L52.3705 53.3695L34.1865 26.8452L54.0635 52.1525L38.7814 23.8928L55.8758 51.1171L43.663 21.4319L57.7877 50.275L48.7779 19.4892L59.7778 49.6352L54.0699 18.0863L61.8252 49.2047L59.4813 17.2383L63.9062 48.9883L64.9525 16.9546Z" fill="black"/>
<path d="M65.1762 94.3249C57.5552 94.0698 52.8841 88.481 51.5013 85.7188C47.353 80.7538 46.4308 69.1446 45.9699 68.5073C45.5089 67.8701 45.9699 58.9451 57.1866 50.3395C66.1597 43.4548 71.271 49.1708 72.7052 52.8894C87.4552 58.7538 84.28 76.0509 80.8485 83.9657C78.8 87.5249 72.7972 94.58 65.1762 94.3249Z" fill="white"/>
<path d="M70.3352 83.6508C67.8349 81.4452 65.8745 82.1533 64.793 82.7371V87.5141C67.798 87.4318 70.2134 85.5915 71.4129 84.1076C71.2586 84.1076 70.9506 84.1076 70.3352 83.6508Z" fill="black"/>
<path d="M59.2505 83.6508C61.7508 81.4452 63.7112 82.1533 64.7927 82.7371V87.5142C61.7878 87.4318 59.3723 85.5915 58.1729 84.1076C58.3271 84.1076 58.6351 84.1076 59.2505 83.6508Z" fill="black"/>
<path d="M64.4886 79.5575C64.0781 79.1002 62.9492 78.3691 61.7178 79.1002C61.7178 79.5575 62.272 80.2885 64.4886 79.5575Z" fill="black"/>
<path d="M66.1826 79.5565C66.3363 78.9977 67.014 78.1244 68.4917 79.0991C68.1837 79.4039 67.2912 79.9217 66.1826 79.5565Z" fill="black"/>
<path d="M50.3228 64.7999C58.2964 60.8777 63.47 54.8845 65.1014 52.2922C67.8292 57.0438 75.3544 61.9069 79.9605 64.4009C80.9858 64.9559 81.8145 65.851 82.0481 66.9843C83.0663 71.9199 81.0161 75.4322 79.7263 76.6626C71.7213 84.5834 82.3434 92.1989 87.8856 86.716C90.1027 88.909 92.5044 87.6296 93.4278 86.716C100.201 86.716 97.9948 80.0141 96.0449 76.6626C99.37 72.8854 96.0962 69.3011 94.0438 67.9808C95.2752 66.3966 94.1463 65.29 93.4278 64.9346C92.5656 67.3713 90.0923 66.2544 88.9633 65.3914C89.4559 61.8579 85.987 61.0756 84.1908 61.1268C85.474 53.3077 81.2657 39.4976 64.4859 39.4976C45.6426 40.9598 44.6265 54.5264 46.4739 61.1268C39.0844 61.1268 42.9331 65.8482 40.6239 66.7624C38.7765 67.4935 37.1857 65.4421 36.6213 64.3251C35.2666 65.0562 35.6463 67.4733 36.0055 68.5903C31.5718 70.5397 33.0288 75.2921 34.3116 77.4247C30.0011 81.6893 34.2603 85.1929 36.9287 86.4112C39.7614 89.2138 41.7011 87.5789 42.3169 86.4112C48.6287 92.3516 57.0958 84.8881 51.5538 77.4247C47.7737 72.3337 48.052 68.2103 48.9158 66.1295C49.171 65.5152 49.7215 65.0954 50.3228 64.7999Z" fill="black" stroke="white" stroke-width="0.5"/>
<path d="M80.1872 68.5893C74.7678 66.3962 71.6686 68.4879 70.7959 69.8082C74.4907 67.493 77.5701 68.8433 78.6472 69.8082C78.7706 69.3209 79.7249 68.7926 80.1872 68.5893Z" fill="black"/>
<path d="M75.2615 70.874C76.0267 70.874 76.647 70.2603 76.647 69.5032C76.647 68.7461 76.0267 68.1323 75.2615 68.1323C74.4963 68.1323 73.876 68.7461 73.876 69.5032C73.876 70.2603 74.4963 70.874 75.2615 70.874Z" fill="black"/>
<path d="M51.4062 68.1743C56.8251 65.9812 59.9248 68.0729 60.797 69.3932C57.1022 67.078 54.0234 68.4283 52.9457 69.3932C52.8226 68.9053 51.8681 68.3776 51.4062 68.1743Z" fill="black"/>
<path d="M56.3313 70.4585C55.5661 70.4585 54.9457 69.8448 54.9457 69.0877C54.9457 68.3305 55.5661 67.7168 56.3313 67.7168C57.0965 67.7168 57.7168 68.3305 57.7168 69.0877C57.7168 69.8448 57.0965 70.4585 56.3313 70.4585Z" fill="black"/>
<path d="M70.179 66.8492L67.4082 66.2398C73.3196 62.7057 79.0568 64.4626 80.8017 65.935C76.8606 64.2293 72.0782 65.8336 70.179 66.8492Z" fill="black"/>
<path d="M59.8653 66.9364L62.6366 66.3269C56.7247 62.7934 50.9879 64.5498 49.2432 66.0222C53.1842 64.3165 57.9666 65.9208 59.8653 66.9364Z" fill="black"/>
<path d="M45.832 58.0277C50.3485 58.3471 60.398 57.1906 65.6819 51.8252C67.2728 54.2175 73.5653 59.2754 84.7743 57.7445" stroke="white" stroke-width="0.5" stroke-dasharray="1 1"/>
<path d="M24.3026 115.358L24.1873 116.342C23.0452 116.145 22.0939 115.674 21.3334 114.926C20.4647 114.073 20.033 113.056 20.0381 111.873C20.0496 110.69 20.4929 109.663 21.368 108.79C22.243 107.918 23.2781 107.472 24.4733 107.453C25.6717 107.436 26.7053 107.854 27.574 108.707C28.3345 109.454 28.842 110.371 29.0965 111.459L28.0982 111.585C27.8762 110.723 27.4662 109.998 26.8679 109.411C26.1965 108.751 25.4028 108.437 24.4866 108.469C23.5704 108.5 22.7775 108.85 22.1078 109.517C21.438 110.185 21.0922 110.973 21.0702 111.883C21.0482 112.793 21.3697 113.574 22.0347 114.228C22.6425 114.824 23.3984 115.201 24.3026 115.358Z" fill="black"/>
<path d="M26.3594 118.445L31.441 111.586L33.345 112.967C34.0104 113.449 34.4272 113.994 34.5953 114.6C34.7661 115.202 34.6553 115.768 34.263 116.298C33.9608 116.706 33.6234 116.97 33.2507 117.09C32.8844 117.209 32.5496 117.222 32.2463 117.129C32.4532 117.428 32.5645 117.802 32.5803 118.254C32.5987 118.702 32.4489 119.14 32.1307 119.57C31.7119 120.135 31.1502 120.473 30.4456 120.583C29.7447 120.697 29.0796 120.525 28.4504 120.069C27.8392 119.626 27.5243 119.128 27.5056 118.575L27.1676 119.031L26.3594 118.445ZM31.4683 115.995C31.7721 116.216 32.109 116.308 32.479 116.275C32.8526 116.243 33.16 116.064 33.4013 115.739C33.6318 115.427 33.7046 115.112 33.6194 114.791C33.5369 114.468 33.2696 114.142 32.8176 113.814L31.6568 112.972L30.1339 115.027L31.4683 115.995ZM29.0349 119.28C29.3928 119.539 29.8019 119.633 30.2621 119.56C30.7223 119.486 31.0862 119.269 31.3539 118.907C31.6058 118.567 31.6774 118.193 31.5688 117.784C31.463 117.372 31.2274 117.033 30.8621 116.769L29.5494 115.816L28.6905 116.976C28.4228 117.337 28.3192 117.743 28.3798 118.194C28.444 118.648 28.6624 119.01 29.0349 119.28Z" fill="black"/>
<path d="M33.2432 122.715L37.4503 115.299L40.1071 116.774C41.2293 117.398 41.9628 118.276 42.3074 119.409C42.6582 120.539 42.5308 121.639 41.9251 122.706C41.3369 123.743 40.4659 124.422 39.3121 124.743C38.1623 125.065 37.0653 124.937 36.0214 124.357C35.2121 123.908 34.6921 123.347 34.4617 122.674L34.1522 123.22L33.2432 122.715ZM35.0411 121.653C35.2392 122.455 35.7116 123.064 36.4584 123.478C37.2482 123.917 38.0949 124.011 38.9984 123.759C39.9018 123.508 40.5763 122.99 41.0219 122.205C41.4893 121.381 41.5884 120.535 41.3192 119.669C41.0522 118.797 40.5081 118.135 39.687 117.678L37.8689 116.669L35.0411 121.653Z" fill="black"/>
<path d="M47.4453 128.429L49.8503 120.265L50.8511 120.553L48.7209 127.785L48.9275 127.845C49.9047 128.127 50.7845 128.018 51.5669 127.518C52.3536 127.019 52.9013 126.246 53.2099 125.198L54.2863 121.544L55.274 121.829L53.144 129.06L53.3313 129.114C54.3127 129.397 55.2019 129.272 55.9986 128.74C56.8008 128.205 57.3457 127.449 57.6327 126.473L58.7093 122.819L59.7104 123.108L58.6338 126.762C58.2653 128.014 57.5639 128.967 56.5308 129.621C55.5016 130.277 54.3436 130.418 53.0565 130.047L51.9007 129.714L52.3975 128.027C51.5841 129.013 50.3359 129.263 48.6528 128.777L47.4453 128.429Z" fill="black"/>
<path d="M67.2807 122.658L67.208 123.641L63.1429 123.345L62.955 125.88L66.7782 126.158L66.7049 127.147L62.8818 126.869L62.6603 129.856L66.7788 130.155L66.7049 131.144L61.5605 130.77L62.1898 122.289L67.2807 122.658Z" fill="black"/>
<path d="M69.9602 130.761L69.5293 122.268L70.5635 122.216L70.9425 129.686L75.0065 129.484L75.0588 130.508L69.9602 130.761Z" fill="black"/>
<path d="M77.4133 129.893L76.0293 121.499L77.0519 121.334L78.269 128.716L82.2845 128.068L82.4514 129.079L77.4133 129.893Z" fill="black"/>
<path d="M90.9497 126.464L83.9998 121.33L85.8764 127.886L84.9447 128.147L82.6025 119.965L83.5667 119.694L90.5999 124.923L88.6919 118.258L89.6302 117.995L91.9723 126.178L90.9497 126.464Z" fill="black"/>
<path d="M96.0657 114.434L96.4877 115.326L92.7957 117.034L93.8839 119.337L97.3566 117.73L97.7809 118.628L94.3081 120.235L95.5902 122.947L99.3313 121.217L99.7555 122.115L95.0828 124.277L91.4414 116.573L96.0657 114.434Z" fill="black"/>
<path d="M102.26 111.712L101.783 112.56C101.23 112.276 100.719 112.28 100.249 112.573C99.9302 112.772 99.7126 113.034 99.5963 113.359C99.4834 113.681 99.528 113.999 99.7286 114.315C99.9181 114.611 100.175 114.802 100.5 114.887C100.826 114.967 101.266 114.95 101.818 114.835C102.464 114.7 103.086 114.666 103.685 114.732C104.282 114.795 104.773 115.128 105.158 115.732C105.536 116.325 105.654 116.937 105.509 117.567C105.369 118.195 104.945 118.73 104.235 119.173C103.371 119.712 102.449 119.751 101.469 119.287L101.958 118.407C102.632 118.674 103.215 118.653 103.708 118.346C104.144 118.073 104.411 117.752 104.508 117.381C104.61 117.009 104.542 116.636 104.305 116.265C104.094 115.935 103.789 115.745 103.386 115.698C102.983 115.646 102.503 115.675 101.947 115.786C101.364 115.919 100.801 115.937 100.257 115.841C99.7115 115.742 99.2646 115.42 98.9181 114.876C98.5374 114.28 98.4465 113.688 98.6454 113.103C98.8459 112.511 99.2018 112.055 99.7137 111.735C100.465 111.266 101.313 111.258 102.26 111.712Z" fill="black"/>
<path d="M106.984 107.78L106.597 108.672C106.018 108.445 105.51 108.502 105.073 108.841C104.776 109.071 104.587 109.354 104.505 109.688C104.426 110.02 104.503 110.333 104.736 110.625C104.954 110.901 105.229 111.065 105.562 111.118C105.894 111.164 106.33 111.102 106.868 110.932C107.496 110.732 108.111 110.635 108.714 110.641C109.314 110.643 109.837 110.925 110.283 111.487C110.72 112.038 110.9 112.635 110.822 113.276C110.747 113.915 110.38 114.49 109.72 115.002C108.916 115.627 108.003 115.758 106.98 115.396L107.375 114.471C108.073 114.669 108.651 114.589 109.11 114.233C109.516 113.918 109.748 113.571 109.807 113.193C109.869 112.812 109.763 112.448 109.489 112.103C109.246 111.796 108.921 111.639 108.517 111.631C108.109 111.621 107.635 111.698 107.094 111.865C106.528 112.056 105.97 112.132 105.419 112.091C104.866 112.047 104.388 111.772 103.987 111.266C103.547 110.711 103.395 110.132 103.532 109.53C103.671 108.92 103.978 108.431 104.454 108.061C105.153 107.519 105.996 107.425 106.984 107.78Z" fill="black"/>
<path d="M1.6627 61.3404C1.20684 62.1068 0.982213 62.9136 0.988825 63.7613C0.996098 64.6924 1.3385 65.4752 2.01603 66.1092C2.68908 66.7426 3.50536 67.0561 4.46487 67.0485C5.42885 67.0414 6.24236 66.7132 6.90539 66.065C7.56843 65.412 7.89637 64.6264 7.88921 63.7084C7.88364 62.9943 7.71058 62.3652 7.37003 61.8223L3.95348 61.8484L3.94564 60.8438L8.33064 60.81C9.6668 60.8001 10.8133 61.1926 11.7701 61.9885C12.7313 62.7795 13.2169 63.8098 13.2268 65.0784L13.2306 65.5641L12.2285 65.5717L12.2247 65.086C12.2171 64.1058 11.841 63.3165 11.0965 62.719C10.3564 62.121 9.47969 61.8195 8.46629 61.8141C8.73054 62.3489 8.86547 62.978 8.87109 63.7008C8.88051 64.9028 8.46475 65.9288 7.62391 66.7781C6.77856 67.623 5.72819 68.0504 4.47276 68.0602C3.22182 68.0695 2.16712 67.6585 1.30868 66.8266C0.445729 65.9898 0.00955908 64.971 0.000176069 63.7684C-0.00816561 62.6994 0.279898 61.6903 0.864372 60.7407L1.6627 61.3404Z" fill="black"/>
<path d="M8.68527 55.2952C8.82836 54.3832 8.60946 53.5666 8.02852 52.8441C7.44829 52.1175 6.69297 51.6827 5.76249 51.5398C4.81877 51.3948 3.95758 51.5768 3.17894 52.0857C2.39588 52.594 1.93178 53.3106 1.78664 54.2355C1.63944 55.1736 1.86209 55.9957 2.45462 56.7016C3.0434 57.4027 3.80966 57.8257 4.75341 57.9707C5.68387 58.1135 6.5355 57.9347 7.30835 57.4338C8.08113 56.9333 8.54015 56.2203 8.68527 55.2952ZM5.92552 50.5008C7.13071 50.6859 8.10505 51.2576 8.84858 52.2158C9.58837 53.169 9.86402 54.2464 9.67553 55.4473C9.48501 56.6619 8.89189 57.6077 7.89623 58.2853C6.89677 58.958 5.7945 59.2016 4.58935 59.0163C3.3709 58.8293 2.38853 58.2651 1.64225 57.3247C0.892222 56.3789 0.612478 55.299 0.803015 54.0845C0.99149 52.8833 1.58869 51.9402 2.5946 51.2552C3.59678 50.5651 4.70709 50.3137 5.92552 50.5008Z" fill="black"/>
<path d="M10.5586 49.7576L2.34375 47.2548L2.64857 46.2754L9.87348 48.4766L11.071 44.6289L12.0609 44.9305L10.5586 49.7576Z" fill="black"/>
<path d="M12.3319 44.0357L4.53223 40.462L5.81256 37.7266C6.35328 36.5712 7.1809 35.7795 8.2954 35.3515C9.40769 34.9176 10.5253 34.9579 11.6483 35.4724C12.7387 35.972 13.4903 36.7784 13.9032 37.8916C14.3179 39.0007 14.2738 40.0927 13.7707 41.1676C13.3807 42.0009 12.8559 42.5574 12.1963 42.8369L12.77 43.0998L12.3319 44.0357ZM11.1221 42.3448C11.9148 42.087 12.4911 41.5737 12.8509 40.8049C13.2315 39.9917 13.2602 39.1492 12.9369 38.2776C12.6136 37.4058 12.039 36.7808 11.213 36.4024C10.3464 36.0052 9.48681 35.9732 8.63424 36.3061C7.77765 36.6372 7.15147 37.2254 6.75582 38.0708L5.87967 39.9427L11.1221 42.3448Z" fill="black"/>
<path d="M11.9595 26.9927L12.7933 27.5305L10.5677 30.9088L12.72 32.2969L14.8135 29.1193L15.653 29.6607L13.5595 32.8383L16.095 34.4735L18.35 31.0507L19.1895 31.5921L16.3726 35.8679L9.17188 31.2239L11.9595 26.9927Z" fill="black"/>
<path d="M24.0772 25.7435L15.4205 25.2039L20.6148 29.6783L19.9789 30.401L13.4961 24.8167L14.1541 24.0689L22.9324 24.6427L17.6518 20.094L18.2922 19.3662L24.775 24.9505L24.0772 25.7435Z" fill="black"/>
<path d="M29.8352 11.8053C28.9402 11.8879 28.1473 12.1796 27.4566 12.6806C26.6972 13.2314 26.2559 13.9639 26.1328 14.8783C26.007 15.7891 26.2278 16.6273 26.795 17.393C27.365 18.1623 28.1096 18.6233 29.0289 18.7762C29.9519 18.9264 30.7876 18.73 31.5362 18.1871C32.1184 17.7649 32.5326 17.2583 32.7786 16.6673L30.7586 13.9409L31.5777 13.3468L34.1702 16.8461C34.9601 17.9123 35.3088 19.0621 35.2163 20.2953C35.1299 21.5296 34.5697 22.5217 33.5354 23.2718L33.1394 23.559L32.5469 22.7593L32.9429 22.4721C33.7422 21.8925 34.1689 21.1292 34.2234 20.1821C34.2805 19.2386 34.0149 18.3586 33.4267 17.5421C33.1428 18.067 32.7062 18.5432 32.1167 18.9707C31.1367 19.6814 30.0526 19.9479 28.8645 19.77C27.6774 19.5858 26.7127 18.9929 25.9705 17.991C25.2309 16.9927 24.9511 15.9058 25.1309 14.7304C25.3117 13.5486 25.8921 12.6024 26.8721 11.8916C27.7436 11.2596 28.7395 10.9003 29.8596 10.814L29.8352 11.8053Z" fill="black"/>
<path d="M38.9029 13.8953C39.7341 13.4768 40.2758 12.8232 40.528 11.9345C40.7843 11.0438 40.6988 10.1834 40.2717 9.35312C39.8385 8.51099 39.1855 7.92639 38.3129 7.59926C37.4382 7.26814 36.5793 7.31491 35.7361 7.73952C34.881 8.17018 34.3373 8.82973 34.1052 9.71825C33.8749 10.6008 33.9764 11.4631 34.4096 12.3053C34.8367 13.1355 35.4816 13.7142 36.3442 14.0415C37.2069 14.3687 38.0598 14.3199 38.9029 13.8953ZM41.2188 8.87618C41.7719 9.95162 41.8733 11.0679 41.5227 12.2251C41.1741 13.3763 40.4524 14.2276 39.3575 14.779C38.2506 15.3364 37.1282 15.4138 35.9904 15.0112C34.8544 14.6026 34.0098 13.8606 33.4566 12.7852C32.8973 11.698 32.7849 10.5798 33.1195 9.43063C33.456 8.2755 34.1777 7.41925 35.2846 6.8618C36.3795 6.31045 37.5019 6.238 38.6519 6.64451C39.8038 7.04507 40.6594 7.78896 41.2188 8.87618Z" fill="black"/>
<path d="M44.1501 12.2205L41.5586 4.11185L44.4636 3.20298C45.6905 2.81909 46.8395 2.89002 47.9104 3.41573C48.9842 3.93588 49.7077 4.77966 50.0809 5.94712C50.4431 7.08073 50.348 8.17367 49.7955 9.22588C49.2473 10.2768 48.4025 10.9808 47.261 11.338C46.3761 11.6148 45.6069 11.6065 44.9535 11.3131L45.1441 11.9095L44.1501 12.2205ZM44.5966 10.1964C45.3234 10.6018 46.0951 10.6768 46.9117 10.4213C47.7752 10.1511 48.4233 9.60404 48.856 8.78007C49.2886 7.95605 49.3677 7.11474 49.0933 6.2561C48.8053 5.35511 48.2497 4.70542 47.4264 4.30697C46.6017 3.90429 45.7405 3.84339 44.8426 4.12428L42.8547 4.74625L44.5966 10.1964Z" fill="black"/>
<path d="M52.5767 9.66815L51.3232 1.25466L54.3374 0.815066C55.6105 0.629394 56.7334 0.880422 57.7058 1.56815C58.6827 2.25085 59.2607 3.19786 59.4414 4.40919C59.6166 5.58543 59.3466 6.64942 58.632 7.60117C57.9218 8.55232 56.9742 9.11424 55.7901 9.287C54.8717 9.42088 54.1137 9.29152 53.5158 8.89891L53.6081 9.51775L52.5767 9.66815ZM53.3432 7.74023C53.9955 8.25495 54.7455 8.45054 55.5923 8.32696C56.4887 8.19629 57.2166 7.75833 57.7764 7.01302C58.3361 6.26772 58.5494 5.44958 58.4166 4.55861C58.2772 3.6238 57.8337 2.89484 57.0849 2.37176C56.3356 1.84428 55.4948 1.64848 54.5637 1.78434L52.5007 2.08516L53.3432 7.74023Z" fill="black"/>
<path d="M67.0998 0V0.984861H63.0243V3.52687H66.858V4.51841H63.0243V7.51288H67.1538V8.50443H61.9951V0H67.0998Z" fill="black"/>
<path d="M73.8772 1.85766L72.9692 2.22554C72.7174 1.66187 72.3152 1.34935 71.7625 1.28798C71.3884 1.24641 71.0535 1.31634 70.7576 1.49777C70.4661 1.67968 70.2997 1.95581 70.2573 2.32613C70.2182 2.67441 70.2981 2.98241 70.4981 3.25012C70.7025 3.51392 71.0568 3.77201 71.5603 4.02439C72.1499 4.31752 72.6573 4.67524 73.0832 5.0975C73.5097 5.5154 73.6827 6.07923 73.6022 6.789C73.5229 7.48557 73.2281 8.03539 72.7179 8.43852C72.2121 8.84214 71.5422 8.99766 70.7091 8.90515C69.6931 8.79231 68.9487 8.25208 68.4766 7.28447L69.4138 6.89972C69.7713 7.52428 70.2402 7.86869 70.8193 7.93302C71.3317 7.98993 71.7433 7.90391 72.0535 7.675C72.3681 7.44654 72.5499 7.11412 72.5995 6.67768C72.6436 6.28971 72.524 5.95276 72.2408 5.66684C71.9576 5.3765 71.5647 5.1029 71.0612 4.84614C70.5218 4.58982 70.07 4.25617 69.7063 3.84521C69.3427 3.42986 69.1972 2.90255 69.27 2.2633C69.3493 1.56233 69.6518 1.04459 70.1769 0.710076C70.7069 0.371651 71.2727 0.235848 71.8744 0.302654C72.757 0.400641 73.4243 0.918977 73.8772 1.85766Z" fill="black"/>
<path d="M80.2483 3.10743L79.3067 3.38061C79.1155 2.79421 78.7481 2.44229 78.2048 2.32481C77.8367 2.24524 77.4963 2.28058 77.1827 2.43082C76.8742 2.58201 76.6797 2.83963 76.5993 3.20369C76.5238 3.54607 76.5712 3.86061 76.742 4.14729C76.9177 4.43056 77.2434 4.72346 77.7183 5.02596C78.2737 5.37773 78.7414 5.78538 79.1211 6.24891C79.5012 6.70808 79.6147 7.28657 79.4605 7.98435C79.3089 8.66909 78.9585 9.18587 78.4087 9.53471C77.8632 9.88452 77.1811 9.97081 76.3618 9.79364C75.3629 9.57766 74.6791 8.96433 74.3105 7.95365L75.283 7.66664C75.5734 8.3244 76.0037 8.71488 76.5728 8.83802C77.077 8.94694 77.4946 8.90344 77.8274 8.70741C78.164 8.51231 78.38 8.20027 78.4748 7.7712C78.5591 7.38977 78.4753 7.04241 78.223 6.72907C77.9717 6.41136 77.6098 6.09916 77.1359 5.79231C76.6257 5.48229 76.2114 5.10429 75.8924 4.65832C75.5739 4.20808 75.4847 3.66874 75.6235 3.04031C75.7756 2.35121 76.1304 1.86712 76.6874 1.58804C77.2505 1.30557 77.8274 1.22828 78.4186 1.35617C79.2858 1.54374 79.8957 2.12749 80.2483 3.10743Z" fill="black"/>
<path d="M83.7734 11.7321L87.0925 3.88721L89.2699 4.78904C90.0308 5.10423 90.5647 5.53691 90.8716 6.08717C91.1801 6.63334 91.206 7.20927 90.9498 7.81491C90.7526 8.28144 90.487 8.61631 90.1531 8.81949C89.8253 9.02031 89.503 9.11037 89.1856 9.08976C89.4578 9.33213 89.6545 9.67098 89.7768 10.1063C89.9002 10.5375 89.8583 10.9986 89.6506 11.4897C89.3773 12.1362 88.9107 12.5949 88.2523 12.8654C87.5972 13.1377 86.9101 13.1248 86.1905 12.8268C85.4914 12.5374 85.0677 12.1261 84.9189 11.5932L84.698 12.1149L83.7734 11.7321ZM88.1614 8.16772C88.509 8.31164 88.8583 8.32412 89.2098 8.20528C89.5658 8.08808 89.8225 7.84331 89.9801 7.47093C90.1305 7.11491 90.1267 6.79104 89.968 6.49934C89.8115 6.20355 89.4743 5.94859 88.9575 5.73452L87.6297 5.18464L86.6352 7.5357L88.1614 8.16772ZM86.5724 11.9245C86.9817 12.094 87.4016 12.09 87.8313 11.9121C88.2616 11.7344 88.5641 11.4388 88.7388 11.0255C88.903 10.6367 88.8842 10.2562 88.682 9.88391C88.4815 9.5075 88.1724 9.23281 87.7547 9.05983L86.2533 8.43805L85.6925 9.76393C85.5178 10.1773 85.5128 10.5961 85.6787 11.0206C85.8484 11.4468 86.1459 11.7481 86.5724 11.9245Z" fill="black"/>
<path d="M93.923 15.773C94.7208 16.2511 95.5676 16.3619 96.4641 16.1054C97.3638 15.8512 98.0575 15.3257 98.5456 14.5289C99.0404 13.7207 99.198 12.8635 99.0189 11.9574C98.8421 11.0474 98.3489 10.35 97.5401 9.865C96.7192 9.37318 95.8663 9.26388 94.9809 9.5371C94.1015 9.8089 93.4144 10.3489 92.9197 11.1571C92.4315 11.954 92.2745 12.8013 92.4486 13.699C92.6222 14.5967 93.1136 15.288 93.923 15.773ZM99.4547 15.0736C98.8228 16.1057 97.9175 16.7795 96.739 17.0949C95.5665 17.4088 94.4547 17.2509 93.404 16.6211C92.3417 15.9845 91.6833 15.0817 91.4293 13.9127C91.1808 12.7423 91.3731 11.641 92.0051 10.6089C92.6436 9.56545 93.5445 8.88141 94.7081 8.55679C95.8773 8.23069 96.9936 8.386 98.0558 9.02266C99.1065 9.6524 99.7605 10.5579 100.018 11.739C100.281 12.9186 100.093 14.0301 99.4547 15.0736Z" fill="black"/>
<path d="M102.245 12.9702L102.859 12.2295L107.819 16.2569L107.205 16.9976L105.141 15.3216L100.302 21.1549L99.4912 20.4963L104.33 14.663L102.245 12.9702Z" fill="black"/>
<path d="M113.24 21.7072L106.987 27.5434L106.281 26.8029L108.737 24.5104L106.3 21.9548L103.844 24.2473L103.143 23.5115L106.151 20.7031C107.058 19.8567 108.098 19.4284 109.272 19.4182C110.449 19.405 111.489 19.8712 112.39 20.8166L113.24 21.7072ZM109.456 23.8391L111.829 21.6243C111.032 20.7885 110.214 20.3743 109.377 20.3816C108.539 20.3889 107.766 20.7024 107.056 21.3222L109.456 23.8391Z" fill="black"/>
<path d="M111.954 34.1173L114.573 25.9358L108.93 29.8429L108.375 29.0579L115.417 24.1816L115.992 24.9939L113.31 33.2838L119.046 29.3119L119.605 30.1024L112.563 34.9787L111.954 34.1173Z" fill="black"/>
<path d="M121.007 32.626L121.514 33.5426L113.972 37.6229L113.466 36.7062L121.007 32.626Z" fill="black"/>
<path d="M118.968 44.5272L118.481 45.3925C117.502 44.7784 116.805 43.9824 116.392 43.0043C115.919 41.8871 115.914 40.7832 116.376 39.6925C116.844 38.6041 117.651 37.8227 118.797 37.3482C119.942 36.8738 121.071 36.8535 122.183 37.2876C123.297 37.7256 124.09 38.5033 124.563 39.6205C124.976 40.5986 125.09 41.6382 124.905 42.7394L123.934 42.4778C124.062 41.5975 123.964 40.7727 123.638 40.0033C123.273 39.1399 122.661 38.5493 121.802 38.2316C120.944 37.9139 120.076 37.9366 119.199 38.2997C118.322 38.6628 117.697 39.2605 117.326 40.0928C116.953 40.925 116.948 41.7688 117.31 42.6241C117.641 43.4057 118.193 44.04 118.968 44.5272Z" fill="black"/>
<path d="M127.782 50.1267L119.461 52.2575L119.203 51.2718L122.472 50.4349L121.582 47.0334L118.314 47.8704L118.058 46.8911L122.062 45.8657C123.269 45.5568 124.389 45.6778 125.422 46.2288C126.46 46.7788 127.143 47.6829 127.473 48.9413L127.782 50.1267ZM123.429 50.1898L126.587 49.3811C126.296 48.2688 125.782 47.516 125.044 47.1229C124.307 46.7297 123.476 46.6354 122.553 46.8398L123.429 50.1898Z" fill="black"/>
<path d="M119.843 54.2242L128.365 53.1133L128.5 54.1293L121.005 55.1062L121.536 59.0977L120.509 59.2318L119.843 54.2242Z" fill="black"/>
<path d="M128.01 64.4902L127.519 63.6496C128.05 63.3269 128.309 62.8903 128.296 62.3402C128.287 61.9679 128.172 61.649 127.951 61.383C127.729 61.1219 127.43 60.9959 127.054 61.0047C126.699 61.0123 126.402 61.1322 126.161 61.3644C125.924 61.6005 125.713 61.9826 125.528 62.5103C125.314 63.1274 125.024 63.6736 124.658 64.1479C124.297 64.6222 123.756 64.8675 123.034 64.8838C122.326 64.9002 121.735 64.6854 121.263 64.2389C120.791 63.7974 120.545 63.1618 120.525 62.3321C120.502 61.3208 120.943 60.5189 121.848 59.9253L122.359 60.7926C121.783 61.2271 121.501 61.733 121.514 62.3097C121.526 62.8194 121.667 63.2114 121.939 63.4845C122.21 63.7625 122.567 63.8961 123.011 63.8862C123.405 63.877 123.726 63.7145 123.975 63.3978C124.227 63.0816 124.449 62.6591 124.638 62.1315C124.822 61.5683 125.096 61.0804 125.458 60.6683C125.825 60.2562 126.334 60.0425 126.984 60.0278C127.697 60.0114 128.256 60.2382 128.661 60.7081C129.071 61.1824 129.284 61.7188 129.298 62.3173C129.318 63.1956 128.889 63.92 128.01 64.4902Z" fill="black"/>
<path d="M63.2193 50.2493C62.9692 49.1508 64.2118 47.6254 64.8644 47C65.8501 47.9857 66.5298 49.2229 66.5298 50.2493C66.5298 51.0705 65.4195 52.3725 64.8644 52.9209C64.4203 52.4881 63.4695 51.3479 63.2193 50.2493Z" fill="white"/>
<path d="M66.0824 50.8777C66.72 50.2972 68.1902 50.5037 68.8455 50.6795C68.5533 51.6853 67.9816 52.5927 67.2998 52.9863C66.7544 53.3012 65.4813 53.0933 64.913 52.95C65.0371 52.5012 65.4448 51.4583 66.0824 50.8777Z" fill="white"/>
<path d="M66.8538 52.8592C67.5262 53.0735 67.9814 54.2 68.1249 54.7364C67.2925 54.9409 66.4155 54.907 65.8575 54.5848C65.4112 54.3271 65.0376 53.3398 64.9066 52.8783C65.2755 52.7826 66.1814 52.6448 66.8538 52.8592Z" fill="white"/>
<path d="M66.7204 53.8384C67.2325 54.4008 67.0503 55.6976 66.8952 56.2757C66.008 56.018 65.2076 55.5136 64.8604 54.9122C64.5827 54.4312 64.7661 53.3082 64.8925 52.8069C65.2884 52.9164 66.2083 53.276 66.7204 53.8384Z" fill="white"/>
<path d="M63.6246 50.8773C62.987 50.2967 61.5169 50.5032 60.8615 50.679C61.1537 51.6848 61.7255 52.5922 62.4072 52.9859C62.9526 53.3007 64.2257 53.0928 64.7941 52.9495C64.6699 52.5007 64.2623 51.4578 63.6246 50.8773Z" fill="white"/>
<path d="M62.8542 52.8582C62.1818 53.0726 61.7266 54.199 61.5831 54.7354C62.4155 54.9399 63.2925 54.906 63.8505 54.5839C64.2968 54.3261 64.6704 53.3388 64.8014 52.8773C64.4325 52.7817 63.5266 52.6439 62.8542 52.8582Z" fill="white"/>
<path d="M62.9984 53.8369C62.4862 54.3994 62.6684 55.6962 62.8235 56.2742C63.7107 56.0165 64.5111 55.5122 64.8583 54.9108C65.1361 54.4297 64.9527 53.3067 64.8263 52.8054C64.4304 52.9149 63.5105 53.2745 62.9984 53.8369Z" fill="white"/>
</svg>
