<svg width="125" height="40" viewBox="0 0 125 40" fill="none" xmlns="http://www.w3.org/2000/svg">
<g clip-path="url(#clip0_1370_1015)">
<mask id="mask0_1370_1015" style="mask-type:luminance" maskUnits="userSpaceOnUse" x="0" y="0" width="125" height="40">
<path d="M124.848 0H0V40H124.848V0Z" fill="white"/>
</mask>
<g mask="url(#mask0_1370_1015)">
<path d="M52.377 14.4166V2.09912H57.3496C58.2985 2.09912 59.0862 2.24779 59.7125 2.54513C60.3388 2.83615 60.8069 3.22838 61.117 3.72185C61.4269 4.2153 61.5819 4.76254 61.5819 5.36355C61.5819 6.05946 61.3858 6.65414 60.9936 7.14759C60.6076 7.64106 60.0635 7.98901 59.3613 8.19146C59.8231 8.28636 60.2376 8.46033 60.6045 8.71339C60.9714 8.96644 61.2593 9.28592 61.468 9.67184C61.6832 10.0578 61.7907 10.5006 61.7907 11.0004C61.7907 11.3926 61.7211 11.788 61.5819 12.1866C61.4491 12.5851 61.215 12.9553 60.8796 13.2969C60.5507 13.6322 60.0984 13.9042 59.5227 14.113C58.9533 14.3154 58.2353 14.4166 57.3685 14.4166H52.377ZM54.6165 12.4617H57.3116C58.0264 12.4617 58.5484 12.3194 58.8773 12.0347C59.2127 11.7437 59.3804 11.3547 59.3804 10.8675C59.3804 10.3804 59.2094 9.99132 58.8679 9.70031C58.5263 9.40296 58.0075 9.2543 57.3116 9.2543H54.6165V12.4617ZM54.6165 4.035V7.29944H57.2547C57.9189 7.29944 58.4218 7.15392 58.7635 6.86292C59.1114 6.56557 59.2855 6.16067 59.2855 5.64824C59.2855 5.16111 59.1147 4.77203 58.773 4.48101C58.4377 4.18368 57.9379 4.035 57.2736 4.035H54.6165Z" fill="black"/>
<path d="M64.6836 14.4167V5.17388H66.9231V14.4167H64.6836ZM66.3727 10.3742C66.3727 9.16584 66.5087 8.16626 66.7808 7.37546C67.0528 6.58466 67.4166 5.99946 67.8721 5.61989C68.3339 5.23397 68.8464 5.04102 69.4094 5.04102C69.5612 5.04102 69.7036 5.05051 69.8364 5.06949C69.9756 5.08846 70.1116 5.11693 70.2444 5.15489L70.2065 7.39445C70.042 7.35648 69.8649 7.32485 69.6751 7.29955C69.4853 7.27424 69.3145 7.26159 69.1626 7.26159C68.6692 7.26159 68.2547 7.38179 67.9195 7.62219C67.5905 7.85626 67.3407 8.20423 67.1698 8.66605C67.0053 9.12788 66.9231 9.69726 66.9231 10.3742H66.3727Z" fill="black"/>
<path d="M73.444 3.52246C73.0076 3.52246 72.6659 3.40858 72.4192 3.18083C72.1787 2.94676 72.0586 2.62411 72.0586 2.21289C72.0586 1.81432 72.1787 1.49801 72.4192 1.26392C72.6659 1.02353 73.0076 0.90332 73.444 0.90332C73.8742 0.90332 74.2127 1.02353 74.4594 1.26392C74.7061 1.49801 74.8295 1.81432 74.8295 2.21289C74.8295 2.62411 74.7061 2.94676 74.4594 3.18083C74.2127 3.40858 73.8742 3.52246 73.444 3.52246ZM72.3243 14.4166V5.17366H74.5638V14.4166H72.3243Z" fill="black"/>
<path d="M81.9105 19.1803C80.8539 19.1803 79.9493 19.0348 79.1965 18.7438C78.4499 18.4528 77.8774 18.07 77.4788 17.5956C77.0802 17.1274 76.8809 16.6181 76.8809 16.0677C76.8809 15.4162 77.1182 14.91 77.5927 14.5494C78.0671 14.1951 78.6651 14.018 79.3863 14.018L81.0184 14.6253C80.3984 14.6253 79.9208 14.7423 79.5856 14.9764C79.2502 15.2105 79.0825 15.5363 79.0825 15.9539C79.0825 16.3904 79.3325 16.7384 79.8322 16.9977C80.3384 17.2634 81.0311 17.3963 81.9105 17.3963C82.5494 17.3963 83.103 17.3014 83.5711 17.1116C84.0393 16.9217 84.3999 16.6751 84.6529 16.3714C84.9123 16.0677 85.042 15.7451 85.042 15.4034C85.042 15.1757 84.9662 14.9891 84.8143 14.8436C84.6624 14.6981 84.4283 14.6253 84.1121 14.6253H81.0184C80.3984 14.6253 79.8322 14.5272 79.3199 14.3311C78.8137 14.1287 78.4088 13.8598 78.1052 13.5245C77.8077 13.1828 77.6591 12.8033 77.6591 12.3857C77.6591 11.9999 77.7666 11.6677 77.9818 11.3894C78.1968 11.1047 78.4879 10.8864 78.8548 10.7346C79.2281 10.5827 79.6456 10.5068 80.1075 10.5068L80.6768 11.247C80.4933 11.247 80.3162 11.285 80.1454 11.3609C79.981 11.4305 79.845 11.5349 79.7373 11.674C79.6298 11.8132 79.576 11.9872 79.576 12.1959C79.576 12.449 79.6836 12.6546 79.8987 12.8128C80.1138 12.971 80.487 13.05 81.0184 13.05H84.1121C85.0927 13.05 85.8613 13.2304 86.418 13.591C86.9811 13.9516 87.2626 14.5051 87.2626 15.2517C87.2626 15.9159 87.0443 16.5454 86.6079 17.14C86.1713 17.741 85.5514 18.2313 84.7479 18.611C83.9508 18.9906 83.005 19.1803 81.9105 19.1803ZM82.0243 11.5697C81.2968 11.5697 80.6293 11.4336 80.022 11.1616C79.4211 10.8832 78.9402 10.4973 78.5796 10.0039C78.219 9.51041 78.0388 8.93154 78.0388 8.26727C78.0388 7.59034 78.219 7.00199 78.5796 6.5022C78.9402 6.00241 79.4211 5.61967 80.022 5.35396C80.6293 5.08193 81.2968 4.9459 82.0243 4.9459C82.733 4.9459 83.3877 5.08193 83.9887 5.35396C84.5897 5.61967 85.0737 6.00241 85.4406 6.5022C85.8075 7.00199 85.991 7.59034 85.991 8.26727C85.991 8.93154 85.8075 9.51041 85.4406 10.0039C85.0737 10.4973 84.5897 10.8832 83.9887 11.1616C83.3877 11.4336 82.733 11.5697 82.0243 11.5697ZM82.0434 10.0134C82.6253 10.0134 83.0619 9.84571 83.353 9.51041C83.6439 9.17511 83.7894 8.76073 83.7894 8.26727C83.7894 7.73585 83.6407 7.30882 83.3434 6.98617C83.0523 6.66353 82.6127 6.5022 82.0243 6.5022C81.455 6.5022 81.0184 6.66353 80.7148 6.98617C80.4111 7.30882 80.2593 7.73585 80.2593 8.26727C80.2593 8.76073 80.4111 9.17511 80.7148 9.51041C81.0248 9.84571 81.4676 10.0134 82.0434 10.0134ZM85.2888 6.42628L84.2639 5.83793C84.2639 5.28753 84.3904 4.80673 84.6435 4.3955C84.9029 3.97796 85.2445 3.65532 85.6683 3.42756C86.0985 3.19982 86.5731 3.08594 87.0919 3.08594L86.9779 5.23059C86.4275 5.23059 86.0068 5.32865 85.7159 5.52477C85.4311 5.71456 85.2888 6.01506 85.2888 6.42628Z" fill="black"/>
<path d="M95.7283 14.4172V9.02711C95.7283 8.34386 95.5638 7.82826 95.2349 7.48031C94.9059 7.13235 94.4757 6.95838 93.9442 6.95838C93.4951 6.95838 93.0964 7.08174 92.7486 7.32846C92.4069 7.5752 92.138 7.94845 91.9419 8.44825C91.7458 8.9417 91.6477 9.55852 91.6477 10.2987H90.9076C90.9076 9.10302 91.0562 8.10978 91.3535 7.31897C91.6509 6.52184 92.0716 5.92717 92.6157 5.53494C93.1597 5.14269 93.7987 4.94657 94.5326 4.94657C95.2917 4.94657 95.9244 5.11738 96.4305 5.45901C96.943 5.79432 97.3257 6.26879 97.5787 6.88245C97.8381 7.49611 97.9678 8.21101 97.9678 9.02711V14.4172H95.7283ZM89.4082 14.4172V1.39746H91.6477V14.4172H89.4082Z" fill="black"/>
<path d="M104.346 14.6826C103.802 14.6826 103.302 14.5814 102.847 14.3789C102.397 14.1765 102.037 13.8664 101.765 13.449C101.499 13.0314 101.366 12.5 101.366 11.8547V2.76367H103.606V11.7788C103.606 12.538 103.966 12.9175 104.688 12.9175C104.909 12.9175 105.13 12.8923 105.352 12.8416C105.573 12.7909 105.826 12.715 106.111 12.6138L106.434 14.1891C106.079 14.3283 105.735 14.4453 105.399 14.5403C105.064 14.6352 104.713 14.6826 104.346 14.6826ZM100.076 6.69237V5.21198H106.111V6.69237H100.076Z" fill="black"/>
<path d="M112.157 14.6826C111.372 14.6826 110.654 14.4802 110.002 14.0753C109.351 13.6704 108.829 13.1042 108.437 12.3767C108.044 11.6428 107.848 10.7856 107.848 9.80497C107.848 8.79275 108.041 7.92287 108.427 7.19533C108.819 6.46779 109.341 5.91106 109.993 5.52516C110.645 5.13925 111.366 4.94629 112.157 4.94629C112.89 4.94629 113.523 5.09496 114.054 5.3923C114.592 5.68332 115.022 6.08188 115.345 6.588C115.674 7.08778 115.895 7.654 116.009 8.28664C116.123 8.91928 116.129 9.5709 116.028 10.2415H109.632V9.02682H114.443L114.007 9.31151C114.026 9.01417 114.01 8.71367 113.96 8.41C113.915 8.10634 113.827 7.82797 113.694 7.57492C113.561 7.32185 113.371 7.11942 113.124 6.96757C112.884 6.80942 112.574 6.73034 112.194 6.73034C111.739 6.73034 111.353 6.84422 111.037 7.07196C110.72 7.29972 110.48 7.60971 110.316 8.00195C110.151 8.39418 110.069 8.83703 110.069 9.3305V10.2225C110.069 10.7413 110.145 11.2 110.297 11.5985C110.455 11.9971 110.686 12.3103 110.989 12.538C111.299 12.7658 111.688 12.8796 112.157 12.8796C112.593 12.8796 112.96 12.7784 113.257 12.576C113.555 12.3735 113.744 12.0698 113.827 11.6649H116.085C115.99 12.2596 115.766 12.7847 115.411 13.2402C115.063 13.6894 114.611 14.0437 114.054 14.3031C113.498 14.5561 112.865 14.6826 112.157 14.6826Z" fill="black"/>
<path d="M118.786 14.4167V5.17388H121.025V14.4167H118.786ZM120.475 10.3742C120.475 9.16584 120.611 8.16626 120.883 7.37546C121.155 6.58466 121.518 5.99946 121.974 5.61989C122.436 5.23397 122.948 5.04102 123.512 5.04102C123.663 5.04102 123.805 5.05051 123.939 5.06949C124.078 5.08846 124.214 5.11693 124.347 5.15489L124.308 7.39445C124.143 7.35648 123.966 7.32485 123.777 7.29955C123.587 7.27424 123.416 7.26159 123.265 7.26159C122.771 7.26159 122.357 7.38179 122.021 7.62219C121.693 7.85626 121.443 8.20423 121.272 8.66605C121.107 9.12788 121.025 9.69726 121.025 10.3742H120.475Z" fill="black"/>
<path d="M6.02084 18.3847C2.24961 13.6473 3.03768 6.75359 7.78104 2.98709C12.5244 -0.77941 19.4269 0.00766134 23.1981 4.74507L32.7677 16.7666C36.539 21.504 35.7509 28.3977 31.0076 32.1642C26.2642 35.9307 19.3618 35.1436 15.5905 30.4062L6.02084 18.3847Z" fill="#474747"/>
<path d="M24.7338 5.62116C28.0443 0.500965 34.8307 -0.934749 39.8917 2.41438C44.9527 5.7635 46.3718 12.6292 43.0615 17.7494L34.6611 30.7422C31.3506 35.8625 24.5642 37.2982 19.5032 33.949C14.4421 30.6 13.023 23.7341 16.3334 18.614L24.7338 5.62116Z" fill="black"/>
<path d="M86.9647 31.5239C87.0457 31.2036 87.5007 31.2036 87.5817 31.5239C87.6303 31.7162 87.841 31.8176 88.0217 31.7357C88.3225 31.5993 88.6063 31.9551 88.4063 32.2181C88.2863 32.376 88.3384 32.604 88.515 32.6942C88.8093 32.8444 88.708 33.288 88.3777 33.2957C88.1794 33.3003 88.0336 33.4832 88.0733 33.6775C88.1394 34.0013 87.7292 34.1987 87.5173 33.9453C87.3902 33.793 87.1562 33.793 87.0291 33.9453C86.8172 34.1987 86.407 34.0013 86.4731 33.6775C86.5128 33.4832 86.367 33.3003 86.1687 33.2957C85.8384 33.288 85.7371 32.8444 86.0314 32.6942C86.208 32.604 86.2601 32.376 86.1401 32.2181C85.9401 31.9551 86.2239 31.5993 86.5247 31.7357C86.7055 31.8176 86.9161 31.7162 86.9647 31.5239Z" fill="black"/>
<path d="M52.3548 33.1926H53.6736L56.5827 21.5563H55.2639L55.4966 20.606H60.8881C62.3751 20.606 63.5127 21.0197 64.3015 21.8472C65.0902 22.6747 65.4845 23.7995 65.4845 25.2217C65.4845 25.7389 65.4263 26.3207 65.31 26.9672C65.1936 27.6007 65.0126 28.2472 64.7669 28.9066C64.5212 29.566 64.1981 30.2124 63.7972 30.846C63.4094 31.4795 62.9309 32.042 62.3621 32.5332C61.7932 33.0117 61.1338 33.3995 60.3839 33.6969C59.6469 33.9942 58.8066 34.1429 57.8627 34.1429H52.1221L52.3548 33.1926ZM55.9039 33.115H57.6106C58.826 33.115 59.8473 32.7142 60.6748 31.9126C61.5152 31.0981 62.11 29.9862 62.4591 28.5769C62.6272 27.8657 62.7629 27.2839 62.8663 26.8314C62.9827 26.3789 63.0732 26.0039 63.1378 25.7066C63.2024 25.3963 63.2412 25.1377 63.2542 24.9308C63.28 24.7239 63.293 24.5235 63.293 24.3296C63.293 23.4633 63.0603 22.7975 62.5948 22.332C62.1294 21.8666 61.4312 21.6338 60.5003 21.6338H58.7742L55.9039 33.115Z" fill="black"/>
<path d="M68.4651 34.3755C67.7409 34.3755 67.2173 34.1234 66.8942 33.6191C66.5839 33.1149 66.4287 32.3973 66.4287 31.4664C66.4287 30.6648 66.5451 29.8179 66.7778 28.9258C67.0105 28.0207 67.3402 27.1933 67.7669 26.4434C68.2064 25.6806 68.7366 25.0534 69.3572 24.5622C69.9906 24.0709 70.7018 23.8252 71.4905 23.8252C72.0594 23.8252 72.5248 23.9674 72.8869 24.2519C73.2488 24.5363 73.5009 24.9888 73.6432 25.6094H73.8372L74.8263 24.0579H75.8735L73.6237 32.921L73.9729 33.0761L75.9898 30.8652L76.5717 31.2531L75.3111 32.8628C74.8585 33.4316 74.4706 33.826 74.1475 34.0458C73.8372 34.2656 73.5139 34.3755 73.1777 34.3755C72.6864 34.3755 72.3373 34.2462 72.1305 33.9876C71.9366 33.7291 71.8395 33.4316 71.8395 33.0955C71.8395 32.9274 71.8525 32.7464 71.8784 32.5525C71.9172 32.3585 71.956 32.1904 71.9948 32.0482L72.2855 30.8846L72.0916 30.8264C71.859 31.3306 71.6197 31.8025 71.3742 32.2422C71.1285 32.6688 70.8569 33.0437 70.5596 33.367C70.2751 33.6773 69.9584 33.923 69.6093 34.104C69.2602 34.285 68.8788 34.3755 68.4651 34.3755ZM69.2796 32.9016C69.6415 32.9016 70.0166 32.7076 70.4045 32.3197C70.7923 31.9189 71.1543 31.4406 71.4905 30.8846C71.8396 30.3157 72.1434 29.721 72.402 29.1003C72.6606 28.4797 72.8481 27.9431 72.9645 27.4907L73.0614 27.1028C73.2166 26.4822 73.2166 25.9779 73.0614 25.59C72.9063 25.2022 72.57 25.0082 72.0529 25.0082C71.4582 25.0082 70.8957 25.2991 70.3657 25.881C69.8485 26.4498 69.4282 27.3225 69.1051 28.4991C69.0403 28.7189 68.9757 28.971 68.9111 29.2555C68.8594 29.527 68.8076 29.805 68.756 30.0894C68.7172 30.3739 68.6784 30.6454 68.6396 30.904C68.6137 31.1625 68.6008 31.3888 68.6008 31.5828C68.6008 31.9965 68.646 32.3197 68.7366 32.5525C68.827 32.7852 69.0081 32.9016 69.2796 32.9016Z" fill="black"/>
<path d="M76.4683 38.2544C75.9381 38.2544 75.518 38.1316 75.2077 37.8859C74.8844 37.6402 74.7227 37.3171 74.7227 36.9162C74.7227 36.5542 74.8391 36.2375 75.0718 35.9659C75.3046 35.6944 75.6214 35.5587 76.0223 35.5587C76.3454 35.5587 76.5975 35.6492 76.7786 35.8302C76.9596 36.0112 77.05 36.2439 77.05 36.5284C77.05 36.7093 77.0113 36.8839 76.9338 37.052C76.8562 37.233 76.7592 37.3687 76.6429 37.4593L76.7786 37.5756C77.2053 37.3947 77.6124 37.0844 78.0003 36.6447C78.4012 36.2181 78.8214 35.5781 79.261 34.7247L78.2912 24.989H77.4768L77.7095 24.0581H81.7629L81.5495 24.989H80.4246L80.8707 31.9126H81.0453L84.8853 24.989H83.7992L84.032 24.0581H87.1156L86.8635 24.989H86.107L79.9203 35.4423C79.2997 36.4896 78.6986 37.2201 78.1168 37.6338C77.535 38.0475 76.9854 38.2544 76.4683 38.2544Z" fill="black"/>
</g>
</g>
<defs>
<clipPath id="clip0_1370_1015">
<rect width="125" height="40" fill="white"/>
</clipPath>
</defs>
</svg>
