<svg width="146" height="40" viewBox="0 0 146 40" fill="none" xmlns="http://www.w3.org/2000/svg">
<path d="M0 31.5448H5.91382V22.2287C5.91382 20.3579 6.9798 19.3375 8.40727 19.3375C9.80694 19.3375 10.7709 20.3579 10.7709 22.2287V31.5448H16.6848V20.2918C16.6848 16.3801 14.5343 13.9613 10.9563 13.9613C8.55558 13.9613 7.0076 15.2652 5.91382 16.6919V8.33008H0V31.5448Z" fill="black"/>
<path d="M26.6647 28.1388C25.4504 28.1388 24.5791 27.4396 24.5791 26.2586V26.2019C24.5791 24.9358 25.5709 24.0666 27.2857 24.0666C28.157 24.0666 29.0005 24.2555 29.5938 24.5106V25.3043C29.5938 27.0239 28.3795 28.1388 26.6647 28.1388ZM24.5512 31.9182C26.7573 31.9182 28.3424 31.0584 29.4918 29.7545V31.5403H35.35V21.6478C35.35 19.2384 34.8217 17.4527 33.5425 16.1771C32.1984 14.8071 30.1499 14.0796 27.1281 14.0796C24.2361 14.0796 22.2154 14.6276 20.3152 15.4213L21.5295 19.6825C23.0218 19.0778 24.3937 18.7282 26.1641 18.7282C28.4351 18.7282 29.5289 19.7392 29.5289 21.5249V21.8084C28.5649 21.4588 27.0447 21.1376 25.4875 21.1376C21.5295 21.1376 18.8877 22.9894 18.8877 26.5515V26.6082C18.8877 30.0474 21.3441 31.9182 24.5512 31.9182Z" fill="black"/>
<path d="M45.0512 31.9248C49.1575 31.9248 51.929 29.9501 51.929 26.1707V26.1046C51.929 22.7693 49.2873 21.5977 45.9596 20.6434C44.1892 20.1048 43.2159 19.7836 43.2159 19.1127V19.0466C43.2159 18.5742 43.6794 18.2246 44.5877 18.2246C45.9225 18.2246 47.8227 18.8293 49.5654 19.8119L51.5954 15.9948C49.6673 14.7192 47.109 13.9917 44.6526 13.9917C40.7595 13.9917 37.8953 16.0326 37.8953 19.6891V19.7458C37.8953 23.2134 40.5463 24.3566 43.874 25.2542C45.6445 25.7644 46.5806 26.0384 46.5806 26.7093V26.7754C46.5806 27.3801 46.1172 27.7014 45.0883 27.7014C43.3457 27.7014 41.223 27.0305 39.295 25.7266L37.0889 29.3832C39.4247 31.1028 42.2241 31.9248 45.0512 31.9248Z" fill="black"/>
<path d="M54.3467 31.5448H60.2605V22.2287C60.2605 20.3579 61.3172 19.3375 62.7539 19.3375C64.1536 19.3375 65.1176 20.3579 65.1176 22.2287V31.5448H71.0314V20.2918C71.0314 16.3801 68.881 13.9613 65.303 13.9613C62.9023 13.9613 61.3543 15.2652 60.2605 16.6919V8.33008H54.3467V31.5448Z" fill="black"/>
<path d="M74.2061 31.5448H80.1199V8.33008H74.2061V31.5448Z" fill="black"/>
<path d="M83.5321 31.5448H89.4459V14.3393H83.5321V31.5448ZM83.4023 12.7897H89.5664V8.33008H83.4023V12.7897Z" fill="black"/>
<path d="M99.4296 31.9248C103.536 31.9248 106.307 29.9501 106.307 26.1707V26.1046C106.307 22.7693 103.656 21.5977 100.329 20.6434C98.5583 20.1048 97.5943 19.7836 97.5943 19.1127V19.0466C97.5943 18.5742 98.067 18.2246 98.9662 18.2246C100.301 18.2246 102.201 18.8293 103.944 19.8119L105.964 15.9948C104.036 14.7192 101.478 13.9917 99.0218 13.9917C95.1287 13.9917 92.2737 16.0326 92.2737 19.6891V19.7458C92.2737 23.2134 94.9155 24.3566 98.2431 25.2542C100.014 25.7644 100.95 26.0384 100.95 26.7093V26.7754C100.95 27.3801 100.486 27.7014 99.4574 27.7014C97.7148 27.7014 95.5921 27.0305 93.6641 25.7266L91.458 29.3832C93.7939 31.1028 96.6025 31.9248 99.4296 31.9248Z" fill="black"/>
<path d="M115.114 31.8904C116.764 31.8904 118.164 31.5124 119.221 30.9077V26.1646C118.507 26.5142 117.756 26.741 116.978 26.741C115.884 26.741 115.365 26.2308 115.365 25.0214V19.2011H119.286V14.3352H115.365V9.97949H109.451V14.3352H107.458V19.2011H109.451V26.2024C109.451 30.303 111.564 31.8904 115.114 31.8904Z" fill="black"/>
<path fill-rule="evenodd" clip-rule="evenodd" d="M127.008 0V39.6814H146.001V0H127.008ZM140.235 5.77318H132.885V33.8527H140.235V5.77318Z" fill="black"/>
</svg>
