<svg width="180" height="34" viewBox="0 0 180 34" fill="none" xmlns="http://www.w3.org/2000/svg">
<path d="M38.1218 21.2034V11.7272C38.1218 11.082 38.115 10.4772 38.1012 9.91263C38.0874 9.36153 38.0667 8.8642 38.0391 8.42063C38.0115 7.97708 37.9702 7.62088 37.915 7.35206C38.1218 7.33862 38.3839 7.32516 38.701 7.31172C39.0319 7.29828 39.3904 7.29156 39.7765 7.29156C40.1625 7.27812 40.5763 7.26468 41.0175 7.25124C41.445 7.2378 41.8792 7.23108 42.3205 7.23108C42.7479 7.23108 43.1685 7.22436 43.5822 7.21091C43.982 7.21091 44.3544 7.21091 44.699 7.21091C45.3471 7.21091 46.0572 7.25796 46.8294 7.35206C47.5878 7.44614 48.36 7.62088 49.1458 7.87626C49.918 8.14509 50.6626 8.508 51.3796 8.96501C52.1104 9.43546 52.7516 10.0403 53.3031 10.7796C53.8684 11.5323 54.3166 12.4396 54.6475 13.5014C54.9922 14.5633 55.1646 15.82 55.1646 17.2718C55.1646 18.6428 54.9991 19.8525 54.6682 20.901C54.3373 21.936 53.896 22.8364 53.3445 23.6026C52.793 24.3688 52.1517 25.0072 51.4209 25.5181C50.6902 26.0288 49.9318 26.4387 49.1458 26.748C48.3462 27.0705 47.5326 27.2923 46.7053 27.4132C45.8918 27.5476 45.1196 27.6148 44.3888 27.6148C44.1543 27.6148 43.8786 27.6081 43.5615 27.5947C43.2444 27.5947 42.9134 27.5947 42.5686 27.5947C42.224 27.5812 41.8724 27.5745 41.5138 27.5745C41.1416 27.5611 40.783 27.5476 40.4384 27.5342C39.6248 27.5208 38.7837 27.5006 37.915 27.4737C37.9702 27.1915 38.0047 26.8353 38.0185 26.4051C38.0461 25.975 38.0667 25.4911 38.0805 24.9535C38.0943 24.4159 38.1012 23.8244 38.1012 23.1793C38.115 22.5475 38.1218 21.8888 38.1218 21.2034ZM42.155 10.3764V24.2881C42.417 24.3151 42.7755 24.3487 43.2306 24.389C43.6718 24.4159 44.1751 24.4293 44.7404 24.4293C45.5264 24.4293 46.2985 24.3015 47.0569 24.0462C47.8153 23.8042 48.484 23.4078 49.0632 22.8566C49.6561 22.319 50.1318 21.6133 50.4902 20.7397C50.8488 19.866 51.028 18.8041 51.028 17.554C51.028 16.183 50.8764 15.0338 50.573 14.1063C50.2558 13.1788 49.8284 12.4329 49.2907 11.8683C48.739 11.3038 48.0772 10.9006 47.305 10.6586C46.5468 10.4167 45.7056 10.2957 44.7818 10.2957C44.5887 10.2957 44.375 10.3024 44.1406 10.3159C43.8924 10.3159 43.6442 10.3226 43.396 10.336C43.1616 10.336 42.934 10.3428 42.7135 10.3562C42.4928 10.3562 42.3067 10.3629 42.155 10.3764ZM71.0697 21.2638H61.9279C62.0245 22.4601 62.3691 23.3271 62.962 23.8647C63.5688 24.389 64.403 24.6511 65.4646 24.6511C66.4023 24.6511 67.3054 24.5436 68.1741 24.3284C69.0566 24.1268 69.946 23.7706 70.8422 23.2599L71.1318 26.4454C70.6216 26.6874 70.1252 26.8958 69.6427 27.0705C69.16 27.2453 68.6706 27.3864 68.1741 27.4939C67.6916 27.6148 67.1952 27.6955 66.6849 27.7358C66.1748 27.7896 65.6509 27.8164 65.113 27.8164C64.1755 27.8164 63.2792 27.6619 62.4243 27.3528C61.5694 27.0436 60.8179 26.5866 60.1699 25.9818C59.5218 25.3903 59.0047 24.6444 58.6186 23.7438C58.2464 22.8566 58.0602 21.8283 58.0602 20.6589C58.0602 19.5165 58.2188 18.4815 58.536 17.554C58.8668 16.6266 59.3356 15.8402 59.9424 15.1951C60.5629 14.5364 61.3074 14.0257 62.176 13.6628C63.031 13.3132 64.01 13.1385 65.113 13.1385C65.899 13.1385 66.5954 13.2326 67.202 13.4208C67.7949 13.609 68.312 13.8644 68.7532 14.187C69.1945 14.523 69.5599 14.9128 69.8494 15.3564C70.1528 15.7999 70.3872 16.2838 70.5526 16.808C70.7319 17.3188 70.856 17.8632 70.925 18.4412C71.0077 19.0057 71.0491 19.5703 71.0491 20.1348V20.3968C71.0491 20.4909 71.0491 20.5917 71.0491 20.6992C71.0629 20.8203 71.0697 20.9278 71.0697 21.0219V21.2638ZM64.9063 16.0419C64.0927 16.0419 63.4447 16.2502 62.962 16.6669C62.4932 17.097 62.176 17.8027 62.0107 18.7839H67.4503C67.4503 17.8161 67.2366 17.1171 66.8091 16.687C66.3817 16.257 65.7474 16.0419 64.9063 16.0419ZM84.0586 17.4129V16.5056C83.8656 16.4518 83.583 16.3914 83.2106 16.3242C82.8246 16.257 82.3351 16.2234 81.7422 16.2234C80.9976 16.2234 80.3702 16.3779 79.86 16.687C79.3636 17.0096 78.9706 17.4331 78.6811 17.9572C78.3777 18.4815 78.164 19.0729 78.0399 19.7316C77.9158 20.4036 77.8538 21.1026 77.8538 21.8283C77.8538 22.2316 77.8951 22.5945 77.9779 22.9171C78.0468 23.2532 78.157 23.5422 78.3087 23.7841C78.4466 24.026 78.6052 24.2074 78.7845 24.3284C78.9775 24.4629 79.1844 24.5301 79.4049 24.5301C79.7497 24.5301 80.1082 24.3957 80.4805 24.1268C80.8527 23.8446 81.2044 23.4817 81.5353 23.038C81.88 22.5945 82.211 22.104 82.528 21.5662C82.8314 21.0152 83.1003 20.4775 83.3347 19.9533C83.5554 19.429 83.7346 18.9385 83.8725 18.4815C83.9966 18.0379 84.0586 17.6817 84.0586 17.4129ZM89.0226 27.4737H85.2789C85.1686 27.3124 85.0652 27.0571 84.9687 26.7075C84.8721 26.3581 84.7894 25.9885 84.7204 25.5987C84.6516 25.1954 84.5964 24.7989 84.555 24.4092C84.5137 24.0193 84.4929 23.6967 84.4929 23.4414V22.655C84.1896 23.2465 83.8311 23.8513 83.4175 24.4696C82.99 25.0744 82.5074 25.6256 81.9697 26.1229C81.4318 26.6202 80.8459 27.0235 80.2116 27.3326C79.5636 27.6552 78.8672 27.8164 78.1226 27.8164C77.5297 27.8164 76.9782 27.6888 76.468 27.4334C75.944 27.178 75.489 26.795 75.1029 26.2842C74.7307 25.7869 74.4342 25.1618 74.2136 24.4092C73.9929 23.6564 73.8826 22.7961 73.8826 21.8283C73.8826 20.7261 74.0481 19.6576 74.379 18.6226C74.7099 17.5742 75.2202 16.6467 75.9096 15.8402C76.599 15.0204 77.4746 14.3684 78.5362 13.8846C79.598 13.3872 80.8597 13.1385 82.3213 13.1385C83.3554 13.1385 84.3758 13.199 85.3824 13.32C86.3889 13.4275 87.299 13.5754 88.1125 13.7636V20.1751C88.1125 21.909 88.1952 23.3674 88.3606 24.5503C88.5399 25.7331 88.7605 26.7075 89.0226 27.4737ZM96.7372 5.4165V20.9211C96.7372 21.3646 96.7442 21.8888 96.7579 22.4937C96.7717 23.0851 96.7924 23.69 96.82 24.3084C96.8337 24.9266 96.8613 25.5113 96.9027 26.0624C96.9303 26.6269 96.9717 27.0974 97.0268 27.4737H92.7868V11.9086C92.7868 10.5645 92.7592 9.34809 92.704 8.25934C92.6628 7.17059 92.5938 6.22298 92.4973 5.4165H96.7372ZM112.084 14.2474L111.526 17.5339C111.264 17.3995 110.96 17.2584 110.615 17.1104C110.285 16.9491 109.919 16.808 109.519 16.687C109.119 16.5526 108.699 16.4451 108.258 16.3645C107.803 16.2704 107.334 16.2234 106.851 16.2234C106.438 16.2234 106.086 16.2637 105.796 16.3443C105.521 16.4115 105.3 16.4989 105.134 16.6064C104.969 16.7274 104.845 16.855 104.762 16.9894C104.693 17.1374 104.659 17.2785 104.659 17.4129C104.659 17.5742 104.686 17.722 104.742 17.8564C104.81 17.9774 104.942 18.0984 105.134 18.2193C105.328 18.327 105.61 18.4278 105.983 18.5218C106.355 18.6294 106.858 18.7436 107.492 18.8646C108.223 19.0124 108.913 19.1938 109.561 19.4089C110.209 19.624 110.781 19.8996 111.277 20.2356C111.76 20.5716 112.146 20.9749 112.436 21.4453C112.711 21.9158 112.849 22.4803 112.849 23.139C112.849 23.7975 112.691 24.4092 112.374 24.9736C112.056 25.5517 111.622 26.049 111.071 26.4656C110.519 26.8958 109.864 27.2251 109.106 27.4536C108.361 27.6955 107.561 27.8164 106.706 27.8164C106.072 27.8164 105.459 27.7761 104.866 27.6955C104.287 27.6148 103.735 27.5006 103.211 27.3528C102.687 27.2049 102.218 27.0369 101.805 26.8488C101.377 26.6471 101.005 26.4387 100.688 26.2237L101.474 22.8768C101.818 23.1457 102.211 23.3943 102.653 23.6228C103.108 23.8513 103.57 24.0529 104.038 24.2276C104.507 24.389 104.976 24.51 105.445 24.5906C105.914 24.6847 106.355 24.7317 106.769 24.7317C107.099 24.7317 107.403 24.6981 107.678 24.6309C107.968 24.5637 108.209 24.4696 108.402 24.3487C108.596 24.2276 108.747 24.0932 108.857 23.9454C108.982 23.7975 109.044 23.643 109.044 23.4817C109.044 23.2801 108.995 23.0918 108.899 22.9171C108.802 22.7424 108.63 22.5744 108.382 22.4131C108.134 22.2518 107.796 22.104 107.368 21.9696C106.941 21.8216 106.389 21.6738 105.714 21.5259C104.707 21.3243 103.887 21.0824 103.252 20.8002C102.618 20.5312 102.122 20.2221 101.763 19.8727C101.405 19.5367 101.163 19.1737 101.039 18.7839C100.901 18.3942 100.832 17.9841 100.832 17.554C100.832 17.3256 100.874 17.0566 100.957 16.7475C101.039 16.4518 101.17 16.136 101.35 15.7999C101.529 15.4773 101.777 15.1548 102.094 14.8322C102.398 14.523 102.777 14.2407 103.232 13.9854C103.687 13.73 104.225 13.5284 104.845 13.3804C105.465 13.2192 106.182 13.1385 106.996 13.1385C107.561 13.1385 108.099 13.1721 108.609 13.2393C109.106 13.3065 109.568 13.3872 109.995 13.4812C110.409 13.5889 110.795 13.7098 111.153 13.8442C111.498 13.9786 111.808 14.113 112.084 14.2474ZM119.778 19.4895V27.4737H115.828V11.9086C115.828 10.4167 115.814 9.11286 115.786 7.99724C115.772 6.88161 115.717 6.02136 115.621 5.4165H119.778V15.7596C120.137 15.3295 120.529 14.9532 120.957 14.6305C121.385 14.2945 121.832 14.019 122.301 13.8039C122.784 13.5754 123.273 13.4073 123.77 13.2998C124.28 13.1923 124.79 13.1385 125.3 13.1385C128.168 13.1385 129.602 15.0472 129.602 18.8646V27.4737H125.652V19.8928C125.652 19.2207 125.611 18.6697 125.528 18.2395C125.445 17.8094 125.315 17.4667 125.135 17.2113C124.956 16.9558 124.722 16.7744 124.431 16.6669C124.155 16.5728 123.831 16.5258 123.459 16.5258C123.06 16.5258 122.666 16.6131 122.281 16.7878C121.895 16.9626 121.536 17.1912 121.205 17.4734C120.875 17.7556 120.584 18.0715 120.337 18.421C120.089 18.7705 119.902 19.1266 119.778 19.4895ZM142.963 17.4129V16.5056C142.771 16.4518 142.488 16.3914 142.116 16.3242C141.729 16.257 141.24 16.2234 140.647 16.2234C139.903 16.2234 139.275 16.3779 138.765 16.687C138.269 17.0096 137.875 17.4331 137.586 17.9572C137.282 18.4815 137.069 19.0729 136.945 19.7316C136.82 20.4036 136.759 21.1026 136.759 21.8283C136.759 22.2316 136.793 22.5945 136.862 22.9171C136.945 23.2532 137.055 23.5422 137.193 23.7841C137.345 24.026 137.51 24.2074 137.689 24.3284C137.882 24.4629 138.09 24.5301 138.309 24.5301C138.655 24.5301 139.013 24.3957 139.386 24.1268C139.743 23.8446 140.095 23.4817 140.441 23.038C140.785 22.5945 141.109 22.104 141.413 21.5662C141.729 21.0152 141.998 20.4775 142.219 19.9533C142.453 19.429 142.639 18.9385 142.777 18.4815C142.902 18.0379 142.963 17.6817 142.963 17.4129ZM147.927 27.4737H144.163C144.067 27.3124 143.97 27.0571 143.874 26.7075C143.777 26.3581 143.694 25.9885 143.625 25.5987C143.557 25.1954 143.502 24.7989 143.46 24.4092C143.419 24.0193 143.397 23.6967 143.397 23.4414V22.655C143.095 23.2465 142.736 23.8513 142.322 24.4696C141.895 25.0744 141.413 25.6256 140.875 26.1229C140.337 26.6202 139.743 27.0235 139.095 27.3326C138.462 27.6552 137.772 27.8164 137.028 27.8164C136.435 27.8164 135.883 27.6888 135.373 27.4334C134.849 27.178 134.394 26.795 134.007 26.2842C133.635 25.7869 133.339 25.1618 133.118 24.4092C132.897 23.6564 132.787 22.7961 132.787 21.8283C132.787 20.7261 132.953 19.6576 133.284 18.6226C133.615 17.5742 134.125 16.6467 134.815 15.8402C135.504 15.0204 136.38 14.3684 137.442 13.8846C138.503 13.3872 139.765 13.1385 141.227 13.1385C142.26 13.1385 143.281 13.199 144.288 13.32C145.293 13.4275 146.204 13.5754 147.018 13.7636V20.1751C147.018 21.909 147.101 23.3674 147.265 24.5503C147.431 25.7331 147.651 26.7075 147.927 27.4737ZM155.001 27.4737H151.051V11.9086C151.051 10.4167 151.037 9.11286 151.009 7.99724C150.996 6.88161 150.933 6.02136 150.823 5.4165H155.001V18.5823L159.365 13.4208H164.66L157.897 19.5703L165.073 27.4737H159.903L155.001 20.8606V27.4737ZM179.51 21.2638H170.369C170.465 22.4601 170.81 23.3271 171.403 23.8647C172.009 24.389 172.843 24.6511 173.905 24.6511C174.843 24.6511 175.753 24.5436 176.635 24.3284C177.518 24.1268 178.4 23.7706 179.282 23.2599L179.573 26.4454C179.063 26.6874 178.566 26.8958 178.083 27.0705C177.601 27.2453 177.117 27.3864 176.635 27.4939C176.139 27.6148 175.643 27.6955 175.146 27.7358C174.636 27.7896 174.105 27.8164 173.553 27.8164C172.616 27.8164 171.72 27.6619 170.864 27.3528C170.024 27.0436 169.272 26.5866 168.611 25.9818C167.963 25.3903 167.453 24.6444 167.079 23.7438C166.694 22.8566 166.501 21.8283 166.501 20.6589C166.501 19.5165 166.659 18.4815 166.976 17.554C167.307 16.6266 167.777 15.8402 168.383 15.1951C169.003 14.5364 169.748 14.0257 170.617 13.6628C171.486 13.3132 172.464 13.1385 173.553 13.1385C174.339 13.1385 175.035 13.2326 175.643 13.4208C176.235 13.609 176.753 13.8644 177.194 14.187C177.635 14.523 178.001 14.9128 178.29 15.3564C178.593 15.7999 178.827 16.2838 178.993 16.808C179.173 17.3188 179.304 17.8632 179.387 18.4412C179.455 19.0057 179.49 19.5703 179.49 20.1348V20.3968C179.49 20.4909 179.49 20.5917 179.49 20.6992C179.503 20.8203 179.51 20.9278 179.51 21.0219V21.2638ZM173.347 16.0419C172.533 16.0419 171.885 16.2502 171.403 16.6669C170.934 17.097 170.617 17.8027 170.451 18.7839H175.891C175.891 17.8161 175.677 17.1171 175.249 16.687C174.822 16.257 174.188 16.0419 173.347 16.0419Z" fill="black"/>
<path d="M28.1059 20.9676C27.1159 19.871 25.9911 18.8622 25.0012 17.8973L24.1913 17.1954L21.8065 14.9146L20.2767 13.3355C20.0128 13.0782 19.7719 12.7993 19.5567 12.5022L19.1968 12.1074L19.0618 11.932L18.9268 12.0197L19.0618 11.888L18.9718 11.8004L18.2968 10.9231C18.0759 10.6325 17.8801 10.3244 17.7119 10.002H17.6669C17.6669 9.91427 17.6669 9.87041 17.6219 9.82653V9.43177H17.7119L17.8469 9.34405L18.2518 9.25633H18.5668C18.9723 9.22845 19.3795 9.24317 19.7817 9.30019L20.6817 9.38791L22.3914 9.47564C24.2813 9.56336 25.7661 9.21246 26.8461 8.4668L27.7459 7.72113C27.9694 7.42349 28.0936 7.06605 28.1016 6.69728C28.1097 6.32851 28.0012 5.96625 27.7909 5.6596C27.117 5.17802 26.3262 4.87569 25.4962 4.78236L22.8414 4.16828L17.5769 3.24716L12.3124 2.36991L11.4575 2.28219L7.13789 1.58038C5.42804 1.22949 3.71821 0.703139 2.09837 0.220653L1.42343 0.0452029C1.32882 0.00913211 1.2271 -0.00565669 1.12581 0.00193811C1.02453 0.00953291 0.926314 0.0393145 0.838484 0.0890641C0.66691 0.206512 0.540275 0.376248 0.478518 0.571552C0.435094 0.763036 0.466327 0.963419 0.566137 1.13368C0.665947 1.30395 0.827189 1.43192 1.01847 1.49266L2.09837 1.7997C3.39793 2.2316 4.71958 2.59761 6.05798 2.89627C7.72283 3.24716 9.43266 3.51034 11.0975 3.72966H11.1875L16.407 4.56303L21.6715 5.48415L24.2813 5.96664L24.6412 6.05437L25.4962 6.22981L26.0361 6.3614L26.3061 6.44912H26.3961C26.4411 6.44912 26.3961 6.75617 26.2611 6.84389C26.1261 6.93162 26.2161 6.88774 26.1711 6.93162H26.0811C26.0811 6.95487 26.0716 6.97719 26.0548 6.99365C26.0379 7.0101 26.0149 7.01934 25.9911 7.01934L25.5862 7.28251H25.4512L25.2262 7.37024C24.9245 7.49815 24.6067 7.58665 24.2813 7.63341H23.3813C22.5391 7.65767 21.6963 7.61365 20.8615 7.50182H20.4117C19.7394 7.42886 19.063 7.39955 18.3868 7.4141C17.3969 7.50182 16.677 7.80887 16.317 8.42294C15.957 9.03702 16.002 10.002 16.677 11.0547C17.5074 12.3377 18.4403 13.555 19.4667 14.6953C20.5017 15.7919 21.6265 16.8445 22.5714 17.7656L23.1114 18.2482L25.7212 20.7044C26.2611 21.2747 26.7561 21.7571 27.2059 22.2835L27.9259 23.073L28.2858 23.5116C28.2858 23.5232 28.2906 23.5344 28.299 23.5427C28.3075 23.5508 28.3189 23.5555 28.3308 23.5555L28.4208 23.687C28.4674 23.736 28.4986 23.797 28.5108 23.8625L28.6458 24.0818L28.7358 24.2135V24.5644H28.6908L28.6008 24.6521H28.0159L27.7459 24.5644H27.6109L27.3859 24.4766L26.4861 23.9064L26.3961 23.8187L25.3612 23.1169L24.3713 22.5467L23.8313 22.1519L23.4263 21.8449C22.1214 20.8361 20.7715 19.7833 19.5117 18.7307L18.5668 17.9411C18.4635 17.839 18.3321 17.7682 18.1884 17.7371C18.0447 17.7059 17.8949 17.7158 17.7569 17.7656C17.6107 17.8194 17.485 17.9154 17.3965 18.0409C17.308 18.1663 17.2611 18.3152 17.2619 18.4674C17.2169 19.0376 17.6219 19.5202 17.9369 19.915L18.1169 20.0904L25.0012 28.4681L25.0912 28.5558C25.1362 28.6435 25.2262 28.6874 25.2712 28.819L25.4062 28.9067C25.4561 29.0143 25.5165 29.1172 25.5862 29.2138L25.7212 29.4769H25.7661C25.7651 29.5382 25.7807 29.5987 25.8111 29.6524C25.8111 29.6963 25.8111 29.7401 25.8561 29.7401V30.0472C25.8111 30.0472 25.8111 30.091 25.8111 30.1349L25.9461 30.2226H25.7661V30.398H24.8212L24.5512 30.2226L24.4163 30.1349H24.3713L24.1013 29.9155L23.6963 29.5208L23.6063 29.4331L22.5264 28.3804L20.3217 26.3189C18.9718 24.9152 17.7569 23.5993 16.722 22.3712L16.272 21.801L15.777 21.2308C15.6313 21.0947 15.4389 21.0164 15.2371 21.0115C15.0207 21.0097 14.8116 21.0881 14.6521 21.2308C14.5847 21.3005 14.5336 21.3836 14.5025 21.4746C14.4714 21.5654 14.4611 21.6619 14.4721 21.7571C14.4753 21.9464 14.5381 22.1303 14.6521 22.2835C14.9221 22.5905 15.1471 22.8976 15.4171 23.1607C15.912 24.3012 16.362 25.31 16.857 26.2312C17.3519 27.1523 18.1169 28.3804 18.8368 29.3892C18.9154 29.5518 19.0219 29.7001 19.1518 29.8278C19.4247 30.2027 19.6654 30.5988 19.8717 31.0121C19.9366 31.1364 19.9821 31.2695 20.0067 31.4069V31.9332C19.9948 31.9332 19.9833 31.9379 19.9749 31.946C19.9665 31.9543 19.9617 31.9655 19.9617 31.9771H19.8717L19.6917 32.0648H19.4218L19.1068 31.9771L18.9718 31.8894L18.8368 31.8017H18.7468L18.6568 31.714L18.4318 31.5385L17.8469 30.8366L17.6669 30.6612L16.047 28.6874L14.4271 26.7136L14.1123 26.3189L13.7073 25.7924L12.9424 24.7836L11.2775 22.459C11.1776 22.3124 11.0304 22.2028 10.8592 22.1471C10.688 22.0915 10.5027 22.0932 10.3326 22.1519C10.1579 22.2287 10.0169 22.3634 9.93448 22.532C9.8521 22.7008 9.83372 22.8924 9.88262 23.073L11.2325 29.0821C11.2775 29.2138 11.2775 29.3454 11.3225 29.4769C11.4189 29.8231 11.4941 30.1747 11.5475 30.5297V30.9683C11.5495 30.992 11.5466 31.0159 11.5389 31.0386C11.5311 31.0612 11.5188 31.082 11.5025 31.0998H11.2325L11.0075 31.0121H10.8725L10.7825 31.1437V31.056H10.8725L10.6925 30.8806V30.7928L10.5126 30.8806L10.6476 30.7489H10.6026V30.6612H10.5576L10.4226 30.442L10.1976 30.0032L9.0727 27.9418C8.89272 27.547 8.71273 27.1961 8.57774 26.8013C8.16538 25.9004 7.80485 24.978 7.49785 24.038C7.13789 23.1169 6.77791 22.1081 6.32796 21.143C5.86764 20.2354 5.32556 19.3693 4.70812 18.5551C4.10758 17.7515 3.55182 16.9169 3.04327 16.055C2.45833 15.0462 1.96338 13.9934 1.46843 12.9846C1.35352 12.8122 1.17723 12.6871 0.973471 12.6337C0.773994 12.5941 0.566575 12.6253 0.388526 12.7214C0.299016 12.7667 0.220254 12.8298 0.157339 12.9066C0.0944256 12.9834 0.0487644 13.0722 0.0233133 13.1674C-0.00213808 13.2624 -0.00681184 13.3618 0.00959456 13.4587C0.026001 13.5557 0.0631212 13.6482 0.118553 13.7303C0.703496 14.9146 1.28844 16.0988 1.96338 17.2393L3.08827 18.9061L3.31325 19.257C3.62821 19.6956 3.94319 20.0904 4.21316 20.529C4.58792 21.1344 4.9187 21.7646 5.20307 22.415C5.51803 23.1169 5.78801 23.8625 6.05798 24.6082C6.32796 25.3538 6.46295 25.7924 6.73292 26.4066C7.31095 27.8454 7.97195 29.2512 8.71273 30.6174C9.00834 31.3133 9.49003 31.9192 10.1076 32.3718C10.4634 32.6053 10.8861 32.7227 11.3147 32.7068C11.7432 32.6911 12.1557 32.543 12.4924 32.2841C13.0774 31.8455 13.2123 31.0998 13.0324 30.091C12.994 29.8236 12.9337 29.5596 12.8524 29.3015L12.2224 26.3627L13.2573 27.6786L16.722 31.8894C17.2362 32.632 17.9755 33.1993 18.8368 33.5123L19.5117 33.6L20.2317 33.5123C20.7138 33.3112 21.1109 32.9551 21.3565 32.5034C21.5622 32.0482 21.6096 31.54 21.4915 31.056C21.4141 30.5971 21.2295 30.1619 20.9515 29.784L20.5017 29.126L20.2317 28.7312L19.5117 27.6786L21.0415 29.1698L22.1664 30.2664L22.3914 30.5297L23.2463 31.3192C23.6634 31.6934 24.1764 31.9511 24.7312 32.0648C25.3092 32.2022 25.9192 32.124 26.4411 31.8455C26.6778 31.7005 26.8805 31.5084 27.0357 31.2816C27.1907 31.0548 27.2947 30.7985 27.3409 30.5297C27.4589 29.9837 27.3959 29.4155 27.1609 28.9067C26.9301 28.4268 26.6268 27.9832 26.2611 27.5909C26.0461 27.2797 25.8054 26.9863 25.5412 26.7136L22.5714 23.1169L25.6312 25.31C26.2936 25.8954 27.1276 26.2636 28.0159 26.3627C28.4296 26.4013 28.8462 26.3275 29.2195 26.1494C29.5927 25.9714 29.9082 25.6961 30.1307 25.3538C30.5357 24.6082 30.3557 23.687 29.5907 22.7221C28.8258 21.7571 28.6458 21.5378 28.1059 20.9676Z" fill="black"/>
</svg>
