<svg width="228" height="41" viewBox="0 0 228 41" fill="none" xmlns="http://www.w3.org/2000/svg">
<path d="M20.5 40C31.2696 40 40 31.2696 40 20.5C40 9.73045 31.2696 1 20.5 1C9.73045 1 1 9.73045 1 20.5C1 31.2696 9.73045 40 20.5 40Z" stroke="black"/>
<path d="M10 37.0002C13.8333 37.0002 16 35.0002 18.6667 21.3335C17.4444 20.1113 14.2667 18.2668 11.3333 20.6668C11.6111 20.1668 12.5333 19.1002 14 18.8335C12.9933 18.3805 10.8829 17.5717 9.801 17.6221C9.69177 17.6349 9.59127 17.6499 9.5 17.6668C9.5877 17.6418 9.6888 17.6273 9.801 17.6221C11.4867 17.4253 15.2434 17.7868 19 20.6668C19.7778 19.778 20.0667 16.8335 15 12.1668C16.6667 13.1113 20.0333 15.6335 20.1667 18.1668C21.2778 16.9446 22.4667 13.5668 18.3333 9.8335C19.2778 10.5002 21.3 12.2002 21.8333 13.6668C22.1111 12.7224 23.0333 10.7335 24.5 10.3335C23.3889 11.4446 21.4 14.3002 22.3333 16.8335C23.3889 15.6113 26.7333 12.9668 31.6667 12.1668C30.3889 12.5557 27.8 13.4668 27.6667 14.0002C28.7778 14.0002 31.1333 14.1002 31.6667 14.5002C29.0556 13.9446 23.5333 14.0335 22.3333 18.8335C23.5 17.5002 26.8333 15.1668 30.8333 16.5002C28.4444 16.2779 23.1667 17.0002 21.1667 21.6668C21.9444 21.3335 23.8333 20.8002 25.1667 21.3335C23.8333 21.3891 21.0667 21.7335 20.6667 22.6668C20 26.278 21.1 34.1335 30.8333 36.6668C28.3619 38.4218 24.4657 40.4722 19.3333 40.1668C16.5052 39.9985 12.6053 39.3212 10 37.0002Z" fill="black"/>
<path d="M28.3881 23.5003V23.374C28.1187 23.2968 27.5756 22.9571 27.5586 22.216C27.5416 21.4749 27.6791 21.2335 27.75 21.2054C27.5586 20.3632 28.4732 19.3526 30.3661 19.8369H30.4087V19.5C30.4937 19.5772 30.6511 19.7737 30.6001 19.9421C30.6922 19.9421 30.8893 19.9716 30.9404 20.0895H30.7064C30.8624 20.2229 31.1276 20.7127 30.9404 21.6054C30.7064 22.7213 29.8344 23.374 29.3027 23.374V23.5003C29.6642 23.4722 30.4427 23.475 30.6639 23.7109C31.0113 23.753 31.8039 24.0056 32.1953 24.6793C32.3654 24.6934 32.7312 24.8015 32.8333 25.1215C32.8262 25.1636 32.7908 25.2394 32.7057 25.2057C32.7412 25.2759 32.7653 25.4162 32.5781 25.4162C32.5568 25.4864 32.476 25.6057 32.3229 25.5215C32.2307 25.6268 31.9741 25.7952 31.6848 25.6268C31.6848 25.5891 31.6897 25.5313 31.7047 25.4858C31.5946 25.5974 31.4353 25.7312 31.3658 25.6899C31.2807 25.6394 31.4154 25.2618 31.4934 25.0794C31.3516 24.9039 30.9276 24.5614 30.3661 24.5951C30.3165 24.6443 30.247 24.8099 30.3661 25.0794C30.515 25.4162 30.6214 25.9005 30.6639 26.3847C30.6979 26.7721 30.7206 27.0936 30.7277 27.2059L31.0893 28.5744H30.8128C30.8695 28.9674 30.9744 29.9513 30.9404 30.743C30.6072 30.8974 29.8812 31.1977 29.643 31.1641C29.3452 31.1219 29.1112 30.7009 29.1751 30.5535C29.2261 30.4356 29.8628 30.2377 30.1747 30.1535C30.0754 29.7534 29.8769 28.9281 29.8769 28.827L29.6855 28.7849L29.3239 27.4375L28.8986 28.7218H28.7709L28.5583 30.3008C28.5583 30.4201 28.286 30.6882 27.197 30.8061C26.9134 30.6938 26.4399 30.3935 26.8142 30.0903C26.9985 30.0412 27.414 29.9303 27.6011 29.8797C27.6295 29.4797 27.7032 28.6586 27.7713 28.5744C27.8394 28.4902 27.7288 28.4831 27.665 28.4902L27.984 27.0585C27.9273 26.3216 27.8181 24.7846 27.8351 24.532L26.1336 23.2477C25.9847 23.1915 25.6869 23.0497 25.6869 22.9318C25.6869 22.8139 25.8145 22.8827 25.8784 22.9318C25.8784 22.8266 25.8103 22.6371 25.538 22.7213C25.4955 22.6722 25.453 22.5655 25.6231 22.5318C25.531 22.4616 25.4147 22.3171 25.6869 22.3002C25.5948 22.1949 25.5381 21.997 26.0485 22.0476C26.0272 21.9704 26.0443 21.8202 26.2825 21.837C26.5802 21.8581 26.7291 22.4265 26.7078 22.6371L27.6011 23.3319C27.8138 23.3459 28.269 23.3992 28.3881 23.5003Z" fill="black"/>
<path d="M7.98937 23.8664V23.7689C7.62913 23.7607 6.83007 23.5542 6.5157 22.7931C6.54843 23.0696 6.46167 23.6322 5.85253 23.6713C5.9344 23.6306 6.0785 23.5152 5.9999 23.3786C5.7625 23.5493 5.24343 23.7347 5.06657 23.1102C5.173 23.1671 5.3908 23.2371 5.41043 23.0614C5.1812 23.0289 4.7522 22.8614 4.8701 22.4516C4.9847 22.5492 5.2336 22.6858 5.3122 22.4516C5.41043 22.1589 5.435 21.7198 5.3122 21.3783C5.18937 21.0368 5.6315 20.3294 5.9999 20.2562L5.85253 19.6951L6.5157 19.9635L6.81043 19.5L6.98237 19.9635C7.711 19.809 9.17323 19.7147 9.19287 20.5733C9.64317 21.2726 10.2244 22.8565 8.94727 23.5981V23.8176C9.1192 23.7119 9.50727 23.5103 9.6841 23.5493L10.5929 22.7687C10.5356 22.4923 10.5683 21.915 11.1578 21.8174C11.1987 21.8336 11.2511 21.9052 11.1332 22.0613C11.297 21.9719 11.6441 21.871 11.7227 22.1833C11.7227 22.2128 11.7046 22.2585 11.6422 22.2665C11.7503 22.2901 11.8662 22.36 11.8209 22.5248C11.8128 22.5409 11.7934 22.5603 11.7614 22.5661C11.8165 22.5918 11.854 22.6274 11.8209 22.6711C11.7472 22.7687 11.649 22.6955 11.5753 22.6711C11.5098 22.7199 11.3985 22.8321 11.4771 22.8907C11.5753 22.9639 11.6981 22.7931 11.6981 22.9395C11.6981 23.0566 11.518 23.1671 11.4279 23.2078L9.6104 24.8178C9.5531 25.639 9.689 27.4767 10.6911 28.2572C10.5356 28.3548 10.1508 28.5451 9.85603 28.5256L10.1753 30.6966C10.5519 30.6803 11.2118 30.8234 10.8385 31.526C10.7157 31.6398 10.2588 31.765 9.41393 31.3552L8.82447 28.8427H7.9157C7.86657 29.4037 7.7241 30.6088 7.54727 30.9405L7.49813 31.526C7.8338 31.469 8.4806 31.5113 8.38233 32.1358C8.25953 32.9164 6.73673 32.2578 6.54027 31.8675C6.34377 31.4772 6.8841 28.8671 6.85953 28.6475C6.442 28.4849 5.5627 28.0914 5.38587 27.8182C5.9875 27.501 7.14907 26.5009 6.98237 25.0373C6.61393 25.1024 5.86727 25.3252 5.82797 25.6959C5.9344 25.8504 6.1227 26.1838 6.02447 26.2814C5.92623 26.379 5.73793 26.1594 5.65603 26.0374C5.63967 26.2163 5.49393 26.5156 5.042 26.2814C4.9274 26.3058 4.70307 26.3106 4.72273 26.135C4.64083 26.135 4.48203 26.0911 4.50167 25.9155C4.49347 25.7772 4.5901 25.4666 5.042 25.33C5.19757 25.0387 5.74937 24.3868 6.71217 24.1104C7.675 23.8339 7.9648 23.8326 7.98937 23.8664Z" fill="black"/>
<path d="M13.2191 4.45098C13.2225 4.38648 13.3064 4.36398 13.3416 4.41815L14.1267 5.62721C14.1425 5.65145 14.172 5.66278 14.1999 5.65531L15.5924 5.28218C15.6548 5.26545 15.7021 5.33835 15.6615 5.38851L14.7542 6.50891C14.7361 6.53135 14.7344 6.56295 14.7501 6.58715L15.5353 7.79625C15.5705 7.85038 15.5158 7.91791 15.4555 7.89478L14.1096 7.37815C14.0827 7.36778 14.0521 7.37598 14.0339 7.39841L13.1267 8.51878C13.086 8.56898 13.0049 8.53785 13.0083 8.47335L13.0837 7.03368C13.0852 7.00485 13.068 6.97831 13.041 6.96795L11.6951 6.45131C11.6348 6.42818 11.6394 6.34138 11.7018 6.32468L13.0943 5.95155C13.1222 5.94408 13.1421 5.91948 13.1436 5.89065L13.2191 4.45098Z" fill="#ED217B"/>
<path d="M8.0132 9.57216C7.90516 9.4522 8.01376 9.26407 8.17169 9.29763L9.20973 9.51827C9.28036 9.5333 9.35263 9.50113 9.38873 9.4386L9.91933 8.51953C10.0001 8.3797 10.2126 8.42487 10.2294 8.58543L10.3404 9.64087C10.3479 9.71267 10.4008 9.77146 10.4715 9.78646L11.5095 10.0071C11.6674 10.0407 11.6901 10.2567 11.5426 10.3224L10.5732 10.754C10.5072 10.7834 10.4676 10.8519 10.4752 10.9237L10.5861 11.9791C10.603 12.1397 10.4045 12.2281 10.2965 12.1081L9.58639 11.3194C9.53809 11.2658 9.46073 11.2493 9.39476 11.2787L8.4253 11.7103C8.2778 11.776 8.13243 11.6146 8.21316 11.4747L8.74376 10.5557C8.77986 10.4932 8.77159 10.4145 8.72329 10.3608L8.0132 9.57216Z" fill="#8CC43E"/>
<path d="M8.09747 13.0276C8.05424 12.9796 8.09771 12.9044 8.16087 12.9178L9.04114 13.1049C9.06937 13.1109 9.09827 13.098 9.11271 13.073L9.56267 12.2936C9.59497 12.2377 9.67997 12.2558 9.68671 12.32L9.78077 13.215C9.78381 13.2437 9.80497 13.2672 9.83324 13.2733L10.7135 13.4604C10.7767 13.4738 10.7857 13.5602 10.7267 13.5865L9.90461 13.9525C9.87824 13.9643 9.86241 13.9917 9.86544 14.0204L9.95951 14.9154C9.96624 14.9796 9.88687 15.0149 9.84367 14.967L9.24147 14.2982C9.22217 14.2767 9.19121 14.2701 9.16484 14.2819L8.34271 14.6479C8.28371 14.6742 8.22557 14.6096 8.25784 14.5537L8.70781 13.7743C8.72227 13.7493 8.71894 13.7178 8.69964 13.6964L8.09747 13.0276Z" fill="#F1B72A"/>
<path d="M6.97023 16.2562C6.86219 16.1362 6.97079 15.9481 7.12873 15.9816L7.63689 16.0896C7.70749 16.1047 7.77976 16.0725 7.81586 16.01L8.07563 15.56C8.15636 15.4202 8.36883 15.4654 8.38573 15.626L8.44003 16.1426C8.44756 16.2144 8.50049 16.2732 8.57113 16.2882L9.07926 16.3962C9.23719 16.4298 9.25989 16.6458 9.11239 16.7115L8.63783 16.9228C8.57186 16.9522 8.53229 17.0207 8.53986 17.0925L8.59416 17.6092C8.61103 17.7697 8.41256 17.8581 8.30453 17.7381L7.95693 17.352C7.90863 17.2984 7.83123 17.2819 7.76529 17.3113L7.29069 17.5226C7.14319 17.5883 6.99783 17.4268 7.07856 17.287L7.33833 16.8371C7.37443 16.7746 7.36616 16.6959 7.31783 16.6422L6.97023 16.2562Z" fill="#8CC43E"/>
<path d="M10.4934 16.8374C10.4358 16.8668 10.3744 16.8053 10.4037 16.7478L10.9775 15.6216C10.9906 15.5959 10.9856 15.5647 10.9652 15.5442L10.0715 14.6505C10.0258 14.6049 10.0653 14.5274 10.1291 14.5375L11.3774 14.7353C11.4059 14.7398 11.4341 14.7254 11.4472 14.6997L12.021 13.5735C12.0504 13.516 12.1362 13.5296 12.1463 13.5934L12.344 14.8417C12.3485 14.8702 12.3709 14.8926 12.3994 14.8971L13.6478 15.0948C13.7115 15.1049 13.7251 15.1908 13.6676 15.2201L12.5415 15.7939C12.5157 15.807 12.5014 15.8352 12.5059 15.8637L12.7036 17.1121C12.7137 17.1758 12.6363 17.2153 12.5906 17.1696L11.6969 16.2759C11.6765 16.2555 11.6452 16.2505 11.6195 16.2637L10.4934 16.8374Z" fill="#ED217B"/>
<path d="M13.148 21.8027C13.0905 21.8321 13.029 21.7706 13.0584 21.7131L13.3158 21.2078C13.3289 21.1821 13.324 21.1509 13.3035 21.1304L12.9026 20.7295C12.8569 20.6838 12.8964 20.6064 12.9601 20.6165L13.5202 20.7052C13.5487 20.7097 13.5769 20.6953 13.59 20.6696L13.8475 20.1644C13.8768 20.1068 13.9626 20.1204 13.9727 20.1842L14.0614 20.7443C14.0659 20.7728 14.0883 20.7952 14.1168 20.7997L14.6769 20.8884C14.7407 20.8985 14.7543 20.9843 14.6967 21.0136L14.1915 21.2711C14.1658 21.2842 14.1514 21.3124 14.1559 21.3409L14.2446 21.901C14.2547 21.9647 14.1773 22.0042 14.1316 21.9585L13.7307 21.5576C13.7102 21.5372 13.679 21.5322 13.6533 21.5453L13.148 21.8027Z" fill="#F1B72A"/>
<path d="M15.815 23.4697C15.7575 23.499 15.696 23.4376 15.7254 23.38L15.9828 22.8748C15.9959 22.8491 15.991 22.8178 15.9705 22.7974L15.5696 22.3964C15.5239 22.3508 15.5634 22.2734 15.6271 22.2835L16.1872 22.3722C16.2157 22.3767 16.2439 22.3623 16.257 22.3366L16.5145 21.8313C16.5438 21.7738 16.6296 21.7874 16.6397 21.8512L16.7284 22.4112C16.7329 22.4398 16.7553 22.4621 16.7838 22.4667L17.3439 22.5554C17.4077 22.5655 17.4213 22.6513 17.3637 22.6806L16.8585 22.938C16.8328 22.9512 16.8184 22.9793 16.8229 23.0079L16.9116 23.5679C16.9217 23.6317 16.8443 23.6712 16.7986 23.6255L16.3977 23.2245C16.3772 23.2041 16.346 23.1992 16.3203 23.2123L15.815 23.4697Z" fill="#ED217B"/>
<path d="M9.48202 19.8027C9.42449 19.8321 9.36302 19.7706 9.39235 19.7131L9.64979 19.2078C9.66289 19.1821 9.65795 19.1509 9.63752 19.1304L9.23655 18.7295C9.19089 18.6838 9.23035 18.6064 9.29412 18.6165L9.85419 18.7052C9.88272 18.7097 9.91092 18.6953 9.92402 18.6696L10.1815 18.1644C10.2108 18.1068 10.2966 18.1204 10.3067 18.1842L10.3954 18.7443C10.3999 18.7728 10.4223 18.7952 10.4508 18.7997L11.0109 18.8884C11.0747 18.8985 11.0883 18.9843 11.0307 19.0136L10.5255 19.2711C10.4998 19.2842 10.4854 19.3124 10.4899 19.3409L10.5786 19.901C10.5887 19.9647 10.5113 20.0042 10.4656 19.9585L10.0647 19.5576C10.0442 19.5372 10.013 19.5322 9.98725 19.5453L9.48202 19.8027Z" fill="#2EAEE3"/>
<path d="M23.482 23.4697C23.4245 23.499 23.363 23.4376 23.3924 23.38L23.6498 22.8748C23.6629 22.8491 23.658 22.8178 23.6375 22.7974L23.2366 22.3964C23.1909 22.3508 23.2304 22.2734 23.2941 22.2835L23.8542 22.3722C23.8827 22.3767 23.9109 22.3623 23.924 22.3366L24.1815 21.8313C24.2108 21.7738 24.2966 21.7874 24.3067 21.8512L24.3954 22.4112C24.3999 22.4398 24.4223 22.4621 24.4508 22.4667L25.0109 22.5554C25.0747 22.5655 25.0883 22.6513 25.0307 22.6806L24.5255 22.938C24.4998 22.9512 24.4854 22.9793 24.4899 23.0079L24.5786 23.5679C24.5887 23.6317 24.5113 23.6712 24.4656 23.6255L24.0647 23.2245C24.0442 23.2041 24.013 23.1992 23.9873 23.2123L23.482 23.4697Z" fill="#2EAEE3"/>
<path d="M24.148 20.4697C24.0905 20.499 24.029 20.4376 24.0584 20.38L24.3158 19.8748C24.3289 19.8491 24.324 19.8178 24.3035 19.7974L23.9026 19.3964C23.8569 19.3508 23.8964 19.2734 23.9601 19.2835L24.5202 19.3722C24.5487 19.3767 24.5769 19.3623 24.59 19.3366L24.8475 18.8313C24.8768 18.7738 24.9626 18.7874 24.9727 18.8512L25.0614 19.4112C25.0659 19.4398 25.0883 19.4621 25.1168 19.4667L25.6769 19.5554C25.7407 19.5655 25.7543 19.6513 25.6967 19.6806L25.1915 19.938C25.1658 19.9512 25.1514 19.9793 25.1559 20.0079L25.2446 20.5679C25.2547 20.6317 25.1773 20.6712 25.1316 20.6255L24.7307 20.2245C24.7102 20.2041 24.679 20.1992 24.6533 20.2123L24.148 20.4697Z" fill="#F1B72A"/>
<path d="M27.579 19.1121C27.5526 19.1711 27.4662 19.1618 27.4529 19.0987L27.3048 18.3967C27.2988 18.3685 27.2754 18.3473 27.2466 18.3442L26.5333 18.2681C26.4691 18.2613 26.4511 18.1763 26.5071 18.1441L27.1289 17.7863C27.154 17.7719 27.1669 17.743 27.1609 17.7148L27.0128 17.0128C26.9995 16.9496 27.0748 16.9063 27.1227 16.9496L27.6551 17.4304C27.6766 17.4498 27.708 17.4531 27.7331 17.4387L28.3549 17.081C28.4109 17.0488 28.4753 17.107 28.449 17.166L28.1562 17.8209C28.1444 17.8473 28.151 17.8782 28.1724 17.8976L28.7048 18.3784C28.7527 18.4217 28.7172 18.501 28.653 18.4942L27.9397 18.4181C27.911 18.415 27.8835 18.4308 27.8718 18.4572L27.579 19.1121Z" fill="#ED217B"/>
<path d="M33.1284 15.0728C33.1071 15.0971 33.0672 15.0799 33.0701 15.0478L33.1477 14.2071C33.149 14.1928 33.141 14.1792 33.1277 14.1735L32.3522 13.8399C32.3225 13.8271 32.3265 13.7839 32.358 13.7768L33.1815 13.5908C33.1956 13.5876 33.206 13.5757 33.2073 13.5613L33.2849 12.7207C33.2879 12.6886 33.3303 12.679 33.3468 12.7068L33.7781 13.4324C33.7855 13.4449 33.8 13.4511 33.8141 13.4479L34.6377 13.262C34.669 13.2548 34.6913 13.2922 34.67 13.3165L34.113 13.9509C34.1037 13.9618 34.102 13.9775 34.1093 13.9899L34.5407 14.7156C34.5573 14.7434 34.5287 14.776 34.499 14.7633L33.7235 14.4297C33.7102 14.424 33.6948 14.4275 33.6852 14.4383L33.1284 15.0728Z" fill="#8CC43E"/>
<path d="M32.4716 17.3783C32.429 17.4268 32.3492 17.3925 32.3551 17.3282L32.3926 16.922C32.3953 16.8933 32.3791 16.8661 32.3526 16.8546L31.9778 16.6935C31.9185 16.668 31.9265 16.5814 31.9895 16.5672L32.3874 16.4773C32.4156 16.471 32.4364 16.4472 32.4391 16.4184L32.4766 16.0123C32.4825 15.9479 32.5673 15.9288 32.6003 15.9843L32.8087 16.335C32.8235 16.3598 32.8525 16.3723 32.8807 16.3659L33.2786 16.2761C33.3416 16.2618 33.386 16.3365 33.3434 16.3851L33.0743 16.6917C33.0552 16.7134 33.0523 16.7449 33.0671 16.7697L33.2755 17.1203C33.3085 17.1759 33.2512 17.2412 33.1919 17.2156L32.8171 17.0545C32.7906 17.0431 32.7597 17.05 32.7407 17.0717L32.4716 17.3783Z" fill="#D9D9D9"/>
<path d="M32.4716 17.3783C32.429 17.4268 32.3492 17.3925 32.3551 17.3282L32.3926 16.922C32.3953 16.8933 32.3791 16.8661 32.3526 16.8546L31.9778 16.6935C31.9185 16.668 31.9265 16.5814 31.9895 16.5672L32.3874 16.4773C32.4156 16.471 32.4364 16.4472 32.4391 16.4184L32.4766 16.0123C32.4825 15.9479 32.5673 15.9288 32.6003 15.9843L32.8087 16.335C32.8235 16.3598 32.8525 16.3723 32.8807 16.3659L33.2786 16.2761C33.3416 16.2618 33.386 16.3365 33.3434 16.3851L33.0743 16.6917C33.0552 16.7134 33.0523 16.7449 33.0671 16.7697L33.2755 17.1203C33.3085 17.1759 33.2512 17.2412 33.1919 17.2156L32.8171 17.0545C32.7906 17.0431 32.7597 17.05 32.7407 17.0717L32.4716 17.3783Z" fill="#F1B72A"/>
<path d="M30.8056 16.0448C30.763 16.0934 30.6831 16.059 30.6891 15.9947L30.7266 15.5886C30.7292 15.5598 30.7131 15.5326 30.6865 15.5212L30.3118 15.36C30.2525 15.3345 30.2605 15.248 30.3235 15.2337L30.7214 15.1439C30.7495 15.1375 30.7704 15.1137 30.7731 15.085L30.8106 14.6788C30.8165 14.6145 30.9012 14.5953 30.9342 14.6509L31.1427 15.0015C31.1574 15.0263 31.1865 15.0388 31.2147 15.0325L31.6126 14.9426C31.6755 14.9284 31.7199 15.0031 31.6773 15.0516L31.4083 15.3582C31.3892 15.3799 31.3863 15.4114 31.4011 15.4362L31.6095 15.7869C31.6425 15.8424 31.5852 15.9077 31.5258 15.8822L31.1511 15.721C31.1246 15.7096 31.0937 15.7166 31.0747 15.7383L30.8056 16.0448Z" fill="#2EAEE3"/>
<path d="M27.7352 15.6403C27.7139 15.6646 27.674 15.6474 27.677 15.6152L27.7017 15.347C27.7031 15.3326 27.695 15.319 27.6817 15.3133L27.4342 15.2068C27.4046 15.1941 27.4086 15.1508 27.4401 15.1437L27.7028 15.0844C27.7169 15.0812 27.7274 15.0693 27.7287 15.0549L27.7535 14.7866C27.7564 14.7545 27.7988 14.7449 27.8153 14.7727L27.953 15.0043C27.9603 15.0167 27.9749 15.0229 27.989 15.0197L28.2517 14.9604C28.2832 14.9533 28.3054 14.9906 28.2841 15.0149L28.1064 15.2174C28.0969 15.2282 28.0954 15.244 28.1028 15.2564L28.2405 15.488C28.257 15.5157 28.2283 15.5484 28.1986 15.5356L27.9512 15.4292C27.9379 15.4235 27.9225 15.427 27.9129 15.4378L27.7352 15.6403Z" fill="#8CC43E"/>
<path d="M32.47 11.8966C32.4274 11.9452 32.3476 11.9108 32.3535 11.8465L32.3666 11.7045C32.3693 11.6758 32.3531 11.6486 32.3266 11.6372L32.1956 11.5808C32.1363 11.5553 32.1443 11.4688 32.2073 11.4545L32.3464 11.4231C32.3745 11.4168 32.3954 11.393 32.3981 11.3642L32.4112 11.2222C32.4171 11.1579 32.5019 11.1388 32.5349 11.1943L32.6077 11.3169C32.6225 11.3417 32.6515 11.3542 32.6797 11.3478L32.8188 11.3164C32.8818 11.3022 32.9262 11.3769 32.8836 11.4254L32.7895 11.5326C32.7705 11.5543 32.7676 11.5858 32.7823 11.6106L32.8552 11.7332C32.8882 11.7887 32.8309 11.854 32.7715 11.8285L32.6405 11.7722C32.614 11.7608 32.5831 11.7677 32.5641 11.7894L32.47 11.8966Z" fill="#FF7707"/>
<path d="M32.0721 9.69426C32.0295 9.7428 31.9496 9.70846 31.9556 9.64416L32.0125 9.0276C32.0151 8.99883 31.999 8.97163 31.9724 8.96023L31.4036 8.71556C31.3443 8.69003 31.3523 8.6035 31.4153 8.5893L32.0193 8.45286C32.0474 8.44653 32.0683 8.42273 32.071 8.39396L32.1279 7.7774C32.1338 7.7131 32.2186 7.69396 32.2516 7.74946L32.5679 8.28173C32.5827 8.30656 32.6118 8.31906 32.6399 8.3127L33.2439 8.1763C33.3069 8.16206 33.3513 8.23676 33.3087 8.2853L32.9003 8.75066C32.8812 8.7724 32.8783 8.8039 32.8931 8.82873L33.2094 9.361C33.2424 9.4165 33.1851 9.4818 33.1258 9.4563L32.557 9.21163C32.5304 9.20023 32.4996 9.2072 32.4805 9.2289L32.0721 9.69426Z" fill="#ED217B"/>
<path d="M29.0721 12.0278C29.0295 12.0763 28.9496 12.042 28.9556 11.9777L29.0125 11.3611C29.0151 11.3323 28.999 11.3051 28.9724 11.2937L28.4036 11.0491C28.3443 11.0235 28.3523 10.937 28.4153 10.9228L29.0193 10.7864C29.0474 10.78 29.0683 10.7562 29.071 10.7275L29.1279 10.1109C29.1338 10.0466 29.2186 10.0275 29.2516 10.083L29.5679 10.6152C29.5827 10.6401 29.6118 10.6526 29.6399 10.6462L30.2439 10.5098C30.3069 10.4956 30.3513 10.5703 30.3087 10.6188L29.9003 11.0842C29.8812 11.1059 29.8783 11.1374 29.8931 11.1622L30.2094 11.6945C30.2424 11.75 30.1851 11.8153 30.1258 11.7898L29.557 11.5451C29.5304 11.5337 29.4996 11.5407 29.4805 11.5624L29.0721 12.0278Z" fill="#2EAEE3"/>
<path d="M29.0721 6.69426C29.0295 6.7428 28.9496 6.70846 28.9556 6.64416L29.0125 6.0276C29.0151 5.99883 28.999 5.97163 28.9724 5.96023L28.4036 5.71556C28.3443 5.69003 28.3523 5.6035 28.4153 5.5893L29.0193 5.45286C29.0474 5.44653 29.0683 5.42273 29.071 5.39396L29.1279 4.7774C29.1338 4.7131 29.2186 4.69396 29.2516 4.74946L29.5679 5.28173C29.5827 5.30656 29.6118 5.31906 29.6399 5.3127L30.2439 5.1763C30.3069 5.16206 30.3513 5.23676 30.3087 5.2853L29.9003 5.75066C29.8812 5.7724 29.8783 5.8039 29.8931 5.82873L30.2094 6.361C30.2424 6.4165 30.1851 6.4818 30.1258 6.4563L29.557 6.21163C29.5304 6.20023 29.4996 6.2072 29.4805 6.2289L29.0721 6.69426Z" fill="#2EAEE3"/>
<path d="M25.5598 10.5459C25.5172 10.5944 25.4374 10.5601 25.4433 10.4958L25.5357 9.49515C25.5384 9.46639 25.5222 9.43919 25.4957 9.42779L24.5726 9.03072C24.5132 9.00522 24.5212 8.91869 24.5842 8.90445L25.5644 8.68309C25.5926 8.67672 25.6134 8.65295 25.6161 8.62419L25.7085 7.62359C25.7144 7.55929 25.7991 7.54015 25.8321 7.59565L26.3456 8.45945C26.3603 8.48429 26.3894 8.49679 26.4176 8.49042L27.3977 8.26905C27.4607 8.25482 27.5051 8.32952 27.4625 8.37805L26.7997 9.13329C26.7806 9.15499 26.7777 9.18649 26.7925 9.21132L27.3059 10.0751C27.3389 10.1306 27.2816 10.1959 27.2222 10.1704L26.2991 9.77335C26.2726 9.76195 26.2417 9.76892 26.2227 9.79062L25.5598 10.5459Z" fill="#2EAEE3"/>
<path d="M23.6292 13.9516C23.5866 14.0001 23.5068 13.9658 23.5127 13.9015L23.5374 13.6337C23.5401 13.6049 23.5239 13.5777 23.4974 13.5663L23.2503 13.4601C23.191 13.4345 23.199 13.348 23.262 13.3338L23.5243 13.2745C23.5525 13.2682 23.5733 13.2444 23.576 13.2156L23.6007 12.9478C23.6067 12.8835 23.6914 12.8644 23.7244 12.9199L23.8618 13.1511C23.8766 13.1759 23.9056 13.1884 23.9338 13.182L24.1962 13.1228C24.2592 13.1086 24.3036 13.1833 24.261 13.2318L24.0835 13.4339C24.0645 13.4556 24.0616 13.4872 24.0763 13.512L24.2138 13.7432C24.2467 13.7987 24.1894 13.864 24.1301 13.8385L23.883 13.7322C23.8565 13.7208 23.8256 13.7278 23.8066 13.7495L23.6292 13.9516Z" fill="#D9D9D9"/>
<path d="M23.6292 13.9516C23.5866 14.0001 23.5068 13.9658 23.5127 13.9015L23.5374 13.6337C23.5401 13.6049 23.5239 13.5777 23.4974 13.5663L23.2503 13.4601C23.191 13.4345 23.199 13.348 23.262 13.3338L23.5243 13.2745C23.5525 13.2682 23.5733 13.2444 23.576 13.2156L23.6007 12.9478C23.6067 12.8835 23.6914 12.8644 23.7244 12.9199L23.8618 13.1511C23.8766 13.1759 23.9056 13.1884 23.9338 13.182L24.1962 13.1228C24.2592 13.1086 24.3036 13.1833 24.261 13.2318L24.0835 13.4339C24.0645 13.4556 24.0616 13.4872 24.0763 13.512L24.2138 13.7432C24.2467 13.7987 24.1894 13.864 24.1301 13.8385L23.883 13.7322C23.8565 13.7208 23.8256 13.7278 23.8066 13.7495L23.6292 13.9516Z" fill="#F1B72A"/>
<path d="M25.8963 12.9326C25.8537 12.9811 25.7739 12.9468 25.7798 12.8825L25.8239 12.4047C25.8266 12.3759 25.8104 12.3487 25.7839 12.3373L25.3431 12.1477C25.2838 12.1222 25.2917 12.0356 25.3547 12.0214L25.8228 11.9157C25.851 11.9093 25.8718 11.8856 25.8745 11.8568L25.9186 11.379C25.9245 11.3147 26.0093 11.2955 26.0423 11.351L26.2875 11.7635C26.3022 11.7884 26.3313 11.8009 26.3595 11.7945L26.8275 11.6888C26.8905 11.6746 26.9349 11.7493 26.8923 11.7978L26.5758 12.1584C26.5567 12.1801 26.5538 12.2117 26.5686 12.2365L26.8137 12.649C26.8467 12.7045 26.7894 12.7698 26.7301 12.7443L26.2893 12.5547C26.2628 12.5433 26.2319 12.5502 26.2128 12.5719L25.8963 12.9326Z" fill="#ED217B"/>
<path d="M18.2293 14.5996C18.1867 14.6481 18.1069 14.6137 18.1128 14.5494L18.1569 14.0716C18.1596 14.0429 18.1434 14.0157 18.1169 14.0043L17.6761 13.8146C17.6168 13.7891 17.6247 13.7026 17.6877 13.6884L18.1558 13.5827C18.184 13.5763 18.2048 13.5525 18.2075 13.5238L18.2516 13.046C18.2575 12.9817 18.3423 12.9625 18.3753 13.018L18.6205 13.4305C18.6352 13.4553 18.6643 13.4679 18.6925 13.4615L19.1605 13.3558C19.2235 13.3416 19.2679 13.4163 19.2253 13.4648L18.9088 13.8254C18.8897 13.8471 18.8868 13.8786 18.9016 13.9034L19.1467 14.3159C19.1797 14.3714 19.1224 14.4368 19.0631 14.4112L18.6223 14.2216C18.5958 14.2102 18.5649 14.2172 18.5458 14.2389L18.2293 14.5996Z" fill="#F1B72A"/>
<path d="M22.2293 9.93256C22.1867 9.98109 22.1069 9.94676 22.1128 9.88246L22.1569 9.40466C22.1596 9.37589 22.1434 9.34869 22.1169 9.33726L21.6761 9.14766C21.6168 9.12216 21.6247 9.03562 21.6877 9.02139L22.1558 8.91569C22.184 8.90932 22.2048 8.88556 22.2075 8.85679L22.2516 8.37896C22.2575 8.31466 22.3423 8.29552 22.3753 8.35102L22.6205 8.76352C22.6352 8.78836 22.6643 8.80086 22.6925 8.79449L23.1605 8.68879C23.2235 8.67456 23.2679 8.74926 23.2253 8.79779L22.9088 9.15842C22.8897 9.18012 22.8868 9.21166 22.9016 9.23646L23.1467 9.64896C23.1797 9.70446 23.1224 9.76979 23.0631 9.74426L22.6223 9.55466C22.5958 9.54326 22.5649 9.55022 22.5458 9.57192L22.2293 9.93256Z" fill="#FF7707"/>
<path d="M17.2293 9.26605C17.1867 9.31459 17.1069 9.28025 17.1128 9.21595L17.1569 8.73815C17.1596 8.70939 17.1434 8.68219 17.1169 8.67075L16.6761 8.48115C16.6168 8.45565 16.6247 8.36912 16.6877 8.35489L17.1558 8.24919C17.184 8.24282 17.2048 8.21905 17.2075 8.19029L17.2516 7.71245C17.2575 7.64815 17.3423 7.62902 17.3753 7.68452L17.6205 8.09702C17.6352 8.12185 17.6643 8.13435 17.6925 8.12799L18.1605 8.02229C18.2235 8.00805 18.2679 8.08275 18.2253 8.13129L17.9088 8.49192C17.8897 8.51362 17.8868 8.54515 17.9016 8.56995L18.1467 8.98245C18.1797 9.03795 18.1224 9.10329 18.0631 9.07775L17.6223 8.88815C17.5958 8.87675 17.5649 8.88372 17.5458 8.90542L17.2293 9.26605Z" fill="#F1B72A"/>
<path d="M13.5623 10.9326C13.5197 10.9811 13.4399 10.9468 13.4458 10.8825L13.4899 10.4047C13.4926 10.3759 13.4764 10.3487 13.4499 10.3373L13.0091 10.1477C12.9498 10.1222 12.9577 10.0356 13.0207 10.0214L13.4888 9.91569C13.517 9.90932 13.5378 9.88556 13.5405 9.85679L13.5846 9.37896C13.5905 9.31466 13.6753 9.29552 13.7083 9.35102L13.9535 9.76352C13.9682 9.78836 13.9973 9.80086 14.0255 9.79449L14.4935 9.68879C14.5565 9.67456 14.6009 9.74926 14.5583 9.79779L14.2418 10.1584C14.2227 10.1801 14.2198 10.2117 14.2346 10.2365L14.4797 10.649C14.5127 10.7045 14.4554 10.7698 14.3961 10.7443L13.9553 10.5547C13.9288 10.5433 13.8979 10.5502 13.8788 10.5719L13.5623 10.9326Z" fill="#FF7707"/>
<path d="M16.8963 18.5996C16.8537 18.6481 16.7739 18.6137 16.7798 18.5494L16.8239 18.0716C16.8266 18.0429 16.8104 18.0157 16.7839 18.0043L16.3431 17.8146C16.2838 17.7891 16.2917 17.7026 16.3547 17.6884L16.8228 17.5827C16.851 17.5763 16.8718 17.5525 16.8745 17.5238L16.9186 17.046C16.9245 16.9817 17.0093 16.9625 17.0423 17.018L17.2875 17.4305C17.3022 17.4553 17.3313 17.4679 17.3595 17.4615L17.8275 17.3558C17.8905 17.3416 17.9349 17.4163 17.8923 17.4648L17.5758 17.8254C17.5567 17.8471 17.5538 17.8786 17.5686 17.9034L17.8137 18.3159C17.8467 18.3714 17.7894 18.4368 17.7301 18.4112L17.2893 18.2216C17.2628 18.2102 17.2319 18.2172 17.2128 18.2389L16.8963 18.5996Z" fill="#2EAEE3"/>
<path d="M14.2987 17.624C14.2561 17.6726 14.1763 17.6383 14.1822 17.5739L14.2071 17.3042C14.2098 17.2755 14.1936 17.2483 14.1671 17.2369L13.9183 17.1298C13.859 17.1043 13.8669 17.0178 13.9299 17.0036L14.1941 16.9439C14.2223 16.9375 14.2432 16.9138 14.2458 16.885L14.2707 16.6153C14.2767 16.551 14.3614 16.5318 14.3944 16.5874L14.5328 16.8202C14.5476 16.845 14.5766 16.8575 14.6048 16.8512L14.869 16.7915C14.932 16.7773 14.9764 16.852 14.9338 16.9005L14.7551 17.1041C14.7361 17.1258 14.7332 17.1573 14.7479 17.1821L14.8863 17.4149C14.9193 17.4705 14.862 17.5358 14.8027 17.5102L14.5539 17.4032C14.5273 17.3918 14.4965 17.3988 14.4774 17.4205L14.2987 17.624Z" fill="#FF7707"/>
<path d="M15.6624 16.1738C15.6198 16.2224 15.5399 16.188 15.5459 16.1237L15.5972 15.5677C15.5999 15.539 15.5837 15.5118 15.5572 15.5004L15.0442 15.2797C14.9849 15.2542 14.9929 15.1677 15.0559 15.1535L15.6005 15.0305C15.6287 15.0241 15.6496 15.0003 15.6522 14.9716L15.7035 14.4156C15.7095 14.3513 15.7942 14.3321 15.8272 14.3876L16.1125 14.8676C16.1273 14.8924 16.1564 14.9049 16.1845 14.8986L16.7292 14.7756C16.7922 14.7614 16.8366 14.836 16.794 14.8846L16.4256 15.3042C16.4066 15.3259 16.4037 15.3574 16.4184 15.3823L16.7037 15.8623C16.7367 15.9178 16.6794 15.9831 16.6201 15.9576L16.1071 15.7369C16.0806 15.7255 16.0497 15.7325 16.0307 15.7542L15.6624 16.1738Z" fill="#FF7707"/>
<path d="M13.6624 13.8408C13.6198 13.8894 13.5399 13.855 13.5459 13.7907L13.5972 13.2347C13.5999 13.206 13.5837 13.1788 13.5572 13.1674L13.0442 12.9467C12.9849 12.9212 12.9929 12.8347 13.0559 12.8205L13.6005 12.6975C13.6287 12.6911 13.6496 12.6673 13.6522 12.6386L13.7035 12.0826C13.7095 12.0183 13.7942 11.9991 13.8272 12.0546L14.1125 12.5346C14.1273 12.5594 14.1564 12.5719 14.1845 12.5656L14.7292 12.4426C14.7922 12.4284 14.8366 12.503 14.794 12.5516L14.4256 12.9712C14.4066 12.9929 14.4037 13.0244 14.4184 13.0493L14.7037 13.5293C14.7367 13.5848 14.6794 13.6501 14.6201 13.6246L14.1071 13.4039C14.0806 13.3925 14.0497 13.3995 14.0307 13.4212L13.6624 13.8408Z" fill="#2EAEE3"/>
<path d="M16.1099 11.6412C16.0673 11.6898 15.9874 11.6554 15.9933 11.5911L16.0288 11.2078C16.0314 11.179 16.0152 11.1518 15.9887 11.1404L15.6351 10.9883C15.5758 10.9628 15.5837 10.8763 15.6467 10.8621L16.0222 10.7772C16.0504 10.7709 16.0713 10.7471 16.0739 10.7183L16.1093 10.335C16.1152 10.2707 16.2 10.2516 16.233 10.3071L16.4297 10.638C16.4445 10.6628 16.4735 10.6753 16.5017 10.669L16.8772 10.5842C16.9402 10.5699 16.9846 10.6446 16.942 10.6932L16.688 10.9825C16.669 11.0042 16.6661 11.0357 16.6808 11.0605L16.8775 11.3914C16.9105 11.447 16.8532 11.5123 16.7939 11.4868L16.4403 11.3346C16.4137 11.3232 16.3829 11.3302 16.3638 11.3519L16.1099 11.6412Z" fill="#ED217B"/>
<path d="M17.9974 12.6103C17.9761 12.6346 17.9362 12.6174 17.9391 12.5853L17.983 12.1106C17.9843 12.0962 17.9762 12.0826 17.9629 12.0769L17.525 11.8886C17.4954 11.8758 17.4994 11.8326 17.5309 11.8254L17.9958 11.7204C18.0099 11.7173 18.0204 11.7054 18.0217 11.691L18.0655 11.2163C18.0685 11.1842 18.1108 11.1746 18.1273 11.2024L18.3709 11.6121C18.3783 11.6245 18.3928 11.6308 18.4069 11.6276L18.8719 11.5226C18.9034 11.5155 18.9256 11.5528 18.9043 11.5771L18.5898 11.9353C18.5803 11.9462 18.5788 11.962 18.5862 11.9744L18.8298 12.3841C18.8463 12.4119 18.8176 12.4445 18.7879 12.4318L18.35 12.2434C18.3368 12.2377 18.3214 12.2412 18.3118 12.2521L17.9974 12.6103Z" fill="#8CC43E"/>
<path d="M19.3982 9.86664C19.3556 9.91517 19.2758 9.88084 19.2817 9.81654L19.3139 9.46817C19.3165 9.43941 19.3004 9.41221 19.2738 9.40081L18.9524 9.26254C18.8931 9.23704 18.9011 9.15051 18.9641 9.13627L19.3054 9.05921C19.3336 9.05284 19.3544 9.02907 19.3571 9.00031L19.3892 8.65191C19.3951 8.58761 19.4799 8.56847 19.5129 8.62397L19.6917 8.92474C19.7064 8.94957 19.7355 8.96207 19.7637 8.95571L20.105 8.87864C20.1679 8.86441 20.2123 8.93911 20.1697 8.98764L19.9389 9.25057C19.9199 9.27227 19.917 9.30381 19.9317 9.32861L20.1105 9.62937C20.1435 9.68487 20.0862 9.75021 20.0269 9.72467L19.7054 9.58644C19.6789 9.57504 19.6481 9.58201 19.629 9.60371L19.3982 9.86664Z" fill="#2EAEE3"/>
<path d="M19.5208 7.26108C19.4782 7.30961 19.3984 7.27528 19.4043 7.21098L19.5181 5.97858C19.5207 5.94981 19.5046 5.92261 19.478 5.91121L18.3411 5.42218C18.2818 5.39668 18.2898 5.31015 18.3528 5.29591L19.56 5.02328C19.5882 5.01691 19.609 4.99315 19.6117 4.96438L19.7254 3.73199C19.7314 3.66769 19.8161 3.64854 19.8491 3.70406L20.4815 4.76795C20.4962 4.79278 20.5253 4.80528 20.5535 4.79891L21.7607 4.52628C21.8237 4.51205 21.8681 4.58675 21.8255 4.63528L21.0091 5.56545C20.99 5.58715 20.9871 5.61865 21.0019 5.64348L21.6342 6.70735C21.6672 6.76288 21.6099 6.82818 21.5506 6.80265L20.4137 6.31365C20.3871 6.30225 20.3563 6.30921 20.3372 6.33091L19.5208 7.26108Z" fill="#2EAEE3"/>
<path d="M23.6807 6.22055C23.6381 6.26908 23.5583 6.23475 23.5642 6.17045L23.6169 5.59942C23.6196 5.57065 23.6034 5.54345 23.5769 5.53202L23.0501 5.30545C22.9908 5.27992 22.9988 5.19342 23.0617 5.17918L23.6211 5.05285C23.6493 5.04648 23.6702 5.02272 23.6728 4.99395L23.7255 4.42292C23.7315 4.35862 23.8162 4.33945 23.8492 4.39498L24.1422 4.88792C24.157 4.91275 24.186 4.92525 24.2142 4.91888L24.7736 4.79258C24.8366 4.77835 24.881 4.85305 24.8384 4.90158L24.4601 5.33258C24.441 5.35428 24.4381 5.38578 24.4529 5.41062L24.7459 5.90355C24.7789 5.95908 24.7216 6.02438 24.6622 5.99888L24.1354 5.77228C24.1089 5.76088 24.0781 5.76785 24.059 5.78955L23.6807 6.22055Z" fill="#ED217B"/>
<path d="M56.7961 19.7046C58.2998 19.8153 59.4164 20.1896 60.1458 20.8276C60.8748 21.4657 61.2394 22.2632 61.2394 23.2202C61.2394 24.0536 60.9921 24.773 60.4971 25.3784C60.0024 25.9774 59.3678 26.3713 58.5928 26.5601C57.8248 26.7424 56.7928 26.8335 55.4971 26.8335H50.3018V26.3843H50.8098C51.3761 26.3843 51.7668 26.3127 51.9814 26.1694C52.2028 26.0262 52.3428 25.8049 52.4014 25.5054C52.4601 25.1994 52.4894 24.493 52.4894 23.3862V16.9409C52.4894 15.8667 52.4568 15.1733 52.3918 14.8608C52.3331 14.5483 52.2028 14.3335 52.0011 14.2163C51.8058 14.0991 51.3728 14.0405 50.7021 14.0405H50.4484V13.5913L52.6261 13.5327L55.1064 13.4546C58.7264 13.4546 60.5361 14.4963 60.5361 16.5796C60.5361 17.439 60.2238 18.1291 59.5988 18.6499C58.9801 19.1707 58.0461 19.5223 56.7961 19.7046ZM54.4034 19.519C54.5661 19.5256 54.7028 19.5288 54.8134 19.5288C56.2198 19.5288 57.1801 19.3075 57.6944 18.8648C58.2088 18.422 58.4658 17.7059 58.4658 16.7163C58.4658 16.0262 58.3651 15.4924 58.1631 15.1148C57.9614 14.7371 57.6588 14.4474 57.2551 14.2456C56.8514 14.0373 56.1611 13.9331 55.1848 13.9331C54.9308 13.9331 54.6704 13.9429 54.4034 13.9624V19.519ZM54.4034 19.9976V22.9468C54.4034 24.2033 54.4261 25.0008 54.4718 25.3394C54.5174 25.6779 54.6378 25.9351 54.8331 26.1108C55.0348 26.2866 55.4288 26.3745 56.0148 26.3745C57.0564 26.3745 57.8378 26.1076 58.3584 25.5737C58.8794 25.0399 59.1398 24.2391 59.1398 23.1714C59.1398 22.0776 58.8434 21.2736 58.2511 20.7593C57.6651 20.2384 56.6301 19.978 55.1458 19.978C54.9111 19.978 54.6638 19.9845 54.4034 19.9976Z" fill="black"/>
<path d="M76.6795 26.8335H73.1151C72.4835 26.3908 71.5168 25.2319 70.2148 23.3569C69.7982 22.758 69.3652 22.1851 68.9158 21.6382C68.4665 21.0848 68.1575 20.7495 67.9881 20.6323C67.8188 20.5086 67.5551 20.4468 67.1971 20.4468H66.6698V23.3862C66.6698 24.4279 66.6925 25.1115 66.7381 25.437C66.7901 25.756 66.9205 25.9937 67.1288 26.1499C67.3435 26.3062 67.7505 26.3843 68.3495 26.3843H68.9842V26.8335H62.6465V26.3843H63.0762C63.6425 26.3843 64.0332 26.3127 64.2478 26.1694C64.4692 26.0262 64.6091 25.8049 64.6678 25.5054C64.7265 25.1994 64.7558 24.493 64.7558 23.3862V16.8921C64.7558 15.8374 64.7265 15.1571 64.6678 14.8511C64.6091 14.5451 64.4792 14.3335 64.2772 14.2163C64.0755 14.0991 63.6392 14.0405 62.9685 14.0405H62.7438V13.5913L64.6385 13.4937C65.9015 13.4351 66.9042 13.4058 67.6465 13.4058C68.9095 13.4058 69.9348 13.523 70.7225 13.7573C71.5168 13.9917 72.1582 14.3758 72.6465 14.9097C73.1345 15.4435 73.3788 16.0815 73.3788 16.8237C73.3788 17.6896 73.0598 18.4286 72.4218 19.0405C71.7838 19.6525 70.8462 20.0334 69.6092 20.1831C70.1625 20.45 71.0545 21.4136 72.2852 23.0737C73.2875 24.4214 74.0755 25.3036 74.6481 25.7202C75.2211 26.1369 75.8982 26.3582 76.6795 26.3843V26.8335ZM66.6698 19.9976C67.1581 19.9845 67.6625 19.965 68.1835 19.939C68.7041 19.9129 69.1568 19.8413 69.5408 19.7241C69.9248 19.6069 70.2342 19.4377 70.4685 19.2163C70.7095 18.9884 70.8982 18.6922 71.0352 18.3276C71.1718 17.9631 71.2401 17.5138 71.2401 16.98C71.2401 16.049 71.0058 15.3036 70.5368 14.7437C70.0748 14.1838 69.0625 13.9038 67.4998 13.9038C67.2588 13.9038 66.9821 13.9168 66.6698 13.9429V19.9976Z" fill="black"/>
<path d="M77.2451 14.0405V13.5913H83.2998V14.0405H83.0168C82.3658 14.0405 81.9391 14.0959 81.7375 14.2065C81.5355 14.3107 81.3988 14.5093 81.3271 14.8022C81.2621 15.0952 81.2295 15.7918 81.2295 16.8921V23.3862C81.2295 24.4279 81.2525 25.1115 81.2981 25.437C81.3501 25.756 81.4801 25.9937 81.6885 26.1499C81.9035 26.3062 82.3105 26.3843 82.9095 26.3843H83.2998V26.8335H77.2451V26.3843H77.6358C78.2021 26.3843 78.5928 26.3127 78.8078 26.1694C79.0291 26.0262 79.1691 25.8049 79.2278 25.5054C79.2861 25.1994 79.3155 24.493 79.3155 23.3862V16.8921C79.3155 15.8374 79.2861 15.1571 79.2278 14.8511C79.1691 14.5451 79.0388 14.3335 78.8371 14.2163C78.6351 14.0991 78.1991 14.0405 77.5285 14.0405H77.2451Z" fill="black"/>
<path d="M93.0461 21.1792H98.7588V21.648C98.1274 21.648 97.6978 21.7131 97.4698 21.8433C97.2484 21.967 97.1021 22.1786 97.0304 22.478C96.9588 22.771 96.9231 23.4871 96.9231 24.6265V26.0327C96.7668 26.0067 96.6268 25.9937 96.5031 25.9937C96.0018 25.9937 95.3441 26.1467 94.5304 26.4526C93.4234 26.8693 92.3981 27.0776 91.4541 27.0776C89.5598 27.0776 87.9841 26.4559 86.7278 25.2124C85.4711 23.9624 84.8428 22.3804 84.8428 20.4663C84.8428 18.5718 85.4418 16.9116 86.6398 15.4858C87.8378 14.0601 89.4651 13.3472 91.5224 13.3472C93.2934 13.3472 94.7581 13.9982 95.9171 15.3003C96.1318 14.8446 96.2688 14.353 96.3271 13.8257H96.7961V18.2495H96.3271C96.1384 16.8888 95.6208 15.8114 94.7744 15.0171C93.9348 14.2228 92.9124 13.8257 91.7081 13.8257C90.4648 13.8257 89.3808 14.2879 88.4561 15.2124C87.5318 16.1369 87.0694 17.7775 87.0694 20.1343C87.0694 22.4845 87.5154 24.1512 88.4074 25.1343C89.2991 26.1108 90.4061 26.5991 91.7278 26.5991C92.4048 26.5991 93.0201 26.4624 93.5734 26.189C94.1268 25.909 94.5044 25.5705 94.7061 25.1733C94.9081 24.7762 95.0088 24.2749 95.0088 23.6694C95.0088 22.9598 94.9601 22.4878 94.8624 22.2534C94.7711 22.0125 94.6281 21.853 94.4328 21.7749C94.2374 21.6903 93.8794 21.648 93.3584 21.648H93.0461V21.1792Z" fill="black"/>
<path d="M110.722 20.1929H103.808V23.3862C103.808 24.4279 103.834 25.1115 103.886 25.437C103.938 25.756 104.068 25.9937 104.276 26.1499C104.491 26.3062 104.895 26.3843 105.487 26.3843H105.829V26.8335H99.8721V26.3843H100.214C100.78 26.3843 101.171 26.3127 101.386 26.1694C101.607 26.0262 101.747 25.8049 101.806 25.5054C101.871 25.1994 101.903 24.493 101.903 23.3862V16.8921C101.903 15.8374 101.871 15.1571 101.806 14.8511C101.747 14.5451 101.617 14.3335 101.415 14.2163C101.22 14.0991 100.787 14.0405 100.116 14.0405H99.8721V13.5913H105.829V14.0405H105.585C104.94 14.0405 104.517 14.0959 104.315 14.2065C104.114 14.3107 103.977 14.5093 103.905 14.8022C103.84 15.0952 103.808 15.7918 103.808 16.8921V19.519H110.722V16.8921C110.722 15.8374 110.692 15.1571 110.634 14.8511C110.575 14.5451 110.445 14.3335 110.243 14.2163C110.048 14.0991 109.615 14.0405 108.944 14.0405H108.593V13.5913H114.618V14.0405H114.423C113.772 14.0405 113.345 14.0959 113.144 14.2065C112.942 14.3107 112.805 14.5093 112.733 14.8022C112.668 15.0952 112.636 15.7918 112.636 16.8921V23.3862C112.636 24.4279 112.659 25.1115 112.704 25.437C112.756 25.756 112.89 25.9937 113.104 26.1499C113.319 26.3062 113.723 26.3843 114.315 26.3843H114.618V26.8335H108.593V26.3843H109.052C109.612 26.3843 109.999 26.3127 110.214 26.1694C110.435 26.0262 110.575 25.8049 110.634 25.5054C110.692 25.1994 110.722 24.493 110.722 23.3862V20.1929Z" fill="black"/>
<path d="M116.259 16.7749H115.81L115.878 13.5913H128.729L128.798 16.7749H128.378C128.228 15.9025 128.023 15.2743 127.763 14.8901C127.502 14.4995 127.222 14.2619 126.923 14.1772C126.623 14.0861 126.112 14.0405 125.39 14.0405H123.261V23.3862C123.261 24.4214 123.284 25.1017 123.329 25.4272C123.381 25.7528 123.515 25.9937 123.729 26.1499C123.944 26.3062 124.348 26.3843 124.94 26.3843H125.585V26.8335H118.983V26.3843H119.667C120.233 26.3843 120.624 26.3127 120.839 26.1694C121.06 26.0262 121.2 25.8049 121.259 25.5054C121.324 25.1994 121.356 24.493 121.356 23.3862V14.0405H119.394C118.541 14.0405 117.968 14.0828 117.675 14.1675C117.382 14.2456 117.105 14.4898 116.845 14.8999C116.591 15.3101 116.396 15.9351 116.259 16.7749Z" fill="black"/>
<path d="M145.116 13.5913L145.224 16.8921H144.765C144.673 16.1694 144.468 15.5737 144.149 15.105C143.837 14.6297 143.508 14.3335 143.163 14.2163C142.818 14.0991 142.235 14.0405 141.415 14.0405H138.827V19.6558H140.067C140.868 19.6558 141.399 19.5223 141.659 19.2554C141.926 18.9819 142.06 18.4383 142.06 17.6245H142.548V22.2925H142.06C142.06 21.7261 142.001 21.2801 141.884 20.9546C141.773 20.6226 141.604 20.398 141.376 20.2808C141.155 20.1571 140.718 20.0952 140.067 20.0952H138.827V23.3862C138.827 24.4279 138.853 25.1115 138.905 25.437C138.957 25.756 139.088 25.9937 139.296 26.1499C139.511 26.3062 139.921 26.3843 140.526 26.3843H140.976V26.8335H134.823V26.3843H135.233C135.8 26.3843 136.19 26.3127 136.405 26.1694C136.627 26.0262 136.767 25.8049 136.825 25.5054C136.89 25.1994 136.923 24.493 136.923 23.3862V16.8921C136.923 15.8374 136.89 15.1571 136.825 14.8511C136.767 14.5451 136.636 14.3335 136.435 14.2163C136.239 14.0991 135.806 14.0405 135.136 14.0405H134.901V13.5913H145.116Z" fill="black"/>
<path d="M155.888 13.5913H160.312V14.0405C159.726 14.0796 159.286 14.2131 158.993 14.4409C158.707 14.6623 158.531 14.9129 158.466 15.1929C158.401 15.4728 158.368 16.0164 158.368 16.8237V21.228C158.368 22.3543 158.323 23.1909 158.231 23.7378C158.147 24.2847 157.893 24.8218 157.47 25.3491C157.053 25.8765 156.464 26.2964 155.702 26.6089C154.94 26.9214 154.062 27.0776 153.065 27.0776C151.887 27.0776 150.888 26.8791 150.067 26.4819C149.254 26.0783 148.671 25.5607 148.319 24.9292C147.974 24.2912 147.802 23.4383 147.802 22.3706L147.812 21.0132V16.8921C147.812 15.8374 147.779 15.1571 147.714 14.8511C147.655 14.5451 147.525 14.3335 147.323 14.2163C147.128 14.0991 146.695 14.0405 146.024 14.0405H145.722V13.5913H151.767V14.0405H151.503C150.852 14.0405 150.425 14.0959 150.224 14.2065C150.022 14.3107 149.885 14.5093 149.813 14.8022C149.748 15.0952 149.716 15.7918 149.716 16.8921V21.062C149.716 22.5073 149.781 23.5327 149.911 24.1382C150.048 24.7437 150.425 25.2743 151.044 25.73C151.662 26.1792 152.486 26.4038 153.515 26.4038C154.322 26.4038 155.054 26.2541 155.712 25.9546C156.376 25.6486 156.868 25.271 157.187 24.8218C157.512 24.3661 157.711 23.9006 157.782 23.4253C157.854 22.9435 157.89 22.1883 157.89 21.1597V16.648C157.89 15.8993 157.847 15.3752 157.763 15.0757C157.678 14.7762 157.496 14.5386 157.216 14.3628C156.936 14.187 156.493 14.0796 155.888 14.0405V13.5913Z" fill="black"/>
<path d="M161.708 16.7749H161.259L161.327 13.5913H174.179L174.247 16.7749H173.827C173.677 15.9025 173.472 15.2743 173.212 14.8901C172.951 14.4995 172.672 14.2619 172.372 14.1772C172.073 14.0861 171.562 14.0405 170.839 14.0405H168.71V23.3862C168.71 24.4214 168.733 25.1017 168.778 25.4272C168.83 25.7528 168.964 25.9937 169.179 26.1499C169.394 26.3062 169.797 26.3843 170.39 26.3843H171.034V26.8335H164.433V26.3843H165.116C165.683 26.3843 166.073 26.3127 166.288 26.1694C166.509 26.0262 166.649 25.8049 166.708 25.5054C166.773 25.1994 166.806 24.493 166.806 23.3862V14.0405H164.843C163.99 14.0405 163.417 14.0828 163.124 14.1675C162.831 14.2456 162.554 14.4898 162.294 14.8999C162.04 15.3101 161.845 15.9351 161.708 16.7749Z" fill="black"/>
<path d="M185.282 13.5913H189.706V14.0405C189.12 14.0796 188.681 14.2131 188.388 14.4409C188.101 14.6623 187.925 14.9129 187.86 15.1929C187.795 15.4728 187.763 16.0164 187.763 16.8237V21.228C187.763 22.3543 187.717 23.1909 187.626 23.7378C187.541 24.2847 187.287 24.8218 186.864 25.3491C186.448 25.8765 185.858 26.2964 185.097 26.6089C184.335 26.9214 183.456 27.0776 182.46 27.0776C181.282 27.0776 180.282 26.8791 179.462 26.4819C178.648 26.0783 178.065 25.5607 177.714 24.9292C177.369 24.2912 177.196 23.4383 177.196 22.3706L177.206 21.0132V16.8921C177.206 15.8374 177.173 15.1571 177.108 14.8511C177.05 14.5451 176.92 14.3335 176.718 14.2163C176.522 14.0991 176.09 14.0405 175.419 14.0405H175.116V13.5913H181.161V14.0405H180.897C180.246 14.0405 179.82 14.0959 179.618 14.2065C179.416 14.3107 179.28 14.5093 179.208 14.8022C179.143 15.0952 179.11 15.7918 179.11 16.8921V21.062C179.11 22.5073 179.175 23.5327 179.306 24.1382C179.442 24.7437 179.82 25.2743 180.438 25.73C181.057 26.1792 181.881 26.4038 182.909 26.4038C183.716 26.4038 184.449 26.2541 185.106 25.9546C185.77 25.6486 186.262 25.271 186.581 24.8218C186.907 24.3661 187.105 23.9006 187.177 23.4253C187.248 22.9435 187.284 22.1883 187.284 21.1597V16.648C187.284 15.8993 187.242 15.3752 187.157 15.0757C187.073 14.7762 186.89 14.5386 186.61 14.3628C186.33 14.187 185.888 14.0796 185.282 14.0405V13.5913Z" fill="black"/>
<path d="M204.687 26.8335H201.122C200.491 26.3908 199.524 25.2319 198.222 23.3569C197.805 22.758 197.372 22.1851 196.923 21.6382C196.474 21.0848 196.164 20.7495 195.995 20.6323C195.826 20.5086 195.562 20.4468 195.204 20.4468H194.677V23.3862C194.677 24.4279 194.7 25.1115 194.745 25.437C194.797 25.756 194.927 25.9937 195.136 26.1499C195.351 26.3062 195.757 26.3843 196.356 26.3843H196.991V26.8335H190.653V26.3843H191.083C191.649 26.3843 192.04 26.3127 192.255 26.1694C192.476 26.0262 192.616 25.8049 192.675 25.5054C192.733 25.1994 192.763 24.493 192.763 23.3862V16.8921C192.763 15.8374 192.733 15.1571 192.675 14.8511C192.616 14.5451 192.486 14.3335 192.284 14.2163C192.082 14.0991 191.646 14.0405 190.976 14.0405H190.751V13.5913L192.646 13.4937C193.909 13.4351 194.911 13.4058 195.653 13.4058C196.916 13.4058 197.942 13.523 198.729 13.7573C199.524 13.9917 200.165 14.3758 200.653 14.9097C201.142 15.4435 201.386 16.0815 201.386 16.8237C201.386 17.6896 201.067 18.4286 200.429 19.0405C199.791 19.6525 198.853 20.0334 197.616 20.1831C198.17 20.45 199.062 21.4136 200.292 23.0737C201.295 24.4214 202.082 25.3036 202.655 25.7202C203.228 26.1369 203.905 26.3582 204.687 26.3843V26.8335ZM194.677 19.9976C195.165 19.9845 195.67 19.965 196.19 19.939C196.711 19.9129 197.164 19.8413 197.548 19.7241C197.932 19.6069 198.241 19.4377 198.476 19.2163C198.716 18.9884 198.905 18.6922 199.042 18.3276C199.179 17.9631 199.247 17.5138 199.247 16.98C199.247 16.049 199.013 15.3036 198.544 14.7437C198.082 14.1838 197.069 13.9038 195.507 13.9038C195.266 13.9038 194.989 13.9168 194.677 13.9429V19.9976Z" fill="black"/>
<path d="M216.151 22.7124H216.62L216.337 26.8335H205.37V26.3843H205.644C206.301 26.3843 206.724 26.2964 206.913 26.1206C207.108 25.9448 207.232 25.7235 207.284 25.4565C207.336 25.1831 207.362 24.493 207.362 23.3862V16.8921C207.362 15.883 207.333 15.2189 207.274 14.8999C207.222 14.5809 207.095 14.3595 206.894 14.2358C206.698 14.1056 206.282 14.0405 205.644 14.0405V13.5913H215.106L215.419 16.8921H214.96C214.752 15.9676 214.494 15.3133 214.188 14.9292C213.889 14.5386 213.531 14.2944 213.114 14.1968C212.698 14.0926 212.027 14.0405 211.103 14.0405H209.267V19.5972H210.673C211.317 19.5972 211.767 19.5418 212.02 19.4312C212.281 19.3205 212.45 19.1545 212.528 18.9331C212.613 18.7052 212.655 18.2658 212.655 17.6148H213.114V22.146H212.655C212.655 21.4103 212.593 20.9188 212.47 20.6714C212.346 20.4175 212.164 20.2547 211.923 20.1831C211.688 20.105 211.288 20.0659 210.722 20.0659H209.267V23.2007C209.267 24.7697 209.368 25.6942 209.569 25.9741C209.771 26.2476 210.315 26.3843 211.2 26.3843H212.187C212.883 26.3843 213.456 26.2964 213.905 26.1206C214.354 25.9383 214.781 25.5705 215.185 25.0171C215.595 24.4572 215.917 23.689 216.151 22.7124Z" fill="black"/>
<path d="M218.388 26.6968V22.439H218.876C219.429 25.2124 220.741 26.5991 222.812 26.5991C223.743 26.5991 224.462 26.3355 224.97 25.8081C225.484 25.2743 225.741 24.6786 225.741 24.021C225.741 23.3569 225.517 22.8003 225.067 22.3511C224.618 21.9084 223.798 21.4331 222.606 20.9253C221.545 20.4696 220.744 20.0724 220.204 19.7339C219.664 19.3888 219.241 18.9429 218.935 18.396C218.635 17.8491 218.485 17.2664 218.485 16.648C218.485 15.7039 218.811 14.9194 219.462 14.2944C220.119 13.6629 220.95 13.3472 221.952 13.3472C222.512 13.3472 223.039 13.4383 223.534 13.6206C224.029 13.8029 224.537 14.1805 225.058 14.7534C225.357 14.3953 225.526 14.008 225.565 13.5913H225.995V17.0581H225.565C225.318 16.049 224.879 15.2547 224.247 14.6753C223.622 14.0959 222.896 13.8062 222.069 13.8062C221.282 13.8062 220.702 14.021 220.331 14.4507C219.966 14.8739 219.784 15.3394 219.784 15.8472C219.784 16.4592 220.015 16.9767 220.478 17.3999C220.933 17.8296 221.757 18.3114 222.948 18.8452C224.088 19.353 224.914 19.7632 225.429 20.0757C225.95 20.3817 226.366 20.8081 226.679 21.355C226.991 21.9019 227.147 22.5334 227.147 23.2495C227.147 24.3823 226.77 25.3036 226.015 26.0132C225.259 26.7228 224.25 27.0776 222.987 27.0776C221.535 27.0776 220.325 26.521 219.354 25.4077C219.14 25.7137 218.98 26.1434 218.876 26.6968H218.388Z" fill="black"/>
</svg>
