<svg width="145" height="21" viewBox="0 0 145 21" fill="none" xmlns="http://www.w3.org/2000/svg">
<g clip-path="url(#clip0_1370_984)">
<g clip-path="url(#clip1_1370_984)">
<g clip-path="url(#clip2_1370_984)">
<mask id="mask0_1370_984" style="mask-type:luminance" maskUnits="userSpaceOnUse" x="0" y="0" width="145" height="21">
<path d="M144.364 0.00292969H0V20.7975H144.364V0.00292969Z" fill="white"/>
</mask>
<g mask="url(#mask0_1370_984)">
<path d="M120.666 5.06057C121.841 5.92703 122.38 7.24877 122.617 8.65432C122.944 10.8887 122.829 13.3633 121.534 15.2838C120.996 16.005 120.238 16.4999 119.34 16.6385C118.356 16.6946 117.475 16.6158 116.662 16.0042C116.487 15.8297 116.487 15.8297 116.309 15.6517C116.286 17.3498 116.263 19.0479 116.239 20.7975C115.448 20.7975 114.657 20.7975 113.842 20.7975C113.842 15.5171 113.842 10.2367 113.842 4.79623C114.563 4.79623 115.284 4.79623 116.027 4.79623C116.074 5.09862 116.12 5.40106 116.168 5.7126C116.245 5.6283 116.322 5.54396 116.402 5.45708C117.5 4.36041 119.365 4.25187 120.666 5.06057ZM116.521 7.54535C116.266 7.8702 116.203 8.08197 116.2 8.49266C116.199 8.54336 116.199 8.5941 116.198 8.64633C116.196 8.81298 116.196 8.97959 116.196 9.14624C116.196 9.26281 116.195 9.37938 116.194 9.49596C116.193 9.73996 116.193 9.98392 116.194 10.228C116.195 10.5396 116.192 10.8511 116.189 11.1627C116.187 11.4034 116.187 11.6441 116.187 11.8848C116.187 11.9996 116.187 12.1144 116.185 12.2292C116.163 13.0335 116.163 13.0335 116.548 13.7148C116.585 13.7492 116.623 13.7835 116.662 13.8189C116.702 13.86 116.743 13.901 116.785 13.9432C117.151 14.3055 117.592 14.4563 118.102 14.4842C118.701 14.4581 119.169 14.2037 119.569 13.7669C120.5 12.5643 120.457 10.7596 120.306 9.31596C120.177 8.48276 119.878 7.68155 119.198 7.14855C118.296 6.52554 117.227 6.7809 116.521 7.54535Z" fill="black"/>
<path d="M124.979 0.00292969C125.77 0.00292969 126.56 0.00292969 127.375 0.00292969C127.398 1.88713 127.421 3.77132 127.446 5.71261C127.678 5.50325 127.911 5.29389 128.151 5.07821C128.408 4.9262 128.408 4.9262 128.631 4.83151C128.743 4.78243 128.743 4.78243 128.857 4.73236C129.719 4.41599 130.85 4.48661 131.675 4.86673C132.517 5.34517 132.949 6.12738 133.208 7.03431C133.359 7.60566 133.377 8.14878 133.375 8.7368C133.375 8.82006 133.375 8.90333 133.375 8.98908C133.375 9.21612 133.375 9.44311 133.374 9.67015C133.373 9.90787 133.373 10.1456 133.373 10.3834C133.373 10.8329 133.372 11.2826 133.372 11.7321C133.371 12.2442 133.371 12.7563 133.37 13.2684C133.37 14.3213 133.368 15.3742 133.367 16.4271C132.576 16.4271 131.785 16.4271 130.97 16.4271C130.969 16.1863 130.969 15.9456 130.968 15.6975C130.966 14.8996 130.962 14.1017 130.957 13.3037C130.954 12.8203 130.952 12.3368 130.951 11.8533C130.95 11.3862 130.947 10.9191 130.944 10.452C130.943 10.2743 130.942 10.0966 130.942 9.91889C131.004 8.53422 131.004 8.53422 130.521 7.27778C130.113 6.89936 129.605 6.88314 129.08 6.89387C128.511 6.93712 128.104 7.1889 127.728 7.61585C127.416 8.04967 127.405 8.40405 127.407 8.92886C127.406 9.01004 127.406 9.09123 127.405 9.1749C127.403 9.44228 127.403 9.70961 127.403 9.97699C127.401 10.1628 127.4 10.3485 127.399 10.5343C127.396 10.9727 127.395 11.4111 127.394 11.8494C127.393 12.3487 127.39 12.848 127.387 13.3474C127.382 14.374 127.378 15.4005 127.375 16.4271C126.584 16.4271 125.793 16.4271 124.979 16.4271C124.979 11.0071 124.979 5.58714 124.979 0.00292969Z" fill="black"/>
<path d="M104.445 5.36281C105.207 6.00724 105.6 6.84243 105.735 7.82722C105.745 8.03824 105.746 8.24897 105.747 8.46024C105.747 8.52254 105.748 8.58484 105.748 8.64902C105.75 8.78393 105.75 8.9188 105.751 9.05368C105.752 9.26807 105.754 9.4825 105.756 9.69689C105.76 10.3064 105.765 10.9159 105.768 11.5254C105.771 11.8989 105.774 12.2723 105.777 12.6457C105.778 12.7871 105.779 12.9285 105.78 13.0699C105.784 13.977 105.793 14.8784 106.026 15.7617C106.087 16.004 106.087 16.004 106.087 16.427C105.296 16.427 104.506 16.427 103.691 16.427C103.453 15.7926 103.453 15.7926 103.479 15.5106C103.433 15.5106 103.386 15.5106 103.338 15.5106C103.315 15.5804 103.292 15.6502 103.268 15.7221C102.418 16.473 101.559 16.689 100.449 16.6481C99.5486 16.5873 98.8009 16.1612 98.1924 15.5106C97.4534 14.5765 97.3236 13.5622 97.4172 12.409C97.5436 11.5123 97.9383 10.7481 98.6304 10.1622C100.009 9.12571 101.704 9.20448 103.338 9.237C103.314 8.11135 103.314 8.11135 102.818 7.12232C102.288 6.71787 101.802 6.70851 101.153 6.76985C100.699 6.88709 100.428 7.16765 100.166 7.54524C100.096 7.77789 100.027 8.0105 99.9546 8.25013C99.1872 8.25013 98.4195 8.25013 97.6285 8.25013C97.6285 7.30103 97.8273 6.73421 98.4037 5.99447C98.4461 5.93196 98.4881 5.86945 98.5318 5.80503C99.9907 4.26262 102.783 4.10543 104.445 5.36281ZM100.245 11.613C99.8339 12.0678 99.7811 12.478 99.7919 13.0823C99.8327 13.5386 99.9995 13.8169 100.329 14.1273C100.739 14.445 101.145 14.4896 101.648 14.4293C102.424 14.257 102.91 13.8271 103.338 13.1845C103.358 12.9518 103.358 12.9518 103.352 12.6858C103.352 12.6135 103.352 12.6135 103.352 12.5397C103.351 12.386 103.349 12.2323 103.347 12.0787C103.346 11.9743 103.346 11.87 103.345 11.7657C103.344 11.5102 103.341 11.2547 103.338 10.9993C101.686 10.9199 101.686 10.9199 100.245 11.613Z" fill="black"/>
<path d="M142.572 5.22512C143.391 5.87083 143.846 6.65008 144.012 7.68648C144.023 7.89443 144.023 8.10221 144.024 8.3104C144.025 8.37258 144.025 8.43475 144.026 8.4988C144.026 8.63368 144.027 8.76851 144.028 8.90334C144.029 9.11777 144.031 9.33221 144.033 9.5466C144.038 10.1563 144.042 10.7659 144.046 11.3755C144.048 11.7489 144.05 12.1223 144.054 12.4956C144.055 12.6369 144.056 12.7782 144.056 12.9195C144.061 14.3179 144.061 14.3179 144.303 15.6915C144.364 15.9338 144.364 15.9338 144.364 16.4273C143.573 16.4273 142.782 16.4273 141.968 16.4273C141.898 16.1714 141.828 15.9155 141.756 15.6519C141.558 15.6519 141.51 15.7403 141.368 15.8765C140.597 16.5657 139.723 16.697 138.722 16.6491C137.804 16.5796 137.114 16.1483 136.488 15.4957C135.811 14.6636 135.64 13.6247 135.711 12.5801C135.847 11.5666 136.268 10.7566 137.045 10.0884C138.115 9.3048 139.389 9.22495 140.663 9.23289C140.763 9.23322 140.862 9.23356 140.962 9.23385C141.203 9.23468 141.444 9.2358 141.686 9.2373C141.628 8.02523 141.628 8.02523 141.016 7.01686C140.527 6.72332 140.061 6.71035 139.501 6.77015C139.092 6.89899 138.723 7.08985 138.514 7.47505C138.444 7.7309 138.374 7.9868 138.302 8.25043C137.534 8.25043 136.767 8.25043 135.976 8.25043C135.814 7.60127 136.098 6.95348 136.423 6.39564C137.048 5.40919 137.97 4.87315 139.103 4.61804C140.272 4.41035 141.586 4.5379 142.572 5.22512ZM138.522 11.6471C138.169 12.032 138.045 12.5036 138.066 13.0203C138.126 13.4212 138.261 13.8186 138.567 14.0967C139.041 14.3979 139.454 14.5321 140.021 14.4205C140.723 14.2403 141.177 13.8188 141.615 13.2552C141.718 13.0492 141.694 12.8676 141.692 12.6379C141.692 12.5911 141.692 12.5444 141.692 12.4962C141.692 12.3468 141.691 12.1974 141.69 12.0481C141.69 11.9468 141.689 11.8456 141.689 11.7444C141.688 11.4961 141.687 11.2478 141.686 10.9995C139.993 10.9269 139.993 10.9269 138.522 11.6471Z" fill="black"/>
<path d="M49.2044 5.24638C50.4205 6.20069 50.7503 7.84765 50.9275 9.29545C50.9474 9.53484 50.9587 9.77231 50.9649 10.0125C50.9662 10.0597 50.9678 10.1069 50.9691 10.1556C51.0236 12.1377 50.7907 14.2639 49.3775 15.7695C48.6076 16.4922 47.7717 16.6909 46.7465 16.6586C45.624 16.5974 44.9594 16.1261 44.1273 15.3697C44.104 17.1609 44.0807 18.952 44.057 20.7974C43.6382 20.7974 43.2194 20.7974 42.7881 20.7974C42.7881 15.517 42.7881 10.2366 42.7881 4.79618C43.1836 4.79618 43.5791 4.79618 43.9863 4.79618C44.0096 5.2149 44.0328 5.63362 44.057 6.06502C44.1942 5.90366 44.1942 5.90366 44.3344 5.73901C45.6095 4.32855 47.6652 4.19181 49.2044 5.24638ZM44.9732 6.48794C44.9095 6.54097 44.9095 6.54097 44.8443 6.59507C44.3485 7.03821 44.0487 7.60885 44.0075 8.27365C43.9979 8.55978 43.9983 8.84538 44.0008 9.13159C44.0004 9.25657 44 9.3815 43.9996 9.50644C43.9987 9.76695 43.9996 10.0274 44.0017 10.2879C44.0042 10.6199 44.0029 10.9518 44 11.2837C43.9987 11.5413 43.9992 11.7989 44.0004 12.0564C44.0004 12.1788 44 12.3011 43.9992 12.4234C43.9938 13.2739 44.1031 13.8223 44.6351 14.5145C45.2547 15.1222 45.9276 15.4321 46.7927 15.4666C47.4436 15.4527 47.973 15.2521 48.4434 14.7992C49.7272 13.4188 49.7588 11.4977 49.7081 9.71575C49.6515 8.45976 49.2656 7.25568 48.3727 6.34146C48.1485 6.14791 47.9302 6.02289 47.6519 5.92404C47.5733 5.89496 47.4947 5.86589 47.414 5.83591C46.524 5.65179 45.6478 5.8718 44.9732 6.48794Z" fill="black"/>
<path d="M32.6688 5.21807C33.782 6.09676 34.2684 7.48484 34.4342 8.85561C34.4966 9.47284 34.497 10.0983 34.4704 10.7176C34.3334 10.8546 34.1261 10.7966 33.9438 10.7969C33.8781 10.7967 33.8125 10.7964 33.7448 10.7962C33.6761 10.7962 33.6073 10.7962 33.5364 10.7962C33.308 10.7961 33.0795 10.7956 32.8511 10.795C32.6931 10.7949 32.5352 10.7948 32.3772 10.7947C31.9606 10.7945 31.544 10.7937 31.1274 10.793C30.7027 10.7922 30.2779 10.792 29.8532 10.7916C29.0191 10.7908 28.185 10.7896 27.3509 10.7881C27.3711 11.0127 27.3922 11.2372 27.4134 11.4617C27.4191 11.5247 27.4247 11.5877 27.4305 11.6526C27.5542 12.9405 28.0984 14.0482 29.0845 14.8958C29.7051 15.3411 30.414 15.4276 31.1573 15.37C32.0792 15.1861 32.6973 14.7637 33.2721 14.0307C33.2953 13.9842 33.3186 13.9376 33.3426 13.8897C33.6367 13.9263 33.7834 14.0103 33.999 14.2113C34.0482 14.2565 34.0973 14.3016 34.1479 14.3482C34.1846 14.383 34.2212 14.4178 34.2589 14.4536C34.0115 15.2454 33.2929 15.8595 32.5919 16.2456C31.6051 16.7103 30.4308 16.8149 29.3802 16.4995C28.1 16.0297 27.2098 15.1137 26.6207 13.8916C25.7955 11.9742 25.8422 9.52461 26.5447 7.58028C27.0687 6.30728 27.8387 5.41486 29.0721 4.79706C30.2542 4.33567 31.6294 4.50153 32.6688 5.21807ZM28.3598 6.83355C27.7708 7.62354 27.4214 8.53251 27.4214 9.51933C29.3288 9.51933 31.2363 9.51933 33.2016 9.51933C33.2016 8.30368 32.8584 7.25934 32.0302 6.36518C31.5957 5.94829 31.0474 5.77124 30.4525 5.74812C29.5827 5.77973 28.9206 6.19129 28.3598 6.83355Z" fill="black"/>
<path d="M79.3317 5.21642C79.8923 5.66184 80.2675 6.19693 80.5703 6.84048C80.5969 6.89687 80.6235 6.95331 80.6509 7.01145C81.0539 7.93722 81.1467 8.93981 81.1429 9.93762C81.1429 10.0118 81.1433 10.086 81.1438 10.1624C81.1433 10.2328 81.1433 10.3032 81.1433 10.3757C81.1433 10.4397 81.1433 10.5036 81.1429 10.5695C81.1342 10.7174 81.1342 10.7174 81.0635 10.7879C80.8447 10.7946 80.6272 10.7968 80.4085 10.7959C80.3398 10.7959 80.2708 10.7959 80.2001 10.7959C79.9718 10.7959 79.743 10.7953 79.5147 10.7948C79.3567 10.7946 79.1986 10.7946 79.041 10.7945C78.6243 10.7942 78.2076 10.7935 77.7909 10.7927C77.3662 10.792 76.9416 10.7917 76.5166 10.7914C75.6827 10.7906 74.8484 10.7894 74.0146 10.7879C74.0341 10.9987 74.0545 11.2094 74.0753 11.4201C74.0807 11.4789 74.0857 11.5378 74.0915 11.5985C74.2183 12.8671 74.727 14.0383 75.7222 14.8658C76.4205 15.3668 77.1857 15.4716 78.0271 15.3367C78.9121 15.1266 79.5372 14.6013 80.0766 13.8895C80.3349 13.9307 80.4675 14.0363 80.658 14.2111C80.7079 14.2562 80.7578 14.3014 80.809 14.3479C80.8651 14.4001 80.8651 14.4001 80.9225 14.4534C80.8173 15.0504 80.1831 15.6364 79.7048 15.9777C78.6721 16.6301 77.4428 16.8236 76.2483 16.5637C75.1258 16.2278 74.1743 15.4689 73.5916 14.4534C72.5465 12.4947 72.4716 10.0802 73.0909 7.9712C73.4889 6.71621 74.2084 5.64533 75.3641 4.96805C76.6368 4.32658 78.1523 4.40951 79.3317 5.21642ZM75.1025 6.73472C74.4737 7.4916 74.0848 8.53893 74.0848 9.51906C75.9925 9.51906 77.8998 9.51906 79.8653 9.51906C79.8653 8.27568 79.5588 7.27483 78.6979 6.35888C78.1751 5.89449 77.6024 5.75608 76.9208 5.76357C76.1776 5.82737 75.6083 6.21024 75.1025 6.73472Z" fill="black"/>
<path d="M6.10296 4.96708C6.26038 5.06794 6.40802 5.17499 6.55566 5.28952C6.62836 5.34189 6.70106 5.3942 6.77596 5.44815C7.73991 6.37018 8.05145 7.61074 8.24742 8.88453C8.24742 9.51256 8.24742 10.1406 8.24742 10.7878C5.92126 10.7878 3.59508 10.7878 1.19842 10.7878C1.33831 12.1866 1.48901 13.672 2.60822 14.6647C3.35139 15.2315 4.07012 15.465 5.00489 15.3696C5.90096 15.195 6.57284 14.7576 7.11957 14.0303C7.14286 13.9838 7.1661 13.9372 7.19006 13.8893C7.44812 13.9306 7.58096 14.0362 7.7716 14.2109C7.82142 14.2561 7.87121 14.3013 7.92249 14.3478C7.97867 14.4 7.97867 14.4 8.03594 14.4532C7.96141 15.0431 7.43885 15.5256 6.99596 15.8917C6.00236 16.5967 4.82847 16.7724 3.64244 16.6054C2.51895 16.3583 1.54782 15.6949 0.91646 14.7352C0.193277 13.5026 -0.0163983 12.3347 -0.0245883 10.9243C-0.0257456 10.7791 -0.0276556 10.6339 -0.0303707 10.4887C-0.0642805 8.65974 0.361973 7.00778 1.62218 5.62764C2.77891 4.50728 4.67525 4.17752 6.10296 4.96708ZM2.11479 6.91079C1.56426 7.69138 1.26891 8.56608 1.26891 9.51893C3.17637 9.51893 5.08382 9.51893 7.04907 9.51893C7.04907 8.36724 6.74913 7.36474 5.99175 6.48787C5.47967 5.98943 4.97968 5.77878 4.26913 5.75212C3.37829 5.77395 2.67868 6.24437 2.11479 6.91079Z" fill="black"/>
<path d="M108.626 0.00292969C109.417 0.00292969 110.208 0.00292969 111.022 0.00292969C111.022 5.4229 111.022 10.8429 111.022 16.4271C110.232 16.4271 109.441 16.4271 108.626 16.4271C108.626 11.0071 108.626 5.58714 108.626 0.00292969Z" fill="black"/>
<path d="M69.8185 5.3473C70.4727 5.88879 70.8116 6.57863 70.9834 7.40446C71.0025 7.66527 71.0021 7.91909 70.9834 8.17985C70.785 8.18172 70.5866 8.18314 70.3887 8.18426C70.3321 8.18484 70.2755 8.18542 70.2169 8.18605C70.073 8.18663 69.9291 8.18351 69.7848 8.17985C69.6696 8.06452 69.6837 7.91538 69.6617 7.75689C69.5515 7.14108 69.2965 6.70814 68.8112 6.31213C68.105 5.82666 67.3127 5.76099 66.4797 5.88368C65.9644 6.01576 65.5469 6.28913 65.2262 6.71525C64.9255 7.23449 64.8968 7.78584 65.0362 8.36434C65.2204 8.85546 65.5573 9.10562 66.0218 9.32376C66.5338 9.53894 67.0486 9.70546 67.5822 9.85839C68.765 10.2105 70.0297 10.6692 70.7147 11.7682C71.1281 12.5348 71.1772 13.465 70.9701 14.3037C70.6968 15.1549 70.1949 15.7573 69.4192 16.2069C68.2863 16.7714 66.9355 16.8021 65.7328 16.4401C64.8398 16.1395 64.1162 15.604 63.6625 14.7604C63.6358 14.7057 63.6092 14.6509 63.5818 14.5944C63.5589 14.5491 63.536 14.5038 63.5123 14.457C63.3256 14.0355 63.3027 13.5706 63.2998 13.1141C63.3705 13.0437 63.3705 13.0437 63.6392 13.0367C63.751 13.0372 63.8625 13.0381 63.974 13.0392C64.0309 13.0396 64.0875 13.0399 64.1461 13.0402C64.2871 13.041 64.4277 13.0423 64.5687 13.0437C64.5791 13.1025 64.5895 13.1612 64.5999 13.2218C64.7417 13.9321 64.9825 14.4681 65.556 14.9271C66.2992 15.4049 67.2117 15.484 68.0642 15.3217C68.6947 15.1444 69.1668 14.9135 69.4987 14.3345C69.744 13.8526 69.8052 13.3763 69.6613 12.8484C69.3901 12.1395 68.9767 11.8224 68.3046 11.4929C67.8463 11.3121 67.3747 11.1763 66.901 11.0421C65.6741 10.6919 64.562 10.2995 63.8771 9.14467C63.6816 8.70296 63.6263 8.27812 63.6304 7.80097C63.6309 7.74853 63.6313 7.69609 63.6317 7.64206C63.6496 6.81951 63.9523 6.12373 64.5159 5.51886C65.9349 4.20493 68.3001 4.23371 69.8185 5.3473Z" fill="black"/>
<path d="M14.7196 4.56259C14.7822 4.56292 14.8448 4.56325 14.9093 4.56363C15.7019 4.57781 16.2881 4.78983 16.8916 5.30711C17.7168 6.26266 17.9288 7.3409 17.9209 8.57656C17.9209 8.66194 17.921 8.74728 17.921 8.83524C17.9209 9.06677 17.9202 9.29829 17.9192 9.52978C17.9183 9.7727 17.9182 10.0156 17.9181 10.2585C17.9176 10.7174 17.9165 11.1762 17.9151 11.635C17.9135 12.1578 17.9127 12.6807 17.912 13.2035C17.9105 14.278 17.908 15.3525 17.9049 16.4269C17.5094 16.4269 17.114 16.4269 16.7066 16.4269C16.7062 16.3239 16.7057 16.2208 16.7053 16.1146C16.7013 15.1409 16.6962 14.1671 16.69 13.1933C16.6868 12.6928 16.684 12.1922 16.6822 11.6916C16.6805 11.2549 16.6782 10.8182 16.675 10.3816C16.6733 10.1507 16.672 9.91984 16.6715 9.68898C16.6708 9.43017 16.6688 9.17145 16.6666 8.91268C16.6667 8.83753 16.6668 8.76238 16.6669 8.68498C16.657 7.87786 16.535 6.99804 15.9728 6.37824C15.4903 5.94339 14.9136 5.8286 14.2871 5.83883C13.5417 5.89651 12.9479 6.27298 12.4331 6.80062C12.0087 7.31196 11.5548 8.12157 11.5496 8.78937C11.5486 8.89035 11.5486 8.89035 11.5476 8.99336C11.5472 9.06706 11.5467 9.1408 11.5463 9.21674C11.5453 9.33335 11.5453 9.33335 11.5442 9.45226C11.542 9.70973 11.5402 9.96717 11.5385 10.2246C11.537 10.4029 11.5356 10.5812 11.534 10.7595C11.5306 11.1811 11.5274 11.6028 11.5243 12.0244C11.5209 12.5045 11.517 12.9845 11.5131 13.4646C11.5051 14.452 11.4975 15.4395 11.4903 16.4269C11.0949 16.4269 10.6994 16.4269 10.292 16.4269C10.292 12.5887 10.292 8.75057 10.292 4.79607C10.6874 4.79607 11.0829 4.79607 11.4903 4.79607C11.5136 5.30782 11.5368 5.81957 11.5608 6.34684C11.6422 6.24071 11.7237 6.13457 11.8075 6.02523C12.5612 5.0911 13.5019 4.55468 14.7196 4.56259Z" fill="black"/>
<path d="M91.9196 0.77832C92.5476 0.77832 93.1756 0.77832 93.8227 0.77832C93.7279 1.25185 93.6268 1.69404 93.4809 2.15012C93.4605 2.21431 93.4401 2.2785 93.4193 2.34463C93.3515 2.55984 93.2829 2.77489 93.2147 2.98994C93.1656 3.14534 93.1166 3.30076 93.0675 3.45618C92.9581 3.80255 92.8483 4.14885 92.7385 4.49507C92.407 5.54087 92.0768 6.58704 91.7462 7.63317C91.6901 7.81034 91.6343 7.98747 91.5782 8.1646C90.9938 10.0119 90.9938 10.0119 90.4216 11.8629C90.0718 13.0072 89.7171 14.1501 89.3611 15.2926C89.2958 15.5018 89.2305 15.7111 89.1656 15.9204C89.0891 16.167 89.0121 16.4135 88.9352 16.66C88.9065 16.7522 88.8778 16.8444 88.8491 16.9366C88.81 17.0636 88.7701 17.1905 88.7306 17.3174C88.7081 17.3891 88.6857 17.4608 88.6628 17.5347C88.6062 17.6959 88.6062 17.6959 88.5359 17.7664C88.3949 17.7726 88.254 17.7739 88.1126 17.7733C88.0269 17.773 87.9416 17.7728 87.853 17.7726C87.7628 17.772 87.673 17.7714 87.5798 17.7708C87.4896 17.7705 87.3989 17.7702 87.3057 17.7698C87.0816 17.769 86.857 17.7679 86.6328 17.7664C86.7738 17.1636 86.9464 16.5739 87.1348 15.9844C87.2221 15.7116 87.3082 15.4385 87.3947 15.1654C87.413 15.1074 87.4313 15.0494 87.4505 14.9896C87.581 14.5769 87.71 14.1637 87.8381 13.7501C87.8659 13.6602 87.8659 13.6602 87.8942 13.5685C87.9129 13.5075 87.9321 13.4465 87.9512 13.3836C88.2831 12.3122 88.6179 11.2419 88.9589 10.1733C88.9743 10.1252 88.9897 10.0772 89.0055 10.0276C89.0841 9.78054 89.1631 9.53346 89.2417 9.28638C89.873 7.30944 90.4915 5.3291 91.0978 3.34449C91.25 2.84722 91.4031 2.35024 91.557 1.85351C91.5961 1.72623 91.6356 1.5989 91.6747 1.47157C91.6971 1.3989 91.7196 1.32624 91.7429 1.25137C91.762 1.1898 91.7811 1.12823 91.8007 1.06479C91.8489 0.919299 91.8489 0.919299 91.9196 0.77832Z" fill="black"/>
<path d="M21.2183 1.83545C21.637 1.83545 22.0557 1.83545 22.4872 1.83545C22.4872 2.81244 22.4872 3.78943 22.4872 4.79603C23.1617 4.79603 23.8363 4.79603 24.5313 4.79603C24.5313 5.16822 24.5313 5.5404 24.5313 5.92385C23.8568 5.92385 23.1822 5.92385 22.4872 5.92385C22.4932 6.94902 22.4998 7.97419 22.5074 8.99936C22.5109 9.47543 22.5142 9.9515 22.5169 10.4276C22.5195 10.8874 22.5228 11.3471 22.5265 11.807C22.5278 11.982 22.5289 12.1571 22.5297 12.3321C22.5309 12.5781 22.5329 12.8241 22.5351 13.07C22.5353 13.1417 22.5355 13.2134 22.5356 13.2873C22.543 13.9295 22.5615 14.6422 22.9806 15.158C23.4821 15.4833 24.1105 15.3605 24.6723 15.299C24.7523 15.5535 24.7499 15.7914 24.7472 16.0568C24.7466 16.1393 24.7459 16.2218 24.7453 16.3068C24.7445 16.3697 24.7436 16.4326 24.7428 16.4974C23.9916 16.712 23.1057 16.7727 22.3745 16.4583C21.8855 16.164 21.5791 15.7207 21.4167 15.1787C21.154 14.1158 21.1997 13.0057 21.2045 11.9197C21.2048 11.7459 21.205 11.5722 21.2052 11.3985C21.2057 10.9453 21.2071 10.4921 21.2087 10.0389C21.2101 9.57483 21.2107 9.11074 21.2114 8.64668C21.2129 7.73909 21.2154 6.83149 21.2183 5.92385C20.6368 5.92385 20.0552 5.92385 19.4561 5.92385C19.4561 5.55167 19.4561 5.17949 19.4561 4.79603C20.0376 4.79603 20.6192 4.79603 21.2183 4.79603C21.2183 3.81904 21.2183 2.84205 21.2183 1.83545Z" fill="black"/>
<path d="M40.3565 4.57145C40.4101 4.57061 40.4636 4.56974 40.5187 4.56887C40.8151 4.56808 40.9664 4.59004 41.2376 4.72566C41.2376 5.14438 41.2376 5.5631 41.2376 5.9945C40.9302 5.98577 40.9302 5.98577 40.6165 5.97687C39.7903 5.97104 39.1975 6.11956 38.5849 6.70571C38.1459 7.24542 37.7779 7.95838 37.7725 8.66231C37.7714 8.76521 37.7714 8.76521 37.7704 8.87018C37.77 8.94495 37.7696 9.01973 37.7692 9.0968C37.7681 9.21545 37.7681 9.21545 37.7671 9.33652C37.7648 9.59815 37.7631 9.85979 37.7613 10.1214C37.7599 10.3028 37.7584 10.4841 37.7569 10.6655C37.7534 11.0941 37.7502 11.5227 37.7472 11.9514C37.7437 12.4394 37.7398 12.9275 37.7359 13.4155C37.7279 14.4194 37.7204 15.4232 37.7132 16.427C37.2945 16.427 36.8757 16.427 36.4443 16.427C36.4443 12.5888 36.4443 8.75065 36.4443 4.79615C36.8631 4.79615 37.2818 4.79615 37.7132 4.79615C37.7364 5.21487 37.7597 5.63359 37.7836 6.06495C37.8534 5.97046 37.9232 5.87597 37.9951 5.77861C38.6318 4.96542 39.3202 4.57236 40.3565 4.57145Z" fill="black"/>
<path d="M57.2208 4.57132C57.274 4.57136 57.3268 4.5714 57.3817 4.57148C57.61 4.57327 57.7959 4.58242 58.0139 4.65504C58.0139 5.097 58.0139 5.53897 58.0139 5.99433C57.8205 5.98855 57.6271 5.98273 57.4279 5.97674C56.6672 5.96983 56.0746 6.12313 55.4807 6.62133C54.7965 7.31861 54.5166 8.19601 54.5212 9.15269C54.5204 9.23187 54.52 9.31102 54.5191 9.39262C54.5171 9.65159 54.5166 9.91052 54.5166 10.1695C54.5158 10.3501 54.5146 10.5308 54.5133 10.7114C54.5104 11.1365 54.5087 11.5617 54.5079 11.9868C54.5071 12.4713 54.5042 12.9558 54.5013 13.4402C54.4954 14.4358 54.4917 15.4313 54.4892 16.4269C54.0937 16.4269 53.6982 16.4269 53.291 16.4269C53.291 12.5887 53.291 8.75052 53.291 4.79602C53.6865 4.79602 54.0816 4.79602 54.4892 4.79602C54.5125 5.23799 54.5358 5.67996 54.5599 6.13532C54.6177 6.04083 54.6759 5.94634 54.7358 5.84898C55.3226 4.97336 56.1748 4.55397 57.2208 4.57132Z" fill="black"/>
<path d="M59.7764 4.79639C60.1719 4.79639 60.5674 4.79639 60.975 4.79639C60.975 8.63456 60.975 12.4727 60.975 16.4272C60.5795 16.4272 60.1839 16.4272 59.7764 16.4272C59.7764 12.5891 59.7764 8.75088 59.7764 4.79639Z" fill="black"/>
<path d="M60.7634 0.637299C60.9493 0.791857 61.0782 0.914565 61.1863 1.13073C61.2159 1.45282 61.2258 1.74266 61.0982 2.04269C60.9276 2.24365 60.7875 2.38108 60.5234 2.43259C60.0381 2.43857 60.0381 2.43857 59.7719 2.23214C59.5115 1.8793 59.5211 1.56039 59.5648 1.13073C59.6845 0.878366 59.7719 0.755674 60.0056 0.606461C60.273 0.551754 60.5018 0.553867 60.7634 0.637299Z" fill="black"/>
</g>
</g>
</g>
</g>
<defs>
<clipPath id="clip0_1370_984">
<rect width="144.73" height="20.8" fill="white"/>
</clipPath>
<clipPath id="clip1_1370_984">
<rect width="144.73" height="20.8" fill="white"/>
</clipPath>
<clipPath id="clip2_1370_984">
<rect width="144.73" height="20.7945" fill="white" transform="translate(0 0.00292969)"/>
</clipPath>
</defs>
</svg>
