<svg width="150" height="42" viewBox="0 0 150 42" fill="none" xmlns="http://www.w3.org/2000/svg">
<g clip-path="url(#clip0_1370_1039)">
<path d="M55.0932 24.3505C54.069 24.3505 53.2685 24.0653 52.6912 23.4948C52.1139 22.9243 51.8252 22.1099 51.8252 21.0515V17.0103H53.4953V20.9896C53.4953 21.6769 53.636 22.1717 53.918 22.4742C54.1999 22.7766 54.5948 22.9278 55.1035 22.9278C55.6123 22.9278 56.0072 22.7766 56.2891 22.4742C56.5711 22.1717 56.7118 21.6769 56.7118 20.9896V17.0103H58.3613V21.0515C58.3613 22.1099 58.0726 22.9243 57.4953 23.4948C56.918 24.0653 56.1175 24.3505 55.0932 24.3505ZM60.0118 24.2267V17.0103H63.1355C63.7814 17.0103 64.3381 17.1168 64.8056 17.3298C65.2726 17.536 65.6334 17.835 65.8881 18.2267C66.1422 18.6185 66.2695 19.0859 66.2695 19.6288C66.2695 20.1649 66.1422 20.6288 65.8881 21.0206C65.6334 21.4055 65.2726 21.701 64.8056 21.9072C64.3381 22.1133 63.7814 22.2164 63.1355 22.2164H60.9396L61.6819 21.4845V24.2267H60.0118ZM64.5994 24.2267L62.7953 21.6082H64.5788L66.4035 24.2267H64.5994ZM61.6819 21.67L60.9396 20.8865H63.0427C63.5582 20.8865 63.9427 20.7766 64.1974 20.5566C64.4515 20.3298 64.5788 20.0206 64.5788 19.6288C64.5788 19.2302 64.4515 18.9209 64.1974 18.701C63.9427 18.481 63.5582 18.3711 63.0427 18.3711H60.9396L61.6819 17.5773V21.67ZM67.5927 24.2267V17.0103H71.1185C72.0257 17.0103 72.7061 17.1821 73.1597 17.5257C73.62 17.8694 73.8504 18.323 73.8504 18.8865C73.8504 19.2645 73.7577 19.5944 73.5721 19.8762C73.3865 20.1511 73.1319 20.3642 72.8092 20.5154C72.486 20.6666 72.1149 20.7422 71.6958 20.7422L71.8917 20.3195C72.3453 20.3195 72.7474 20.3952 73.0979 20.5463C73.4484 20.6907 73.7195 20.9072 73.9123 21.1958C74.1113 21.4845 74.2113 21.8385 74.2113 22.2577C74.2113 22.8762 73.9669 23.3608 73.4793 23.7113C72.9912 24.0549 72.2731 24.2267 71.3247 24.2267H67.5927ZM69.2525 22.969H71.201C71.634 22.969 71.9602 22.9003 72.1804 22.7628C72.4072 22.6185 72.5206 22.3917 72.5206 22.0824C72.5206 21.78 72.4072 21.5566 72.1804 21.4123C71.9602 21.2611 71.634 21.1855 71.201 21.1855H69.1288V19.969H70.9123C71.3175 19.969 71.6267 19.9003 71.8401 19.7628C72.0597 19.6185 72.17 19.402 72.17 19.1133C72.17 18.8315 72.0597 18.622 71.8401 18.4845C71.6267 18.3402 71.3175 18.268 70.9123 18.268H69.2525V22.969ZM74.5273 24.2267L77.7438 17.0103H79.3932L82.62 24.2267H80.8675L78.2283 17.8556H78.8881L76.2386 24.2267H74.5273ZM76.1355 22.6804L76.5788 21.4123H80.2901L80.7437 22.6804H76.1355ZM83.3685 24.2267V17.0103H84.7499L89.0077 22.2061H88.3376V17.0103H89.9871V24.2267H88.6159L84.3479 19.0309H85.018V24.2267H83.3685Z" fill="black"/>
<path d="M92.9277 24.2266V17.0101H95.6288C96.2406 17.0101 96.7664 17.1097 97.2061 17.3091C97.6458 17.5015 97.9829 17.7833 98.2164 18.1544C98.4571 18.5187 98.5772 18.962 98.5772 19.4843C98.5772 19.9929 98.4571 20.4328 98.2164 20.8039C97.9829 21.1682 97.6458 21.4499 97.2061 21.6493C96.7664 21.8417 96.2406 21.9379 95.6288 21.9379H93.3504L93.6906 21.5874V24.2266H92.9277ZM97.8556 24.2266L95.9999 21.608H96.8246L98.6906 24.2266H97.8556ZM93.6906 21.6493L93.3504 21.2884H95.6081C96.3298 21.2884 96.8762 21.1304 97.2473 20.8142C97.6252 20.4981 97.8143 20.0548 97.8143 19.4843C97.8143 18.907 97.6252 18.4603 97.2473 18.1441C96.8762 17.828 96.3298 17.6699 95.6081 17.6699H93.3504L93.6906 17.3091V21.6493ZM101.058 20.2369H104.873V20.8864H101.058V20.2369ZM101.141 23.5668H105.481V24.2266H100.378V17.0101H105.326V17.6699H101.141V23.5668ZM110.388 24.2884C109.845 24.2884 109.343 24.1991 108.883 24.0204C108.423 23.8348 108.024 23.5771 107.687 23.2472C107.35 22.9173 107.085 22.529 106.893 22.0823C106.708 21.6355 106.615 21.1476 106.615 20.6183C106.615 20.0891 106.708 19.6012 106.893 19.1544C107.085 18.7077 107.35 18.3194 107.687 17.9895C108.031 17.6596 108.433 17.4053 108.893 17.2266C109.354 17.041 109.856 16.9482 110.398 16.9482C110.921 16.9482 111.412 17.0376 111.873 17.2163C112.333 17.3881 112.722 17.6493 113.038 17.9998L112.553 18.4843C112.258 18.1819 111.931 17.9654 111.574 17.8348C111.216 17.6974 110.831 17.6287 110.419 17.6287C109.986 17.6287 109.584 17.7043 109.213 17.8555C108.842 17.9998 108.518 18.2094 108.244 18.4843C107.969 18.7524 107.752 19.0685 107.594 19.4328C107.443 19.7901 107.367 20.1854 107.367 20.6183C107.367 21.0513 107.443 21.4499 107.594 21.8142C107.752 22.1716 107.969 22.4878 108.244 22.7627C108.518 23.0307 108.842 23.2404 109.213 23.3915C109.584 23.5359 109.986 23.608 110.419 23.608C110.831 23.608 111.216 23.5393 111.574 23.4019C111.931 23.2644 112.258 23.0445 112.553 22.7421L113.038 23.2266C112.722 23.5771 112.333 23.8417 111.873 24.0204C111.412 24.1991 110.917 24.2884 110.388 24.2884ZM117.667 24.2884C117.125 24.2884 116.619 24.1991 116.152 24.0204C115.692 23.8348 115.29 23.5771 114.946 23.2472C114.609 22.9105 114.344 22.5221 114.152 22.0823C113.966 21.6355 113.874 21.1476 113.874 20.6183C113.874 20.0891 113.966 19.6046 114.152 19.1647C114.344 18.718 114.609 18.3297 114.946 17.9998C115.29 17.663 115.692 17.4053 116.152 17.2266C116.612 17.041 117.117 16.9482 117.667 16.9482C118.21 16.9482 118.712 17.041 119.173 17.2266C119.633 17.4053 120.032 17.6596 120.368 17.9895C120.712 18.3194 120.977 18.7077 121.162 19.1544C121.355 19.6012 121.451 20.0891 121.451 20.6183C121.451 21.1476 121.355 21.6355 121.162 22.0823C120.977 22.529 120.712 22.9173 120.368 23.2472C120.032 23.5771 119.633 23.8348 119.173 24.0204C118.712 24.1991 118.21 24.2884 117.667 24.2884ZM117.667 23.608C118.1 23.608 118.499 23.5359 118.863 23.3915C119.234 23.2404 119.554 23.0307 119.822 22.7627C120.097 22.4878 120.31 22.1716 120.461 21.8142C120.612 21.4499 120.688 21.0513 120.688 20.6183C120.688 20.1854 120.612 19.7901 120.461 19.4328C120.31 19.0685 120.097 18.7524 119.822 18.4843C119.554 18.2094 119.234 17.9998 118.863 17.8555C118.499 17.7043 118.1 17.6287 117.667 17.6287C117.234 17.6287 116.832 17.7043 116.461 17.8555C116.09 17.9998 115.767 18.2094 115.492 18.4843C115.224 18.7524 115.011 19.0685 114.853 19.4328C114.702 19.7901 114.626 20.1854 114.626 20.6183C114.626 21.0445 114.702 21.4396 114.853 21.8039C115.011 22.1682 115.224 22.4878 115.492 22.7627C115.767 23.0307 116.09 23.2404 116.461 23.3915C116.832 23.5359 117.234 23.608 117.667 23.608ZM125.001 24.2266L121.805 17.0101H122.63L125.619 23.8039H125.166L128.176 17.0101H128.949L125.754 24.2266H125.001ZM130.677 20.2369H134.492V20.8864H130.677V20.2369ZM130.76 23.5668H135.1V24.2266H129.997V17.0101H134.945V17.6699H130.76V23.5668ZM136.893 24.2266V17.0101H139.594C140.206 17.0101 140.732 17.1097 141.172 17.3091C141.611 17.5015 141.948 17.7833 142.182 18.1544C142.423 18.5187 142.543 18.962 142.543 19.4843C142.543 19.9929 142.423 20.4328 142.182 20.8039C141.948 21.1682 141.611 21.4499 141.172 21.6493C140.732 21.8417 140.206 21.9379 139.594 21.9379H137.316L137.656 21.5874V24.2266H136.893ZM141.821 24.2266L139.965 21.608H140.79L142.656 24.2266H141.821ZM137.656 21.6493L137.316 21.2884H139.574C140.295 21.2884 140.842 21.1304 141.213 20.8142C141.591 20.4981 141.78 20.0548 141.78 19.4843C141.78 18.907 141.591 18.4603 141.213 18.1441C140.842 17.828 140.295 17.6699 139.574 17.6699H137.316L137.656 17.3091V21.6493ZM145.964 24.2266V21.5462L146.14 22.0204L143.078 17.0101H143.892L146.583 21.4122H146.15L148.841 17.0101H149.603L146.542 22.0204L146.717 21.5462V24.2266H145.964Z" fill="black"/>
<path d="M40.7216 0H0V41.2371H40.7216V0Z" fill="black"/>
<path d="M19.5879 23.8941V9.27832H25.5955C27.0727 9.27832 28.3425 9.55595 29.4047 10.1112C30.467 10.6472 31.2804 11.4322 31.8447 12.4661C32.4256 13.4808 32.7161 14.7157 32.7161 16.1708C32.7161 17.5876 32.4256 18.8129 31.8447 19.8468C31.2804 20.8615 30.467 21.6465 29.4047 22.2017C28.3425 22.7378 27.0727 23.0058 25.5955 23.0058H20.0932L20.9148 22.0294V23.8941H19.5879ZM33.5506 31.9587L26.4918 22.0869H28.4836L35.5673 31.9587H33.5506ZM20.9148 22.2017L20.0932 21.1966H25.5457C27.2885 21.1966 28.608 20.7562 29.5043 19.8755C30.4172 18.9948 30.8737 17.7599 30.8737 16.1708C30.8737 14.5625 30.4172 13.3181 29.5043 12.4374C28.608 11.5567 27.2885 11.1163 25.5457 11.1163H20.0932L20.9148 10.1112V22.2017Z" fill="white"/>
<path d="M13.1298 31.9587C10.6612 31.9587 8.71476 31.1437 7.29059 29.5137C5.86641 27.8838 5.1543 25.4602 5.1543 22.2432V9.27832H6.60698V22.1788C6.60698 24.9884 7.17667 27.0688 8.316 28.4199C9.45533 29.7711 11.0694 30.4467 13.1582 30.4467C15.2281 30.4467 16.8326 29.7711 17.972 28.4199C19.1113 27.0688 19.681 24.9884 19.681 22.1788V9.27832H21.1337V22.2432C21.1337 25.4602 20.4216 27.8838 18.9974 29.5137C17.5732 31.1437 15.6173 31.9587 13.1298 31.9587Z" fill="white"/>
</g>
<defs>
<clipPath id="clip0_1370_1039">
<rect width="150" height="41.2371" fill="white"/>
</clipPath>
</defs>
</svg>
