<svg width="150" height="42" viewBox="0 0 150 42" fill="none" xmlns="http://www.w3.org/2000/svg">
<path d="M130.466 41.3904V12.6226H139.826C143.137 12.6226 145.66 13.5815 147.396 15.4993C149.133 17.4172 150.001 20.2376 150.001 23.9605V30.0102C150.001 33.7613 149.133 36.5958 147.396 38.5136C145.66 40.4315 143.137 41.3904 139.826 41.3904H130.466ZM139.623 17.4877H135.35V36.5253H139.623C141.549 36.5253 142.919 36.0317 143.733 35.0446C144.575 34.0574 144.995 32.3793 144.995 30.0102V23.9605C144.995 21.6196 144.575 19.9555 143.733 18.9684C142.919 17.9813 141.549 17.4877 139.623 17.4877Z" fill="black"/>
<path d="M106.353 12.6226H111.358V31.0678C111.358 32.9293 111.752 34.3959 112.539 35.4676C113.326 36.5112 114.587 37.0329 116.324 37.0329C118.06 37.0329 119.322 36.5112 120.109 35.4676C120.895 34.3959 121.289 32.9293 121.289 31.0678V12.6226H126.295V31.0678C126.295 34.3113 125.467 36.9201 123.812 38.8944C122.157 40.8405 119.661 41.8135 116.324 41.8135C112.959 41.8135 110.45 40.8405 108.794 38.8944C107.167 36.9201 106.353 34.3113 106.353 31.0678V12.6226Z" fill="black"/>
<path d="M86.0459 41.3904V12.6226H94.4704C96.5325 12.6226 98.1604 12.9328 99.3542 13.5533C100.575 14.1738 101.443 15.0481 101.959 16.1762C102.502 17.3044 102.773 18.63 102.773 20.153V21.3375C102.773 23.5656 101.85 25.272 100.005 26.4565C101.308 26.9924 102.298 27.768 102.976 28.7833C103.655 29.7987 103.994 31.0114 103.994 32.4216V33.6062C103.994 35.1574 103.723 36.5253 103.18 37.7098C102.637 38.8662 101.742 39.7687 100.494 40.4174C99.2457 41.0661 97.5771 41.3904 95.4879 41.3904H86.0459ZM94.4704 17.2762H90.9297V24.4682H94.4704C95.5557 24.4682 96.3697 24.2143 96.9123 23.7066C97.4821 23.1708 97.767 22.4516 97.767 21.5491V20.153C97.767 19.2504 97.4821 18.5454 96.9123 18.0377C96.3697 17.53 95.5557 17.2762 94.4704 17.2762ZM95.4879 29.1218H90.9297V36.7368H95.4879C96.6275 36.7368 97.4957 36.4548 98.0926 35.8907C98.6895 35.3266 98.988 34.5651 98.988 33.6062V32.2101C98.988 31.2512 98.6895 30.5038 98.0926 29.9679C97.4957 29.4038 96.6275 29.1218 95.4879 29.1218Z" fill="black"/>
<path d="M71.9011 37.3293C72.9864 37.3293 73.8817 37.0614 74.5871 36.5255C75.2926 35.9896 75.7267 35.2704 75.8895 34.3679C76.0523 33.4372 75.8488 32.4077 75.279 31.2796L79.0233 28.9105L85.2094 41.3906H80.1221L78.3314 37.2024C77.9515 38.5562 77.1647 39.6702 75.9709 40.5445C74.8042 41.3906 73.2984 41.8137 71.4534 41.8137C69.0386 41.8137 67.1394 41.1086 65.7556 39.6984C64.399 38.2882 63.7207 36.4691 63.7207 34.241C63.7207 32.6616 64.1141 31.1809 64.901 29.7989C65.7149 28.4169 67.0851 27.0772 69.0115 25.7798C67.682 24.7081 66.7188 23.6363 66.1219 22.5646C65.525 21.4647 65.2265 20.2942 65.2265 19.0532C65.2265 17.7841 65.5114 16.6277 66.0812 15.5842C66.651 14.5406 67.4785 13.7227 68.5638 13.1304C69.6762 12.5099 71.0328 12.1997 72.6336 12.1997C74.9399 12.1997 76.7713 12.8202 78.1279 14.0612C79.4845 15.3021 80.1628 17.0226 80.1628 19.2225C80.1628 20.548 79.9051 21.6903 79.3896 22.6492C78.9012 23.6081 78.2229 24.4825 77.3546 25.2722C76.4864 26.0337 75.4689 26.7952 74.3023 27.5567L71.4534 29.4604C70.2324 30.2783 69.432 31.068 69.0522 31.8296C68.6723 32.5911 68.4824 33.3244 68.4824 34.0294C68.4824 35.1576 68.7944 35.9896 69.4185 36.5255C70.0696 37.0614 70.8972 37.3293 71.9011 37.3293ZM69.7441 19.3071C69.7441 19.9275 69.9068 20.6185 70.2324 21.38C70.5852 22.1415 71.1821 22.9172 72.0232 23.7069C72.9728 23.0582 73.6918 22.5223 74.1802 22.0992C74.6685 21.648 75.0077 21.2249 75.1976 20.8301C75.3875 20.4352 75.4825 19.9981 75.4825 19.5186C75.4825 18.5033 75.2112 17.77 74.6685 17.3187C74.1259 16.8392 73.4612 16.5995 72.6743 16.5995C71.8604 16.5995 71.1685 16.8251 70.5987 17.2764C70.0289 17.7277 69.7441 18.4045 69.7441 19.3071Z" fill="black"/>
<path d="M64.2565 36.5253V41.3904H48.3027V12.6226H53.1865V36.5253H64.2565Z" fill="black"/>
<path d="M0 0H17.2941V17.9771H0V0Z" fill="black"/>
<path d="M0 23.3711H17.2941V41.3482H0V23.3711Z" fill="black"/>
<path d="M22.4814 8.98855C22.4814 4.02431 26.3529 0 31.1285 0V0C35.9041 0 39.7755 4.02431 39.7755 8.98855V8.98855C39.7755 13.9528 35.9041 17.9771 31.1285 17.9771V17.9771C26.3529 17.9771 22.4814 13.9528 22.4814 8.98855V8.98855Z" fill="black"/>
<path d="M22.4814 23.3711H22.7771C32.165 23.3711 39.7755 31.2821 39.7755 41.0409V41.3482H22.4814V23.3711Z" fill="black"/>
<path d="M85.6757 6.15738V6.99002H81.918V0H85.5769V0.842913H82.7783V3.03243H85.2802V3.87535H82.7783V6.15738H85.6757Z" fill="black"/>
<path d="M75.0898 6.99002V0H75.9897C76.5897 0.890884 77.1401 1.78862 77.6412 2.69321C78.1488 3.59095 78.6235 4.52981 79.0652 5.50978L78.9663 2.83712V0H79.8068V6.99002H78.9069C78.4455 5.98949 77.9675 5.01636 77.4731 4.07066C76.9852 3.1181 76.4512 2.18952 75.8711 1.28493L75.9304 4.13233V6.99002H75.0898Z" fill="black"/>
<path d="M72.9853 6.99002H72.125V0H72.9853V6.99002Z" fill="black"/>
<path d="M69.9777 6.99002L69.4734 5.36587H66.922L66.4177 6.99002H65.5771L67.812 0H68.6229L70.8677 6.99002H69.9777ZM67.545 3.3511L67.1693 4.55379H69.2163L68.8405 3.3511L68.1977 1.19241L67.545 3.3511Z" fill="black"/>
<path d="M61.3388 4.25569V6.99002H60.4785V0H62.5848C63.2177 0 63.7056 0.17475 64.0484 0.524251C64.3978 0.866899 64.5725 1.32605 64.5725 1.9017V2.34371C64.5725 2.75489 64.4802 3.11124 64.2956 3.41277C64.1176 3.7143 63.8605 3.93702 63.5243 4.08094C63.8078 4.55379 64.0715 5.0335 64.3154 5.52006C64.5593 6.00662 64.7835 6.4966 64.9878 6.99002H63.999C63.6232 6.05801 63.1848 5.14657 62.6837 4.25569H61.3388ZM62.5848 0.822355H61.3388V3.43333H62.5848C62.9211 3.43333 63.1881 3.33739 63.3858 3.14551C63.5836 2.94677 63.6825 2.67951 63.6825 2.34371V1.9017C63.6825 1.55905 63.5836 1.29521 63.3858 1.11018C63.1881 0.918296 62.9211 0.822355 62.5848 0.822355Z" fill="black"/>
<path d="M58.2567 6.99002L56.3382 3.69032C56.1998 3.84108 56.0547 3.99527 55.9031 4.15289C55.7581 4.31051 55.6064 4.46813 55.4482 4.62575V6.99002H54.5879V0H55.4482V3.62864C56.0679 2.97761 56.5854 2.36084 57.0008 1.77834C57.4161 1.19584 57.7688 0.60306 58.0589 0H58.9884C58.6918 0.60306 58.3819 1.1513 58.0589 1.64471C57.7424 2.13127 57.3798 2.61783 56.9711 3.10439L59.3049 6.99002H58.2567Z" fill="black"/>
<path d="M48.0371 0H48.9271V4.48184C48.9271 5.04378 49.0392 5.48237 49.2633 5.7976C49.4941 6.11284 49.8501 6.27046 50.3313 6.27046C50.8192 6.27046 51.1752 6.11284 51.3993 5.7976C51.6235 5.48237 51.7355 5.04378 51.7355 4.48184V0H52.6255V4.48184C52.6255 5.29734 52.4344 5.93809 52.052 6.40409C51.6696 6.86324 51.0961 7.09281 50.3313 7.09281C49.56 7.09281 48.9831 6.86324 48.6008 6.40409C48.225 5.93809 48.0371 5.29734 48.0371 4.48184V0Z" fill="black"/>
</svg>
